<svg xmlns="http://www.w3.org/2000/svg" width="1000mm" height="500mm" viewBox="0 0 1000 500" id="svg8">
  <g id="layer1" transform="translate(0 203)" fill="white ">
    <g transform="matrix(1.52648 0 0 1.52648 584.4 -109)" id="g28" stroke-width=".2">
      <g id="g6">
        <path d="M78.6 49.4c2-1.2 12.9-7 30.4.3 18 7.4 29.2 1 30.5 0a61 61 0 0 0-15.2-17.5l1.2-.3c7.6-2.2 9.5-8.7 9.9-14.2.5-6.2.8-6.3 2.1-12 1.3-5.3-.1-6.4-1.5-5.3-.7.6-7 2-10.7 5a41.9 41.9 0 0 0-11.7 19.5c-.8 1.8-2.4 1.8-2.4 1.8a20.8 20.8 0 0 0-4.3 0c-2 .3-3.1-2.1-3.3-2.7C101.2 17.3 95 4.1 80.9.6c0 0-2.6-2-1.8 1.3.8 3.2 2.3 6.4 2 11-.2 2.2-1.5 13.2 8.6 19l2.6 1.3a63 63 0 0 0-13.7 16.2z" id="path2"/>
        <path d="M145 150.2c-12.3-7.7-16.5-10.4-16.3-13.3l.2-1.3a8 8 0 0 1 4.5-5.9 39.7 39.7 0 0 0 19.2-25.9c-2.5 6.3-21 11.1-43.6 11.1s-41.2-4.8-43.7-11c.6 2.5 1.4 4.9 2.3 7.2.9 4.7 2 15.8-3.3 25.5-4.7 8.6-28 20.3-62.4 13.6 0 0-1.4-1-1.8-.2-.6 1.2 2 2.1 4.5 2.8 24 6.4 60.2 3.8 71.6-5.6 5.2-4.2 7.2-10 7.7-16.2 0 0 .1-1.6 2.2-.4.5.4 2.6 1.7 3 3.3.3 2.2.3 4.9-.8 6.8-1.7 2.7-1.7 3 .4 4.6 1.4 1 6.7 4.8 14.2 9.3 1.6 1 3.8 3.3 3.8 3.3 3.3 4 10.6 11.7 13.8 10.3 1.5-.7 0-3.9 0-3.9s2.4 3.3 3.8 2.2c1-.9-.6-4.1-.6-4.1s2.2 1.9 3.5 1.2c1.5-.9-.3-5.8-12.7-13.4-12.5-7.6-15.9-8.8-16.2-12.1v-.5c.1-.8.5-2.3 2.3-2.2a52 52 0 0 0 17.9-.2h.2c.3 0 1 0 1 .8a7 7 0 0 1-1 3.2c-1.9 2.8-1.3 3.1.7 4.9 1.1 1 6.5 5.8 14 10.4 1.5 1 4.2 3.6 4.2 3.6 3.1 3 8.7 8.3 11.8 8 2-.2.4-3.8.4-3.8s2.6 2.5 3.9 1.8c1.4-.8-.6-3.5-.6-3.5s1.7.9 2.9.6c1.2-.3 1.5-3.3-11-11z" id="path4"/>
      </g>
      <path d="M131.2 63.3c-1.5 0-2.7.5-3.7 1.4-1 .9-1.4 1.9-1.4 3V88c0 2.7-.5 4.7-1.4 6-1 1.1-2.4 1.7-4.5 1.7-2.2 0-3.6-.6-4.5-1.8-.9-1.2-1.4-3.2-1.4-6V67.8c0-1.4-.6-2.6-1.8-3.3a5.7 5.7 0 0 0-5.2-.8l-1.7.8c-.5.4-1 .8-1.3 1.3-.5.5-.7 1.1-.7 1.7V88c0 2.7-.4 4.7-1.3 6-.9 1.1-2.3 1.7-4.5 1.7-2.1 0-3.6-.6-4.5-1.8-1-1.2-1.4-3.2-1.4-6V67.8c0-1.1-.5-2.1-1.5-3-.9-1-2.2-1.4-3.7-1.4-1.6 0-2.9.5-3.9 1.3a4 4 0 0 0-1.5 3.1v20c0 2.5.2 4.8.7 7a15 15 0 0 0 2.6 5.8c1.2 1.6 2.8 3 4.9 3.8 2 1 4.5 1.4 7.5 1.4 3.1 0 5.7-.6 7.7-1.7 1.7-1 3.1-2.2 4.3-3.7 1 1.5 2.5 2.7 4.1 3.7 2 1.1 4.7 1.7 7.9 1.7 3 0 5.5-.5 7.5-1.4 2-.9 3.6-2.2 4.8-3.8a15 15 0 0 0 2.6-5.8c.5-2.2.7-4.5.7-7v-20a4 4 0 0 0-1.5-3c-1-1-2.3-1.4-3.9-1.4z" id="path8"/>
      <g id="g26">
        <path d="M40.2 210.6c-.6 0-1.2.2-1.6.6-.4.4-.6.9-.6 1.4v9c0 1.2-.3 2-.7 2.6-.4.6-1 .8-2 .8s-1.6-.2-2-.8c-.4-.5-.6-1.4-.6-2.6v-9c0-.7-.2-1.2-.8-1.5-.7-.5-1.4-.6-2.3-.3-.3 0-.5.2-.7.3-.3.2-.5.3-.6.6-.2.2-.3.5-.3.7v9.2c0 1.2-.2 2-.6 2.6-.4.6-1 .8-2 .8s-1.6-.2-2-.8c-.4-.5-.6-1.4-.6-2.6v-9c0-.5-.2-1-.7-1.4-.4-.4-1-.6-1.6-.6-.7 0-1.3.2-1.8.6-.4.4-.7.9-.7 1.4v8.8c0 1.2.2 2.2.4 3.2s.6 1.8 1.1 2.5c.6.8 1.3 1.3 2.2 1.7.9.4 2 .6 3.3.6a6 6 0 0 0 5.3-2.4c.5.7 1.2 1.3 1.9 1.7.9.5 2 .7 3.5.7 1.3 0 2.4-.2 3.3-.6.9-.4 1.6-1 2.2-1.7.5-.7.9-1.6 1.1-2.5.2-1 .3-2 .3-3.2v-8.8c0-.5-.2-1-.6-1.4-.5-.4-1-.6-1.8-.6z" id="path10"/>
        <path d="M66.3 212.7a6.4 6.4 0 0 0-2.4-1.5c-1-.4-2.1-.6-3.4-.6-1.4 0-2.7.3-3.8.8a8 8 0 0 0-4.2 4.6c-.4 1-.6 2-.6 3v3.1c0 1 .2 1.8.5 2.7a6.4 6.4 0 0 0 3.4 4 9 9 0 0 0 5 .5l1.2-.5a4.2 4.2 0 0 0 1.5-1.3v.2c0 .5.2 1 .6 1.3.4.4 1 .6 1.6.6.8 0 1.3-.2 1.8-.6.4-.4.6-.8.6-1.3v-9.8c0-1-.1-2-.4-2.9a6 6 0 0 0-1.4-2.3zm-7.3 2.7c.4-.2 1-.3 1.5-.3 1 0 1.7.2 2.2.6.5.4.8 1.2.8 2.2v3.3a4 4 0 0 1-.4 1.7c-.2.5-.5.8-.8 1.2a4 4 0 0 1-2.6 1 3 3 0 0 1-2-1c-.7-.5-1-1.1-1-1.9V219a3.9 3.9 0 0 1 2.3-3.5z" id="path12"/>
        <path d="M80.6 204.7c-.7 0-1.3.2-1.8.6-.4.4-.7.8-.7 1.3v20.9c0 .5.3 1 .7 1.4.5.4 1 .5 1.8.5.6 0 1.2-.2 1.6-.5.4-.4.7-.9.7-1.4v-20.9c0-.5-.3-1-.7-1.3-.4-.4-1-.6-1.6-.6z" id="path14"/>
        <path d="M95.5 204.7c-.7 0-1.3.2-1.7.6-.5.4-.7.8-.7 1.3v20.9c0 .5.2 1 .7 1.4.4.4 1 .5 1.7.5s1.2-.2 1.7-.5c.4-.4.6-.9.6-1.4v-20.9c0-.5-.2-1-.6-1.3-.5-.4-1-.6-1.7-.6z" id="path16"/>
        <path d="M121.7 212.7a6.4 6.4 0 0 0-2.4-1.5c-1-.4-2.1-.6-3.4-.6-1.4 0-2.7.3-3.7.8a8 8 0 0 0-4.3 4.6c-.4 1-.5 2-.5 3v3.1c0 1 0 1.8.4 2.7a6.4 6.4 0 0 0 3.4 4 9 9 0 0 0 5 .5l1.2-.5a4.2 4.2 0 0 0 1.5-1.3v.2c0 .5.2 1 .6 1.3.4.4 1 .6 1.6.6.8 0 1.4-.2 1.8-.6.4-.4.6-.8.6-1.3v-9.8c0-1-.1-2-.4-2.9a6 6 0 0 0-1.4-2.3zm-7.3 2.7c.4-.2 1-.3 1.5-.3 1 0 1.7.2 2.2.6.5.4.8 1.2.8 2.2v3.3a4 4 0 0 1-.4 1.7 3.5 3.5 0 0 1-3.3 2.1 3 3 0 0 1-2.2-.8c-.5-.6-.8-1.2-.8-2V219a3.8 3.8 0 0 1 1-2.7c.3-.3.7-.6 1.2-.8z" id="path18"/>
        <path d="M148 213a6.4 6.4 0 0 0-2.5-1.7c-1-.5-2.1-.7-3.4-.7-1 0-1.8.2-2.6.5a5 5 0 0 0-1.5 1v-5.5c0-.5-.2-1-.6-1.3-.4-.4-1-.6-1.7-.6s-1.3.2-1.7.6c-.5.4-.7.8-.7 1.3v15.6c0 1 .2 2 .5 2.9.4.9 1 1.7 1.6 2.3.7.7 1.6 1.2 2.7 1.6a11.3 11.3 0 0 0 7.2-.2 7.4 7.4 0 0 0 4-4.5c.3-1 .5-2 .5-3.1v-2c0-1.3-.1-2.4-.5-3.4-.3-1-.7-2-1.4-2.7zm-6.3 12c-1 0-2-.2-2.7-.6-.6-.4-1-1.1-1-2v-4c0-1.2.4-2 1-2.5.6-.6 1.4-.8 2.4-.8 1.1 0 2 .3 2.6 1 .7.7 1 1.7 1 3.1v2.1a4 4 0 0 1-.9 2.8 3 3 0 0 1-2.4 1z" id="path20"/>
        <path d="M172.9 212.7a6.4 6.4 0 0 0-2.4-1.5c-1-.4-2.2-.6-3.5-.6-1.4 0-2.6.3-3.7.8a8 8 0 0 0-4.3 4.6c-.3 1-.5 2-.5 3v3.1c0 1 .1 1.8.4 2.7.3.9.7 1.6 1.3 2.3.5.7 1.3 1.3 2.1 1.7a9 9 0 0 0 5 .5l1.3-.5a4.2 4.2 0 0 0 1.4-1.3v.2c0 .5.2 1 .6 1.3.5.4 1 .6 1.7.6s1.3-.2 1.7-.6c.5-.4.7-.8.7-1.3v-9.8c0-1-.2-2-.4-2.9a6 6 0 0 0-1.4-2.3zm-7.4 2.7l1.5-.3c1 0 1.7.2 2.3.6.5.4.7 1.2.7 2.2v3.3a4 4 0 0 1-.3 1.7 3.5 3.5 0 0 1-3.4 2.1 3 3 0 0 1-2.1-.8c-.6-.6-.9-1.2-.9-2V219a3.9 3.9 0 0 1 2.2-3.5z" id="path22"/>
        <path d="M199.5 214.8a5.8 5.8 0 0 0-3.8-3.7c-1-.3-2.1-.5-3.4-.5a7.9 7.9 0 0 0-8 5.5c-.3 1-.5 2.2-.5 3.3v2c0 2.5.6 4.5 1.9 5.9 1.2 1.4 3 2.1 5.3 2.1a6 6 0 0 0 3-.6c.5-.3 1-.6 1.3-1v1c0 .8-.1 1.4-.3 1.8-.2.5-.4.9-.7 1.1-.3.3-.6.4-1 .5a11 11 0 0 1-3.3 0h-1.2c-.7 0-1.3 0-1.7.4a2 2 0 0 0-.6 1.5c0 .8.5 1.5 1.4 2 .3.2.8.3 1.6.4l2.4.1c1 0 2-.1 3-.4 1-.3 1.9-.8 2.6-1.5a7 7 0 0 0 1.8-2.4c.4-1 .6-2.2.6-3.5v-11.2c0-1-.1-2-.4-2.8zm-8.7.6c.4-.3 1-.4 1.5-.4 1 0 1.7.2 2.2.6.5.4.8 1 .8 1.8v4.4c0 1.1-.4 1.9-1 2.4-.7.5-1.5.8-2.4.8-2.2 0-3.3-1.1-3.3-3.4v-2.3c0-.6 0-1.2.3-1.7.1-.5.4-1 .7-1.3.3-.4.7-.7 1.2-1z" id="path24"/>
      </g>
    </g>
    <g id="g934" transform="matrix(37.19286 0 0 37.19286 87.8 -102)" stroke-width=".2">
      <rect id="rect914" rx=".3" height="8" width="8" ry=".3" fill="orange"/>
      <circle id="circle916" r="1" cy="6" cx="2" class="symbol" fill="#fff"/>
      <path id="path918" d="M1 4a3 3 0 0 1 3 3h1a4 4 0 0 0-4-4z" class="symbol" fill="#fff"/>
      <path id="path920" d="M1 2a5 5 0 0 1 5 5h1a6 6 0 0 0-6-6z" class="symbol" fill="#fff"/>
    </g>
    <g transform="matrix(5.61786 0 0 -3.5679 507.5 -5.5)" id="g208" stroke-width=".1">
      <path d="M0 0l15.2-13.2L0-26.3v6.3h-12v13.6H0z" id="path210" stroke="#214f8f"/>
    </g>
  </g>
  <style id="style912">
    .symbol{stroke:none;fill:#fff}
  </style>
</svg>
