<svg fill="none" height="500" width="1000" xmlns="http://www.w3.org/2000/svg">
  <g>
    <path style="fill:#fff;fill-opacity:1;stroke-width:.156865px;-inkscape-stroke:none;stop-color:#000" d="M1.87 5.97h23.57v18.61H1.87z" transform="matrix(6.3749 0 0 6.3749 416.18 289.86)"/>
    <path clip-rule="evenodd" d="M.99 0H25.3c.54 0 .99.44.99.97v24.05c0 .54-.45.98-1 .98H1a.98.98 0 0 1-.99-.98V.98C0 .44.44 0 .99 0Zm13.63 13.83V11.7H5.26v2.13H8.6v9.5h2.66v-9.5zm1.06 9.25c.43.21.93.37 1.52.48a10.2 10.2 0 0 0 3.65-.01 4.46 4.46 0 0 0 1.5-.6c.43-.26.77-.62 1.02-1.06.25-.44.37-.99.37-1.64a2.88 2.88 0 0 0-.83-2.18c-.27-.27-.6-.52-.97-.74-.37-.22-.8-.42-1.27-.62l-.93-.4c-.28-.14-.51-.28-.7-.41-.2-.14-.35-.29-.45-.44a.91.91 0 0 1-.16-.52c0-.18.05-.34.14-.49.1-.14.23-.26.4-.37.17-.1.38-.18.63-.24a5.32 5.32 0 0 1 3.63.73v-2.42c-.4-.16-.84-.27-1.32-.34a10.9 10.9 0 0 0-1.64-.11c-.62 0-1.22.07-1.78.2s-1.05.34-1.48.62c-.43.28-.76.64-1.01 1.07a3.1 3.1 0 0 0-.37 1.56 3 3 0 0 0 .68 1.98c.45.55 1.14 1.01 2.07 1.39l1.01.43c.31.14.58.29.81.44.23.15.41.31.54.5a1 1 0 0 1 .08 1.07c-.09.14-.21.26-.38.37-.17.1-.38.19-.63.25s-.54.09-.87.09a5.09 5.09 0 0 1-3.26-1.19z" fill="#fff" fill-rule="evenodd" style="fill:#3178c6;fill-opacity:1;stroke-width:.0246067" transform="matrix(6.3749 0 0 6.3749 416.18 289.86)"/>
  </g>
  <g>
    <path d="m83.38 33.29-.21-.33a.71.71 0 0 1-.1-.14l-14.59-22.2-18.85 14 13.85 21.26.17.27.08.11a11.8 11.8 0 0 0 19.69-13" fill="#95c748" style="stroke-width:.0507212" transform="matrix(4.44023 0 0 4.44023 303.6 22.4)"/>
    <path d="M26.83 39.47a11.8 11.8 0 1 0-11.8 11.8 11.8 11.8 0 0 0 11.8-11.8" fill="#35bfc0" style="stroke-width:.0507212" transform="matrix(4.44023 0 0 4.44023 303.6 22.4)"/>
    <path d="M70.3 16.8a11.81 11.81 0 1 0-21.66 6.48l-9-12.66a11.78 11.78 0 0 0-20.08 0L5.3 32.86a11.79 11.79 0 0 1 19.87.51l9.31 13.09a11.77 11.77 0 0 0 19 0l.1-.15a10.53 10.53 0 0 0 .67-1.06l14-21.83a11.77 11.77 0 0 0 2-6.62m-19.84 8.58.2.19-.2-.19m1 .88.23.17-.16-.17m2.58 1.47.31.11-.31-.11m1.28.43.42.1-.42-.1m1.37.29.42.06-.42-.06m9.57-2.77.31-.29-.31.29m-6.39 2.84.42-.07-.42.07m1.34-.24.45-.12-.45.12m1.34-.41a3.57 3.57 0 0 0 .38-.14 3.57 3.57 0 0 1-.38.14m2.66-1.39.25-.21-.29.22m2-1.77.25-.27-.25.27M5.01 33.33c.09-.15.17-.29.27-.43l-.28.43Z" fill="#3253a0" style="stroke-width:.0507212" transform="matrix(4.44023 0 0 4.44023 303.6 22.4)"/>
    <path d="M70.25 16.8a11.8 11.8 0 1 0-11.77 11.8 11.8 11.8 0 0 0 11.8-11.8" fill="#f38334" style="stroke-width:.0507212" transform="matrix(4.44023 0 0 4.44023 303.6 22.4)"/>
    <path d="M58.48 28.6a11.78 11.78 0 0 1-9.86-5.32l-9-12.66a11.77 11.77 0 0 0-20.07 0L5.25 32.86a11.79 11.79 0 0 1 19.87.51l9.36 13.09a11.77 11.77 0 0 0 19 0l.09-.15.68-1 14-21.84a11.78 11.78 0 0 1-9.77 5.13M4.95 33.33l.26-.43Z" fill="#3152a0" style="stroke-width:.0507212" transform="matrix(4.44023 0 0 4.44023 303.6 22.4)"/>
  </g>
</svg>
