<svg xmlns="http://www.w3.org/2000/svg" width="1024mm" height="512mm" viewBox="0 0 1024 512">
    <path fill="#ffff05" d="M 565.0947,456.59239 501.54563,404.16473 A 73.758341,75.588618 80.27125 0 0 432.96859,389.5931 l -80.65432,21.78652 a 19.137621,19.612512 80.27125 0 1 -23.19265,-25.62383 l 31.88495,-75.66811 a 73.758341,75.588618 80.27125 0 0 -6.47596,-68.34877 l -45.50255,-68.05526 a 19.137621,19.612512 80.27125 0 1 17.95351,-29.6715 l 83.25504,5.66219 a 73.758341,75.588618 80.27125 0 0 64.57468,-27.67023 l 52.5322,-63.846984 a 19.137621,19.612512 80.27125 0 1 34.28852,7.285818 l 19.56949,79.167546 a 73.758341,75.588618 80.27125 0 0 46.38531,51.24764 l 77.96924,28.59565 a 19.137621,19.612512 80.27125 0 1 3.23797,34.17438 l -71.16044,43.26604 a 73.758341,75.588618 80.27125 0 0 -35.90698,59.343 l -4.34457,81.52008 a 19.137621,19.612512 80.27125 0 1 -32.28733,13.83511 z"/>
</svg>
