<svg xmlns="http://www.w3.org/2000/svg" xmlns:xlink="http://www.w3.org/1999/xlink" width="1024" height="512">
  <defs>
    <linearGradient id="b">
      <stop offset="0" stop-color="#a9acb0"/>
      <stop offset=".4" stop-color="#d4d5d7"/>
      <stop offset=".7" stop-color="#fff"/>
      <stop offset="1" stop-color="#d6d6d6"/>
    </linearGradient>
    <linearGradient id="a">
      <stop offset="0" stop-color="#a9acb0"/>
      <stop offset=".5" stop-color="#fff"/>
      <stop offset="1" stop-color="#d6d6d6"/>
    </linearGradient>
    <linearGradient xlink:href="#b" id="c" gradientUnits="userSpaceOnUse" spreadMethod="reflect" x1="-252.7" y1="323.5" x2="-238.7" y2="329.8" gradientTransform="translate(-167.6 -7.8)"/>
  </defs>
  <path d="M421 .4c-2.5 0-5.3 1-8.5 3.5-7.7-3-15.2-4-22 2-10.3-1.3-13.7 1.5-16.2 4.8-2.3 0-17-2.4-23.8 7.7-17-2-22.4 10-16.3 21.2-3.5 5.4-7 10.7 1 21-2.8 5.6-1 11.8 5.7 19.3-1.7 8 1.8 13.7 8 18.1-1.1 11 10.1 17.4 13.5 19.7 1.3 6.4 4 12.4 16.8 15.7 2.1 9.5 9.9 11.2 17.3 13.2-24.7 14.4-45.9 33.3-45.7 79.6l-3.6 6.5c-28.4 17.2-53.9 72.6-14 117.6 2.6 14 7 24.2 10.8 35.4a86.1 86.1 0 0 0 53.8 68.7 181.5 181.5 0 0 0 51.5 29.2 85.4 85.4 0 0 0 63.2 28.4h1c21.6 0 43.2-7.8 63.1-28.4 21.2-7.4 36.8-18 51.5-29.2 10-2.5 47.9-23.6 53.7-68.7 3.9-11.2 8.3-21.3 10.9-35.4 39.8-45 14.4-100.4-14-117.6l-3.6-6.5c.1-46.3-21-65.2-45.8-79.6 7.5-2 15.2-3.7 17.4-13.2 12.8-3.3 15.5-9.4 16.8-15.8 3.3-2.3 14.6-8.6 13.4-19.6 6.3-4.4 9.8-10 8-18.1 6.8-7.5 8.6-13.7 5.7-19.4 8.1-10.2 4.5-15.5 1-21 6.1-11.1.8-23.1-16.2-21.1-6.8-10-21.6-7.8-23.8-7.7-2.6-3.3-6-6-16.3-4.7-6.7-6.1-14.2-5-22-2.1-9.1-7.2-15.3-1.4-22.2.8C580 1 577.4 6 572 8c-12.2-2.6-15.9 3-21.7 8.9l-6.7-.2c-18.3 10.8-27.5 32.8-30.7 44-3.2-11.2-12.3-33.2-30.6-44l-6.7.2c-5.9-6-9.6-11.5-21.7-9-5.5-2-8-7-19.1-3.3C430.2 3.2 426 .2 421 .4z" fill="#fff"/>
  <g opacity=".7">
    <path d="M421 .4c-2.5 0-5.3 1-8.5 3.5-7.7-3-15.2-4-22 2-10.3-1.3-13.7 1.5-16.2 4.7-2.3 0-17-2.3-23.8 7.8-17-2-22.4 10-16.3 21.2-3.5 5.4-7 10.7 1 21-2.8 5.6-1 11.8 5.7 19.3-1.7 8 1.8 13.7 8 18.1-1.1 11 10.1 17.4 13.5 19.6 1.3 6.4 4 12.5 16.8 15.8 2.1 9.5 9.8 11.2 17.3 13.2-24.7 14.3-45.9 33.2-45.7 79.6l-3.6 6.5c-28.4 17.2-53.9 72.6-14 117.6 2.6 14 7 24.2 10.8 35.4a86.1 86.1 0 0 0 53.8 68.7 181.4 181.4 0 0 0 51.4 29.2 85.4 85.4 0 0 0 63.3 28.4h1c21.6 0 43.2-7.8 63.1-28.4 21.2-7.4 36.8-18 51.5-29.2 10-2.5 48-23.6 53.7-68.7 4-11.2 8.3-21.3 10.9-35.4 39.8-45 14.4-100.4-14-117.6l-3.6-6.5c.1-46.4-21-65.3-45.7-79.6 7.4-2 15.1-3.7 17.3-13.2 12.8-3.3 15.5-9.4 16.8-15.8 3.3-2.2 14.6-8.6 13.4-19.6 6.3-4.4 9.8-10 8-18.1 6.8-7.5 8.6-13.7 5.7-19.4 8.1-10.2 4.5-15.5 1-21 6.1-11.1.8-23.1-16.2-21.1-6.8-10.1-21.5-7.8-23.8-7.8-2.6-3.2-6-6-16.3-4.6-6.7-6.1-14.2-5-22-2-9.2-7.3-15.2-1.5-22.2.7C580 1 577.4 6 572 8c-12.2-2.5-15.9 3-21.7 9l-6.7-.2c-18.4 10.8-27.5 32.8-30.7 44-3.2-11.2-12.3-33.2-30.6-44l-6.7.2c-5.9-6-9.6-11.5-21.7-9-5.5-2-8-7-19.1-3.3C430.2 3.2 426 .2 421 .4z"/>
    <path d="M384.6 47.8c48.6 25 76.8 45.3 92.3 62.6-8 31.8-49.2 33.2-64.4 32.3 3.1-1.4 5.7-3.2 6.6-5.8-3.8-2.7-17.2-.3-26.6-5.6 3.6-.7 5.3-1.4 7-4.1-8.9-2.8-18.4-5.3-24-10 3 0 5.8.7 9.8-2-8-4.3-16.4-7.7-23-14.2 4-.1 8.5 0 9.8-1.6a88.6 88.6 0 0 1-18.5-15c5.8.7 8.2.1 9.6-.9-5.5-5.6-12.5-10.4-15.8-17.3 4.3 1.5 8.2 2 11-.1-1.9-4.2-9.9-6.7-14.5-16.6 4.5.5 9.3 1 10.2 0-2-8.5-5.6-13.2-9.1-18.2 9.6-.1 24.1 0 23.5-.8l-6-6a47 47 0 0 1 26 2.5c3.1-2.4 0-5.6-3.9-8.7 8 1 15.2 2.9 21.7 5.4 3.5-3.2-2.2-6.3-5-9.4a55.6 55.6 0 0 1 22.7 8.9c3.8-3.6.3-6.7-2.3-9.9 9.3 3.5 14.1 8 19.1 12.3 1.8-2.3 4.4-4 1.2-9.5a48.5 48.5 0 0 1 15.3 13.3c4-2.6 2.4-6.2 2.4-9.5 6.9 5.6 11.2 11.6 16.6 17.4 1-.8 2-3.5 2.8-7.7 16.4 16 39.5 55.9 6 71.8a315.4 315.4 0 0 0-100.5-53.5zM642.3 47.8c-48.5 25-76.8 45.3-92.2 62.6 7.9 31.8 49.2 33.2 64.3 32.3-3-1.4-5.6-3.2-6.6-5.8 3.8-2.7 17.3-.3 26.7-5.6-3.6-.7-5.3-1.4-7-4.1 8.9-2.8 18.4-5.3 24-10-3 0-5.8.7-9.8-2 8-4.3 16.4-7.7 23-14.2-4.1-.1-8.5 0-9.8-1.6a88.6 88.6 0 0 0 18.5-15c-5.8.7-8.2.1-9.6-.9 5.5-5.6 12.5-10.4 15.8-17.3-4.3 1.5-8.2 2-11-.1 1.9-4.2 9.9-6.7 14.5-16.6-4.5.5-9.3 1-10.3 0 2.1-8.5 5.7-13.2 9.2-18.2-9.6-.1-24.2 0-23.5-.8l6-6a47 47 0 0 0-26 2.5c-3.2-2.4 0-5.6 3.8-8.7-8 1-15.1 2.9-21.7 5.4-3.4-3.2 2.3-6.3 5-9.5a55.6 55.6 0 0 0-22.7 9c-3.7-3.6-.2-6.7 2.4-9.9-9.3 3.5-14.1 8-19.2 12.3-1.7-2.3-4.3-4-1.1-9.5a48.5 48.5 0 0 0-15.3 13.3c-4-2.6-2.4-6.2-2.4-9.5-6.9 5.6-11.3 11.6-16.6 17.4-1-.8-2-3.5-2.8-7.7-16.4 15.9-39.5 55.9-6 71.8a315 315 0 0 1 100.4-53.6z" fill="#75a928"/>
    <path d="M572.3 371.2a58.2 53.6 0 1 1-116.4 0 58.2 53.6 0 1 1 116.4 0zM480.5 218a61.6 52.2-56 1 1-68 102.6 61.6 52.2-56 1 1 68-102.7z" fill="#bc1142"/>
    <path d="M545.5 215a52.2 61.6-34 1 0 68 102.8 52.2 61.6-34 1 0-68-102.7zM360 243.7c26-7 8.8 107.7-12.4 98.3-23.3-18.7-30.8-73.6 12.4-98.3z" fill="#bc1142"/>
    <path d="M660.8 242.3c-26-7-8.8 107.7 12.3 98.3 23.3-18.8 30.8-73.6-12.3-98.3zM572.3 157c45-7.7 82.3 19 80.8 67.7-1.5 18.7-97.3-65-80.8-67.8zM448.2 155.5c-44.9-7.6-82.3 19.1-80.8 67.8 1.5 18.7 97.4-65 80.8-67.8zM512.7 144.1c-26.8-.7-52.5 20-52.6 31.9 0 14.5 21.2 29.4 52.8 29.7 32.3.3 52.9-11.9 53-26.8 0-17-29.4-35-53.2-34.8zM514.4 441.8c23.4-1 54.7 7.5 54.8 18.8.4 11-28.5 36-56.4 35.4-28.9 1.3-57.2-23.6-56.8-32.3-.5-12.6 35.2-22.5 58.4-22zM428 374.6c16.7 20 24.3 55.2 10.4 65.6-13.1 8-45 4.7-67.7-27.9-15.3-27.3-13.4-55.2-2.6-63.3 16-9.8 40.9 3.4 60 25.6zM597.4 368.2c-18 21-28 59.6-15 72 12.6 9.6 46.4 8.2 71.3-26.3 18-23.2 12-62 1.7-72.3-15.4-11.9-37.4 3.3-58 26.6z" fill="#bc1142"/>
  </g>
  <g stroke="#000" transform="matrix(.81449 0 0 .81449 775.5 -309)">
    <ellipse transform="matrix(1.0936 0 0 1.27912 -8.7 130.3)" cx="-98.6" cy="325.4" rx="82.3" ry="70.4" fill="#fffd63" stroke-width="10.4"/>
    <g fill="none">
      <circle transform="matrix(4 0 0 4 -52.7 486)" cx="-16" cy="15" r="7" stroke-width="1.5"/>
      <path d="M-116.7 506v-10M-116.7 596v-10M-76.7 546h10M-156.7 546h-10M-88.5 517.7l7.1-7M-145 574.3l-7 7M-145 517.7l-7.1-7M-88.5 574.3l7.1 7" stroke-width="6.1" stroke-linecap="round"/>
    </g>
  </g>
  <g transform="translate(696.1 -125.1) scale(.81081)">
    <ellipse transform="matrix(1.0936 0 0 1.27912 -117.7 -155.2)" cx="-98.6" cy="325.4" rx="82.3" ry="70.4" fill="#63ffff" stroke="#000" stroke-width="10.4"/>
    <g fill="none" stroke="#000" stroke-linecap="round" stroke-linejoin="round">
      <path d="M-216.4 231.8c-14.6 0-27 9.2-31.6 22.2a23.6 23.6 0 0 0-33.9 21.2c0 13 10.6 23.6 23.7 23.6h77.6a25.6 25.6 0 1 0-6.7-50.3 33.5 33.5 0 0 0-29.1-16.7zM-281 255.7a24.6 24.6 0 0 1 20-28.4c10.2-1.8 16.9 3.4 18.6 4.5m-43-.5l-7.2-5m56-3.4l5-7.2m-59.8 41.7l-8.6 1.5m37.2-41.9l-1.5-8.6" stroke-width="5"/>
    </g>
  </g>
  <g fill="#b1b1b1">
    <g stroke="#000" transform="matrix(1.3944 0 0 1.3944 -266.5 -139.5)">
      <ellipse transform="matrix(.63868 0 0 .74702 500.4 -45.6)" cx="-98.6" cy="325.4" rx="82.3" ry="70.4" stroke-width="10.4"/>
      <path d="M441.3 163.2c-8.1 0-15 5.2-17.7 12.4a13.2 13.2 0 0 0-18.9 11.8c0 7.3 6 13.2 13.2 13.2H461.3a14.3 14.3 0 1 0-3.7-28 18.8 18.8 0 0 0-16.3-9.4z" stroke-width="3.6" stroke-linecap="round" stroke-linejoin="round"/>
      <path d="M419.4 206.7L407.2 219M426.8 206.7l-19.6 19.6M434.1 206.7L421.9 219M441.4 206.7L422 226.3M448.8 206.7L436.5 219M456.1 206.7l-19.6 19.6M463.5 206.7L451.2 219" stroke-width="3" stroke-linecap="round" stroke-linejoin="round"/>
    </g>
  </g>
  <g>
    <g transform="rotate(33.5 383.3 818.4)">
      <path d="M244.3 407.1s16 36.6 17.7 41.4c4.8 13 15.7 10.4 14-.5-1.6-10.8-5.4-53.3-5.4-53.3l-6-16.7-60-199-4.6-7-1.1 7 43 204.1z" fill="red" stroke="#000" stroke-width="5"/>
      <ellipse transform="matrix(1.23035 -.89766 .87052 1.19315 284.3 -218.1)" cx="-252.2" cy="324" rx="15.1" ry="15.9" fill="url(#c)" stroke="#000" stroke-width="3.3"/>
      <circle transform="matrix(.91777 -.6696 .6696 .91777 259 -66.2)" cx="-241.7" cy="326.2" r="13.7" fill="#919292"/>
    </g>
  </g>
</svg>
