<svg xmlns="http://www.w3.org/2000/svg" width="1000" height="500" viewBox="0 0 264.6 132.3">
    <path fill="#fff" d="M0 0h264.6v132.3H0z"/>
    <path d="M3829 1376.3c0-11.6 3.4-17 10.4-16.3l26.8 2.6 3.5.1c4.2 0 7.4-1 9.6-3 2.2-2 3.7-5 4.5-9.2.8 4.2 2.2 7.3 4.3 9.3 2.1 2 5.2 3 9.4 3l3.5-.2 26.3-2.6c3.8-.4 6.4 1 8 3.9 1.5 3 2.3 7 2.3 12.4h9c0-7.8-1.4-14.2-4-19.2-2.7-5-7.2-7.4-13.6-7.4l-2.5.1-24.4 2.8-2.6.1c-3.9 0-6.7-1.4-8.5-4.3-1.8-2.9-2.7-8-2.7-15.6h-9c0 7.6-.9 12.7-2.6 15.6-1.8 2.9-4.6 4.3-8.4 4.3l-2.4-.1-24.9-2.7-2.7-.2c-6.6 0-11.3 2.5-14.1 7.4-2.8 5-4.2 11.4-4.2 19.2h9" transform="matrix(0 .03623 .03623 0 -45.7 -122.7)"/>
    <path d="M3989.7 1492.8v19.5l36-2.5v-14.6zm0 24.8v19.6l36-2.4V1520zm-1.3 106.5h97.5V1606l-7.5-1a22.7 22.7 0 0 0 9.8-19 21 21 0 0 0-10-19 50.3 50.3 0 0 0-27.4-6.5c-7.2 0-13.6 1.1-19.2 3.4a30 30 0 0 0-13.1 9.6c-3.2 4.2-4.8 9-4.8 14.6 0 6.2 2.2 11.4 6.6 15.6h-34.1zm45.8-39.4c3.6-2 9.2-3.1 16.7-3.1 8.1 0 13.8 1 17 2.8 3.4 1.9 5 4.5 5 7.8 0 4.4-2.6 8.1-8 11.4h-30c-2-1.5-3.5-3-4.5-4.6-1-1.6-1.5-3.5-1.5-5.6v-5.6zm37.1 118c1.2.6 2.2 1.8 2.8 3.5l13.8-4.3c-.5-4.2-1.4-7.7-2.9-10.4-1.4-2.8-3.6-5-6.4-6.5 3-2.6 5.4-6 7-9.9 1.7-4 2.5-8.2 2.5-12.8 0-7-2-12.7-6-17-4.1-4.2-9.4-6.4-15.9-6.4-7.5 0-13.3 3-17.5 8.9a42.7 42.7 0 0 0-6.2 24.8v9.2h-2.5c-7.4 0-11-4.5-11-13.6a69.8 69.8 0 0 1 3.9-19l-14-4.7a82.5 82.5 0 0 0-5.2 27c0 20 8.2 30.1 24.7 30.1h31.1zm-.3-26.2c-1.3 2.3-3 4.1-5.3 5.3h-11.2v-5c0-11.1 3.4-16.7 10.2-16.7 2.6 0 4.6.8 6 2.4a10 10 0 0 1 2.2 6.9v3.5zm17.1 85.7c0-8.8-2.2-15.5-6.7-20a25.6 25.6 0 0 0-18.9-6.6h-31.2V1721h-15.2v14.5h-15l-2.6 20.5h17.6v22.3l15.2-2.1V1756h32c3.4 0 5.9.8 7.4 2.4 1.5 1.5 2.2 4 2.2 7.5 0 4.3-1 8.4-3.2 12.1l12.7 6.7 5.7-9.7zm-15.2 74.1c0 6-1.9 11.8-5.7 17.7l11.4 8.2c3-3.4 5.3-7.4 7-12a45.3 45.3 0 0 0-2.2-35.2 30.3 30.3 0 0 0-13.2-12.1 44.1 44.1 0 0 0-19.5-4.1 45 45 0 0 0-19.2 4 31.8 31.8 0 0 0-13.6 11.5c-3.3 5.1-5 11.1-5 18.1a33 33 0 0 0 4.4 17.2c2.9 4.9 7 8.6 12.5 11.3 5.5 2.6 12 4 19.5 4 3 0 5.5-.2 7.6-.5v-44.7l16 2zm-40.7-12.8c2.8-2.3 7-3.6 12.7-4v25.3c-11.2-.2-16.8-4.3-16.8-12.4v-5.6zm-42.5 65.3v19.5l36-2.5v-14.6zm0 24.8v19.6l36-2.4V1916l-36-2.5" fill="green" transform="matrix(0 .03623 .03623 0 -45.7 -122.7)"/>
    <path d="M4021.7 1982.7c-2.1 2-3.2 4.4-3.2 7.4s1 5.5 3.1 7.5 4.7 3 7.6 3c3 0 5.6-1 7.7-3 2.1-2 3.2-4.5 3.2-7.5s-1-5.4-3.2-7.4c-2.1-2-4.7-3-7.7-3h-4.4zm46.8 0a9.8 9.8 0 0 0-3.2 7.4c0 3 1 5.5 3.1 7.5s4.7 3 7.7 3c3.1 0 5.7-1 7.7-3s3.1-4.5 3.1-7.5-1-5.4-3-7.4c-2.1-2-4.7-3-7.8-3h-4.4" transform="matrix(0 .03623 .03623 0 -45.7 -122.7)"/>
    <path d="M3989.7 2126.4v19.5l36-2.5v-14.6zm0 24.8v19.6l36-2.4v-14.7zm6 90.4a25.2 25.2 0 0 0 22.9 14.2c5 0 9.9-1.2 14.6-3.4 4.7-2.3 10-6 15.7-11.1a303 303 0 0 0 21.6-22v38.5l15.2-2.2v-59.8h-14a621 621 0 0 1-25 24c-6 5.2-11.1 9-15.3 11.4a24 24 0 0 1-11.8 3.6c-3.9 0-6.9-1-9-3.1-2.2-2-3.3-5-3.3-9 0-3.3.8-6.3 2.4-8.8 1.6-2.5 4.2-5 7.8-7.4L4007 2194a37.2 37.2 0 0 0-11 12.8c-2.6 5-3.9 11-3.9 17.9v9.8zm9 89.7a64 64 0 0 0 35.3 8.2c15.3 0 27.1-2.7 35.5-8.2a27.2 27.2 0 0 0 12.6-24.3c0-10.7-4.2-18.7-12.6-24.2a64.5 64.5 0 0 0-35.5-8.3c-15.2 0-27 2.7-35.4 8.3a27.2 27.2 0 0 0-12.5 24.2v16zm10.2-33.8c5-2 13.4-3.1 25-3.1 12 0 20.5 1 25.5 3s7.5 5.3 7.5 9.6c0 4.4-2.5 7.6-7.5 9.6s-13.5 2.9-25.5 2.9c-11.8 0-20.2-1-25.2-3-5-2.1-7.4-5.3-7.4-9.5v-6.5zm20.5 15.5a8 8 0 0 0 5.8 2.4 8.3 8.3 0 0 0 8.5-8.6 8.2 8.2 0 0 0-8.5-8.5 8 8 0 0 0-5.8 2.5 8.2 8.2 0 0 0-2.5 6v3.7zm35.1 105.8h15.2v-58.5h-15.2v21.7h-54.8l11.8-18.6-14.3-8.7-18.7 29.2v18.2h76zm12 22.4l-71.2 33.6v-39.6h-15.2v60.3h13.6l79-34.8zm-45.6 75.2v56.4h15.2v-56.4zm33.6 140h15.2V2598h-15.2v21.7h-54.8l11.8-18.6-14.3-8.7-18.7 29.2v18.2h76zm-65.9 70.9a64 64 0 0 0 35.4 8.2c15.3 0 27.1-2.7 35.5-8.2a27.2 27.2 0 0 0 12.6-24.3c0-10.7-4.2-18.7-12.6-24.2a64.5 64.5 0 0 0-35.5-8.3c-15.2 0-27 2.7-35.4 8.3a27.2 27.2 0 0 0-12.5 24.2v16zm10.3-33.8c5-2 13.4-3.1 25-3.1 12 0 20.5 1 25.5 3s7.5 5.3 7.5 9.6c0 4.4-2.5 7.6-7.5 9.6s-13.5 2.9-25.5 2.9c-11.8 0-20.2-1-25.2-3-5-2.1-7.4-5.3-7.4-9.5v-6.5zm20.5 15.5a8 8 0 0 0 5.8 2.4 8.3 8.3 0 0 0 8.5-8.6 8.2 8.2 0 0 0-8.5-8.5 8 8 0 0 0-5.8 2.5 8.2 8.2 0 0 0-2.5 6v3.7zm1.5 45v56.4h15.2V2754zm33.6 140h15.2v-58.5h-15.2v21.7h-54.8l11.8-18.6-14.3-8.7-18.7 29.2v18.2h76zm-74.8 60.4a25.2 25.2 0 0 0 22.9 14.2c5 0 9.9-1.2 14.6-3.4 4.7-2.3 10-6 15.7-11.1a303 303 0 0 0 21.6-22v38.5l15.2-2.2v-59.8h-14a621 621 0 0 1-25 24c-6 5.2-11.1 9-15.3 11.5a24.1 24.1 0 0 1-11.8 3.5c-3.9 0-6.9-1-9-3.1-2.2-2-3.3-5-3.3-9 0-3.3.8-6.3 2.4-8.8 1.6-2.5 4.2-5 7.8-7.4l-10.5-12.5a37.2 37.2 0 0 0-11 12.8c-2.6 5-3.9 11-3.9 17.9v9.8zm-6 43.2v19.5l36-2.5V3000zm0 24.8v19.6l36-2.4v-14.7l-36-2.5" fill="green" transform="matrix(0 .03623 .03623 0 -45.7 -122.7)"/>
    <path d="M4067.2 3106.5c2.1 2 4.6 3 7.5 3 3.3 0 6.8-.8 10.5-2.4l24.5-10.6v-9.8l-25.9 6c-1-1.2-2.3-2.2-3.9-3a11.3 11.3 0 0 0-12.6 1.9 9.8 9.8 0 0 0-3.2 7.4v4.4" transform="matrix(0 .03623 .03623 0 -45.7 -122.7)"/>
    <path d="M4145.7 1492.8v19.5l36-2.5v-14.6zm0 24.8v19.6l36-2.4V1520zm-1.3 106.5h97.6V1606l-7.6-1a22.7 22.7 0 0 0 9.8-19 21 21 0 0 0-10-19 50.3 50.3 0 0 0-27.4-6.5c-7.2 0-13.6 1.1-19.2 3.4a30 30 0 0 0-13.2 9.6c-3.1 4.2-4.7 9-4.7 14.6 0 6.2 2.2 11.4 6.6 15.6h-34.1zm45.9-39.4c3.5-2 9-3.1 16.6-3.1 8.1 0 13.8 1 17 2.8 3.4 1.9 5 4.5 5 7.8 0 4.4-2.6 8.1-8 11.4h-30c-2-1.5-3.5-3-4.5-4.6-1-1.6-1.5-3.5-1.5-5.6v-5.6zm38.6 93.2c0 6-1.9 11.8-5.7 17.7l11.4 8.2c3-3.4 5.3-7.4 7-12a45.3 45.3 0 0 0-2.2-35.2 30.3 30.3 0 0 0-13.1-12.1 44.1 44.1 0 0 0-19.6-4.1 45 45 0 0 0-19.2 4 31.8 31.8 0 0 0-13.6 11.5c-3.3 5.1-5 11.1-5 18.1a33 33 0 0 0 4.4 17.2c2.9 4.9 7 8.6 12.5 11.3 5.4 2.6 12 4 19.5 4 3 0 5.5-.2 7.6-.5v-44.7l16 2zm-40.6-12.8c2.7-2.3 7-3.6 12.6-4v25.3c-11.2-.2-16.8-4.3-16.8-12.4v-5.6zm39 93.7c-1 2-2.7 3-4.9 3-1.6 0-2.8-.4-3.8-1.2-1-.8-1.9-2.4-2.8-4.6-1-2.3-2-5.8-3.3-10.6-1.9-6.9-4.4-12.2-7.7-15.8a17.3 17.3 0 0 0-13.5-5.5c-6.4 0-11.6 2.7-15.6 7.9s-6 12.6-6 22c0 11 3 20.3 8.8 28l12.3-8.2c-4-6.3-5.9-12.7-5.9-19.1 0-3.4.4-5.9 1.3-7.5a4.3 4.3 0 0 1 4-2.4c1.3 0 2.3.4 3.2 1.2.8.9 1.6 2.4 2.5 4.7.9 2.3 2 5.8 3.3 10.3 1.4 5 2.9 9 4.5 12.2 1.7 3.2 3.9 5.6 6.7 7.4 2.8 1.7 6.4 2.6 10.7 2.6 5 0 9-1.5 12.6-4.5 3.5-3 6-6.9 7.8-11.8a49 49 0 0 0 2.6-16.4c0-6.4-.9-12.2-2.8-17.4a38.4 38.4 0 0 0-7.7-13.3l-11.9 10.3c4.8 6.3 7.2 13 7.2 20.3v5.3zm0 87.3c-1 2.4-2.5 5-4.5 7.8l13 9.1a40.5 40.5 0 0 0 8.3-25.6c0-7.4-1.5-13.7-4.6-19a31 31 0 0 0-12.9-12.3c-5.5-3-11.9-4.3-19.2-4.3-7.2 0-13.7 1.4-19.4 4.4-5.7 3-10.2 7.1-13.4 12.5a42.4 42.4 0 0 0-2.8 32.8c1.4 4.1 3.5 8 6.4 11.5l12.4-8.9c-3.8-5-5.7-10.1-5.7-15.4 0-10.3 7.6-15.5 22.8-15.5 7.6 0 13 1.4 16.3 4 3.3 2.7 5 6.5 5 11.3v4zm-56 99.1l29.6-3.8v-13h-11.7c.6-3.8 2.5-7.2 5.8-10.1 3.4-3 7.6-5.3 12.6-7h19v13.8h15.1v-43.4h-15.2v9.2h-40v-9.2h-15.2v24.9l17.2 3.6c-6.3 2.5-11 5.7-14.1 9.5a21.5 21.5 0 0 0-4.7 14v6.3zm-31.7 53.6c2.2 2.2 5.1 3.4 8.5 3.4 3.5 0 6.4-1.2 8.7-3.4 2.2-2.3 3.3-5.2 3.3-8.7a11.7 11.7 0 0 0-12-12.2 11.7 11.7 0 0 0-12 12.2v5.3zm87 3.6v17.7h15.1v-57.7h-15.2v19.5h-40V1963h-15.2v39.4zm-47.2 94.4c6.4 4.1 15.5 6.2 27.4 6.2 7.2 0 13.6-1.1 19.3-3.2 5.6-2.2 10-5.2 13.2-9.2a22 22 0 0 0 4.8-14.2 21 21 0 0 0-7.1-16.4h31.8l2.3-20.5h-99v18.2l7.7.9c-3.4 2.7-6 5.7-7.6 9a22.5 22.5 0 0 0-2.5 10.1v13zm14-36.8h29.4c2 1.5 3.6 3 4.6 4.7 1 1.6 1.5 3.4 1.5 5.5 0 3.8-1.7 6.7-5.2 8.6-3.5 2-9 3-16.7 3-8.3 0-14-1-17.3-2.7a8.4 8.4 0 0 1-4.8-7.8v-6.4zm50.7 98.2c0-8.8-2.2-15.5-6.7-20a25.6 25.6 0 0 0-18.9-6.6h-31.2V2117h-15.2v14.5h-15l-2.6 20.5h17.6v22.3l15.2-2.1V2152h32c3.4 0 5.9.8 7.4 2.4 1.5 1.5 2.2 4 2.2 7.5 0 4.3-1 8.4-3.1 12.1l12.6 6.8 5.7-9.8zm-104.5 78.2c2.2 2.2 5.1 3.4 8.5 3.4 3.5 0 6.4-1.2 8.7-3.4 2.2-2.3 3.3-5.2 3.3-8.7a11.7 11.7 0 0 0-12-12.2 11.7 11.7 0 0 0-12 12.2v5.3zm87 3.6v17.7h15.1V2200h-15.2v19.5h-40v-18.9h-15.2v39.4zm-46.8 91.7c6.7 5.9 15.7 8.9 27 8.9 11.7 0 20.9-3 27.5-8.9a31.5 31.5 0 0 0 9.8-24.7c0-10.6-3.2-18.8-9.8-24.7a39.5 39.5 0 0 0-27.4-8.8 45 45 0 0 0-19.5 4 30 30 0 0 0-13 11.5c-3.1 5-4.7 11-4.7 18v15.8zm10.3-34c3.5-2 9.1-3 16.7-3 7.8 0 13.4 1 16.9 3a10 10 0 0 1 5.2 9.3 10 10 0 0 1-5.2 9.4c-3.6 2-9.2 3-17 3a35 35 0 0 1-16.6-3 10 10 0 0 1-5.2-9.4v-6.4zm-18 58.6v18l8 1.4c-3.5 3-6.1 6.4-7.8 9.8a25.8 25.8 0 0 0-2.6 11.6 18 18 0 0 0 5.5 14 22 22 0 0 0 15.4 5h51.1v-20.5h-45.2a20 20 0 0 1-9.1-1.5c-1.7-1-2.5-2.7-2.5-5.2 0-2 .7-4 2-6 1.5-2 3.5-4 6.2-6h48.6v-20.6zm-26.4 86.9v19.5l36-2.5v-14.6zm0 24.8v19.6l36-2.4v-14.7l-36-2.5" fill="green" transform="matrix(0 .03623 .03623 0 -45.7 -122.7)"/>
    <path d="M4177.6 2537c-2 2-3 4.5-3 7.5s1 5.5 3 7.5c2.1 2 4.6 3 7.6 3s5.6-1 7.7-3c2.2-2 3.2-4.5 3.2-7.5s-1-5.4-3.2-7.4c-2.1-2-4.7-3-7.7-3h-4.4zm47 0a9.8 9.8 0 0 0-3.3 7.5c0 3 1 5.5 3.1 7.5s4.7 3 7.7 3c3.1 0 5.7-1 7.7-3s3.1-4.5 3.1-7.5-1-5.4-3-7.4c-2.1-2-4.7-3-7.8-3h-4.4" transform="matrix(0 .03623 .03623 0 -45.7 -122.7)"/>
    <path d="M4172.1 2673.1v18l8 1.4c-3.5 3-6.1 6.4-7.8 9.8a25.8 25.8 0 0 0-2.6 11.6 18 18 0 0 0 5.5 14 22 22 0 0 0 15.4 5h51.1v-20.5h-45.2a20 20 0 0 1-9.1-1.5c-1.7-1-2.5-2.7-2.5-5.2 0-2 .7-4 2-6 1.5-2 3.5-4 6.2-6h48.6V2673zm47.9 99.7c3.2 0 5.5.6 6.9 1.8 1.4 1.2 2 3 2 5.3 0 2-.6 4.2-2 6.3-1.3 2.2-3.2 4-5.5 5.4H4172v20.5h69.6v-18l-7.8-.8c3.3-2.3 5.8-5.3 7.6-9.1 1.7-3.8 2.6-7.9 2.6-12.1 0-6.5-1.9-11.4-5.7-14.8-3.8-3.3-9.1-5-16-5h-50.3v20.5zm1 94.7c5.3 0 8 3 8 8.9a25 25 0 0 1-2.2 9.8l13.2 4.9a44.1 44.1 0 0 0 4.1-20c0-8-2.4-14-7-18-4.8-4.1-11.5-6.1-20-6.1h-59.4v-20.3h-15.2v40.8zm0 79.2c5.3 0 8 3 8 8.9a25 25 0 0 1-2.2 9.8l13.2 4.9a44.1 44.1 0 0 0 4.1-20c0-8-2.4-14-7-18-4.8-4.1-11.5-6.1-20-6.1h-59.4v-20.3h-15.2v40.8h78.4" fill="navy" transform="matrix(0 .03623 .03623 0 -45.7 -122.7)"/>
    <path d="M4223.2 3027.3c2.1 2 4.6 3 7.5 3 3.3 0 6.8-.8 10.5-2.4l24.5-10.6v-9.8l-25.9 6c-1-1.2-2.3-2.2-3.9-3a11.3 11.3 0 0 0-12.6 1.9 9.8 9.8 0 0 0-3.2 7.4v4.4" transform="matrix(0 .03623 .03623 0 -45.7 -122.7)"/>
    <path d="M4301.7 1492.8v19.5l36-2.5v-14.6zm0 24.8v19.6l36-2.4V1520zm26.4 46.7v18l8 1.4c-3.5 3-6.1 6.4-7.8 9.8a25.8 25.8 0 0 0-2.6 11.6 18 18 0 0 0 5.5 14 22 22 0 0 0 15.4 5h51.1v-20.5h-45.2a20 20 0 0 1-9.1-1.5c-1.7-1-2.5-2.7-2.5-5.2 0-2 .7-4 2-6 1.5-2 3.5-4 6.2-6h48.6v-20.6zm55.2 138.3c1.2.7 2.2 2 2.8 3.6l13.8-4.3c-.5-4.2-1.4-7.7-2.9-10.4-1.4-2.8-3.6-5-6.4-6.5 3-2.6 5.4-6 7-9.9 1.7-4 2.5-8.2 2.5-12.8 0-7-2-12.7-6-17-4.1-4.2-9.4-6.4-15.9-6.4-7.5 0-13.3 3-17.5 8.9a42.7 42.7 0 0 0-6.2 24.8v9.2h-2.5c-7.4 0-11-4.5-11-13.6a69.8 69.8 0 0 1 3.9-19l-14-4.7a82.5 82.5 0 0 0-5.2 27c0 20 8.2 30.1 24.7 30.1h31.1zm-.3-26.1c-1.3 2.3-3 4.1-5.3 5.3h-11.2v-5c0-11.1 3.4-16.7 10.2-16.7 2.6 0 4.6.8 6 2.4a10 10 0 0 1 2.2 6.9v3.5zm-52.4 108.2c3.3 2.3 8.5 3.4 15.6 3.4h51.5v-17.5h-50c-2.6 0-4.3-.3-5.3-.8s-1.5-1.4-1.5-2.7c0-2.4 1.6-4.8 4.7-7h52.1v-14.7h-50c-2.6 0-4.3-.2-5.3-.7-1-.5-1.5-1.3-1.5-2.6 0-2.5 1.6-4.8 4.7-7.2h52.1v-17.8h-69.6v15l6.3 1.4c-3 2.3-5.2 4.5-6.6 6.7-1.4 2.2-2 4.8-2 7.7 0 2.7.6 5 1.9 6.8 1.3 1.8 3.3 3.1 6 3.9-5.3 4.7-8 9.7-8 15.2v7.4zm54.3 51.6c0 6-1.9 11.8-5.7 17.7l11.4 8.2c3-3.4 5.3-7.4 7-12a45.3 45.3 0 0 0-2.2-35.2 30.3 30.3 0 0 0-13.1-12.1 44.1 44.1 0 0 0-19.6-4.1 45 45 0 0 0-19.2 4 31.8 31.8 0 0 0-13.6 11.5c-3.3 5.1-5 11.1-5 18.1a33 33 0 0 0 4.4 17.2c2.9 4.9 7 8.6 12.5 11.3 5.4 2.6 12 4 19.5 4 3 0 5.5-.2 7.6-.5v-44.7l16 2zm-40.6-12.8c2.7-2.3 7-3.6 12.6-4v25.3c-11.2-.2-16.8-4.3-16.8-12.4v-5.6zm-42.6 65.3v19.5l36-2.5v-14.6zm0 24.8v19.6l36-2.4V1916l-36-2.5" fill="green" transform="matrix(0 .03623 .03623 0 -45.7 -122.7)"/>
    <path d="M4333.6 1982.7c-2 2-3 4.4-3 7.4s1 5.5 3 7.5c2.1 2 4.6 3 7.6 3s5.6-1 7.7-3c2.2-2 3.2-4.5 3.2-7.5s-1-5.4-3.2-7.4c-2.1-2-4.7-3-7.7-3h-4.4zm47 0a9.8 9.8 0 0 0-3.3 7.4c0 3 1 5.5 3.1 7.5s4.7 3 7.7 3c3.1 0 5.7-1 7.7-3s3.1-4.5 3.1-7.5-1-5.4-3-7.4c-2.1-2-4.7-3-7.8-3h-4.4" transform="matrix(0 .03623 .03623 0 -45.7 -122.7)"/>
    <path d="M4301.7 2126.4v19.5l36-2.5v-14.6zm0 24.8v19.6l36-2.4v-14.7zm96 45.3h-91.2v21.3h91.2zm-91.2 46.5v22.4l41.2-25.5 50 28v-24.6l-48.5-24.9zm21.6 34.1v18l8 1.4c-3.5 3-6.1 6.4-7.8 9.8a25.8 25.8 0 0 0-2.6 11.6 18 18 0 0 0 5.5 14 22 22 0 0 0 15.4 5h51.1v-20.5h-45.2a20 20 0 0 1-9.1-1.5c-1.7-1-2.5-2.7-2.5-5.2 0-2 .7-4 2-6 1.5-2 3.5-4 6.2-6h48.6V2277zm7.7 133.8c6.7 5.9 15.7 8.9 27 8.9 11.7 0 20.9-3 27.5-8.9a31.5 31.5 0 0 0 9.8-24.7c0-10.6-3.2-18.8-9.8-24.7a39.4 39.4 0 0 0-27.4-8.8 45 45 0 0 0-19.5 4 30 30 0 0 0-13 11.5c-3.1 5-4.7 11-4.7 18v15.8zm10.3-34c3.5-2 9.1-3 16.7-3 7.8 0 13.4 1 16.9 3a10 10 0 0 1 5.2 9.3 10 10 0 0 1-5.2 9.4c-3.6 2-9.2 3-17 3a35 35 0 0 1-16.6-3 10 10 0 0 1-5.2-9.4v-6.4zm-17.9 87c-1.6 3-2.5 6.3-2.5 9.8 0 8.6 3.3 15 9.8 19.2a50 50 0 0 0 27.3 6.3c7.3 0 13.7-1 19.3-3.2 5.6-2.2 10-5.4 13.2-9.5a23.8 23.8 0 0 0 2.6-24.6c-1.5-3-3.5-5.4-6.2-7.4l6.3-.8v-18.2h-97.6l-2.2 20.5h36.9l-4.4 3.3zm34.7 14.1c-8.1 0-13.9-1-17.1-2.7a8.7 8.7 0 0 1-4.9-8c0-4.3 2.8-8 8.4-11.3h29.4c4.2 2.7 6.2 6.1 6.2 10.2v11.8zm14 72.7c5.4 0 8 3 8 8.9a25 25 0 0 1-2.1 9.8l13.2 4.9a44.2 44.2 0 0 0 4.1-20c0-8-2.3-14-7-18-4.8-4.1-11.5-6.1-20-6.1h-59.4v-20.3h-15.2v40.8zm6.4 102.4c1.3.7 2.2 1.8 2.8 3.5l13.8-4.3c-.4-4.2-1.4-7.6-2.9-10.4-1.4-2.8-3.6-5-6.4-6.5 3-2.6 5.4-6 7-9.9 1.7-4 2.5-8.2 2.5-12.8 0-7-2-12.7-6-17-4.1-4.2-9.4-6.4-15.9-6.4-7.5 0-13.3 3-17.4 8.9a42.7 42.7 0 0 0-6.3 24.8v9.2h-2.5c-7.4 0-11-4.5-11-13.6a69.8 69.8 0 0 1 3.9-19l-14-4.7a83 83 0 0 0-5.2 27c0 20 8.3 30.1 24.7 30.1h31.1zm-.3-26.2c-1.3 2.3-3 4.1-5.3 5.3h-11.2v-5c0-11.1 3.4-16.7 10.2-16.7 2.6 0 4.6.8 6 2.4a10 10 0 0 1 2.2 6.9v3.5zm-7 66.7c3.2 0 5.5.6 6.9 1.8 1.4 1.2 2 3 2 5.3 0 2-.6 4.2-2 6.3-1.3 2.2-3.2 4-5.5 5.4H4328v20.5h69.6v-18l-7.8-.8c3.3-2.3 5.8-5.3 7.6-9.1 1.7-3.8 2.6-7.9 2.6-12.1 0-6.5-1.9-11.4-5.7-14.8-3.8-3.3-9.1-5-16-5h-50.3v20.5zm7.4 103c-1 2.3-2.6 5-4.6 7.7l13 9.1a40.5 40.5 0 0 0 8.3-25.6c0-7.4-1.5-13.7-4.6-19a31 31 0 0 0-12.8-12.3c-5.6-3-12-4.3-19.2-4.3-7.3 0-13.8 1.4-19.5 4.4-5.7 3-10.2 7.1-13.4 12.5a42.4 42.4 0 0 0-2.8 32.8c1.4 4.1 3.5 8 6.4 11.5l12.4-8.8c-3.8-5-5.7-10.2-5.7-15.5 0-10.3 7.6-15.5 22.8-15.5 7.6 0 13 1.4 16.3 4 3.3 2.7 5 6.5 5 11.4v3.9zm-49.2 55.4a27.1 27.1 0 0 0-9.3 20.3c0 6 1.8 10.8 5.4 14 3.6 3.4 8.8 5 15.4 5h50.8v-20.5h-45.2c-4.1 0-7-.5-8.7-1.5-1.7-1-2.5-2.7-2.5-5.2 0-2 .8-4 2.3-6 1.5-2 3.8-4 6.7-6h47.4v-20.6h-97l-2 20.5zm66 98.2c0-8.8-2.3-15.5-6.8-20a25.6 25.6 0 0 0-18.9-6.6h-31.2V2909h-15.2v14.5h-15l-2.6 20.5h17.6v22.3l15.2-2.1V2944h32c3.4 0 5.9.8 7.4 2.4 1.5 1.5 2.2 4 2.2 7.5 0 4.3-1 8.4-3.1 12.1l12.6 6.8 5.7-9.8zm-64.4 94.3c6.7 5.9 15.7 8.9 27 8.9 11.7 0 20.9-3 27.5-8.9a31.5 31.5 0 0 0 9.8-24.7c0-10.6-3.2-18.8-9.8-24.7a39.5 39.5 0 0 0-27.4-8.8 45 45 0 0 0-19.5 4 30 30 0 0 0-13 11.5c-3.1 5-4.7 11-4.7 18v15.8zm10.3-34c3.5-2 9.1-3 16.8-3 7.7 0 13.3 1 16.8 3a10 10 0 0 1 5.2 9.3 10 10 0 0 1-5.2 9.4c-3.6 2-9.2 3-17 3a35 35 0 0 1-16.6-3 10 10 0 0 1-5.2-9.4v-6.4zm-10.7 116c6.4 4 15.5 6 27.4 6 7.2 0 13.6-1 19.3-3.1 5.6-2.1 10-5.2 13.2-9.2a22 22 0 0 0 4.8-14.2 21 21 0 0 0-7.1-16.4h31.8l2.3-20.5h-99v18.2l7.7.9c-3.4 2.7-6 5.7-7.6 9a22.5 22.5 0 0 0-2.5 10.1v13zm14-36.9h29.4c2 1.5 3.6 3 4.6 4.7 1 1.6 1.5 3.4 1.5 5.5 0 3.8-1.7 6.7-5.2 8.6-3.5 2-9 3-16.7 3-8.3 0-14-1-17.3-2.6a8.4 8.4 0 0 1-4.8-7.9v-6.4zM4303 3216l13.4-5.7a38.7 38.7 0 0 1-2.7-14.7c0-4 .8-7 2.2-8.8 1.4-1.8 3.8-2.6 7.2-2.6h9v22.5l15.2-2.4V3184h50.4v-20.4h-50.4V3149h-15.2v14.6h-9.7a22 22 0 0 0-17.2 7.4c-4.4 5-6.7 12-6.7 21.2v13.2zm82 46c0 6-2 11.8-5.8 17.7l11.4 8.2c3-3.4 5.3-7.4 7-12a45.3 45.3 0 0 0-2.2-35.2 30.3 30.3 0 0 0-13.1-12.1 44.1 44.1 0 0 0-19.6-4.1 45 45 0 0 0-19.2 4 31.9 31.9 0 0 0-13.6 11.5c-3.3 5.1-5 11.1-5 18.1a33 33 0 0 0 4.4 17.2c2.9 4.9 7 8.6 12.5 11.3 5.5 2.6 12 4 19.5 4 3 0 5.5-.2 7.6-.5v-44.7l16 2zm-40.7-12.8c2.7-2.3 7-3.6 12.6-4v25.3c-11.2-.2-16.8-4.3-16.8-12.4v-5.5zm-16.2 57.6v18l8 1.4c-3.5 3-6.1 6.4-7.8 9.8a25.8 25.8 0 0 0-2.6 11.6 18 18 0 0 0 5.5 14 22 22 0 0 0 15.4 5h51.1V3346h-45.2a20 20 0 0 1-9.1-1.5c-1.7-1-2.5-2.7-2.5-5.2 0-2 .7-4 2-6 1.5-2 3.5-4 6.2-6h48.6v-20.6zm2.5 220.4c3.3 2.3 8.5 3.4 15.6 3.4h51.5V3513h-50c-2.6 0-4.3-.3-5.3-.8s-1.5-1.3-1.5-2.6c0-2.5 1.6-4.8 4.7-7.2h52.1v-14.6h-50c-2.6 0-4.3-.2-5.3-.7-1-.4-1.5-1.3-1.5-2.6 0-2.5 1.6-4.8 4.7-7.2h52.1v-17.8h-69.6v15l6.3 1.4c-3 2.3-5.2 4.5-6.6 6.7-1.4 2.2-2 4.8-2 7.7 0 2.7.6 5 1.9 6.8 1.3 1.8 3.3 3.1 6 3.9-5.3 4.7-8 9.7-8 15.2v7.4zm-35 55.7c2.2 2.2 5.1 3.4 8.5 3.4 3.5 0 6.4-1.2 8.7-3.4 2.2-2.3 3.3-5.2 3.3-8.7a11.7 11.7 0 0 0-12-12.2 11.7 11.7 0 0 0-12 12.2v5.3zm87 3.6v17.7h15.1v-57.7h-15.2v19.5h-40V3547h-15.2v39.4zm17.5 76.6c0-8.8-2.2-15.5-6.7-20a25.6 25.6 0 0 0-18.9-6.6h-31.2v-14.5h-15.2v14.5h-15l-2.6 20.5h17.6v22.3l15.2-2.1v-20.2h32c3.4 0 5.9.8 7.4 2.4 1.5 1.5 2.2 4 2.2 7.5 0 4.3-1 8.4-3.1 12.1l12.6 6.8 5.7-9.8zm-12.6 175.5a31.1 31.1 0 0 0 12.6-26.7c0-11.7-4.1-20.6-12.5-26.8a57.3 57.3 0 0 0-34.6-9.2 57.2 57.2 0 0 0-34.6 9.3 31.2 31.2 0 0 0-12.7 26.7c0 11.7 4.2 20.6 12.5 26.8 8.4 6.1 20 9.2 34.8 9.2h21.9zm-59-15.8c-5-2.3-7.6-5.9-7.6-10.9s2.6-8.6 7.6-10.9c5.1-2.2 13.2-3.3 24.4-3.3s19.4 1.1 24.4 3.3c5.1 2.3 7.6 5.9 7.6 10.9 0 5.1-2.5 8.8-7.6 11a67 67 0 0 1-24.4 3.2h-16.7zm48.4 74.4c5.4 0 8 3 8 8.9 0 3.2-.7 6.5-2.1 9.8l13.2 4.9a44.2 44.2 0 0 0 4.1-20c0-8-2.3-14-7-18-4.8-4.1-11.5-6.1-20-6.1h-59.4v-20.3h-15.2v40.8zm-81.3 81.7c2.2 2.2 5.1 3.4 8.5 3.4 3.5 0 6.4-1.2 8.7-3.4 2.2-2.3 3.3-5.2 3.3-8.7a11.7 11.7 0 0 0-12-12.2 11.7 11.7 0 0 0-12 12.2v5.3zm87 3.6v17.7h15.1v-57.7h-15.2v19.5h-40V3943h-15.2v39.4zm15.1 79.2v-24.2l-69.6-23.2v22.2l54 13.4-54 14v20.8zm-12.8 71.5c0 6-1.9 11.8-5.7 17.7l11.4 8.2c3-3.4 5.3-7.4 7-12a45.3 45.3 0 0 0-2.2-35.2 30.3 30.3 0 0 0-13.1-12.1 44.1 44.1 0 0 0-19.6-4.1 45 45 0 0 0-19.2 4 31.9 31.9 0 0 0-13.6 11.5c-3.3 5.1-5 11.1-5 18.1a33 33 0 0 0 4.4 17.2c2.9 4.9 7 8.6 12.5 11.3 5.4 2.6 12 4 19.5 4 3 0 5.5-.2 7.6-.5v-44.7l16 2zm-40.6-12.8c2.7-2.3 7-3.6 12.6-4v25.3c-11.2-.2-16.8-4.3-16.8-12.4v-5.5zm-16.2 57.6v18l8 1.4c-3.5 3-6.1 6.4-7.8 9.8a25.8 25.8 0 0 0-2.6 11.6 18 18 0 0 0 5.5 14 22 22 0 0 0 15.4 5h51.1v-20.5h-45.2a20 20 0 0 1-9.1-1.5c-1.7-1-2.5-2.7-2.5-5.2 0-2 .7-4 2-6 1.5-2 3.5-4 6.2-6h48.6v-20.6zm47.2 119.2c2.7 2.7 6 4 10 4 2.4 0 4.8-.3 7.1-1 2.4-.9 6-2.3 10.7-4.5l21-9.4v-13.7l-27.3 6.6c-1.2-2-2.8-3.4-4.8-4.5-2-1-4.3-1.6-6.8-1.6a13.6 13.6 0 0 0-13.8 14v6.1zm-16.6 174.6c5.2-6.3 7.8-15 7.8-26v-9.9h30v-21.3h-90.8v28.3a47 47 0 0 0 7.5 28.6c5 6.6 12.4 9.9 22.3 9.9h15.4zm-37.8-28.5v-7.4h30.4v8.4c0 4.9-1.3 8.6-3.9 11.3-2.5 2.6-6.5 4-11.9 4H4321zm62.4 110.7c1.2.7 2.2 1.8 2.8 3.5l13.8-4.3c-.5-4.2-1.4-7.6-2.9-10.4-1.4-2.8-3.6-5-6.4-6.5 3-2.6 5.4-6 7-9.9 1.7-4 2.5-8.2 2.5-12.8 0-7-2-12.7-6-17-4.1-4.2-9.4-6.4-15.9-6.4-7.5 0-13.3 3-17.5 8.9a42.7 42.7 0 0 0-6.2 24.8v9.2h-2.5c-7.4 0-11-4.5-11-13.6a69.8 69.8 0 0 1 3.9-19l-14-4.7a83 83 0 0 0-5.2 27c0 20 8.2 30.1 24.7 30.1h31.1zm-.3-26.2c-1.3 2.3-3 4.1-5.3 5.3h-11.2v-5c0-11.1 3.4-16.7 10.2-16.7 2.6 0 4.6.8 6 2.4a10 10 0 0 1 2.2 6.9v3.5zm-55.7 110.3l29.6-3.8v-13h-11.7c.6-3.8 2.5-7.2 5.8-10.1 3.4-3 7.5-5.3 12.6-7h19v13.8h15.1v-43.3h-15.2v9h-40v-9h-15.2v24.8l17.2 3.6c-6.3 2.5-11 5.7-14.1 9.5a21.5 21.5 0 0 0-4.7 14v6.3zm56 74.3c1.2.7 2.2 1.8 2.8 3.5l13.8-4.3c-.5-4.2-1.4-7.6-2.9-10.4-1.4-2.8-3.6-5-6.4-6.5 3-2.6 5.4-6 7-9.9 1.7-4 2.5-8.2 2.5-12.8 0-7-2-12.7-6-17-4.1-4.2-9.4-6.4-15.9-6.4-7.5 0-13.3 3-17.5 8.9a42.7 42.7 0 0 0-6.2 24.8v9.2h-2.5c-7.4 0-11-4.5-11-13.6a69.8 69.8 0 0 1 3.9-19l-14-4.7a83 83 0 0 0-5.2 27c0 20 8.2 30.1 24.7 30.1h31.1zm-.3-26.2c-1.3 2.3-3 4.1-5.3 5.3h-11.2v-5c0-11.1 3.4-16.7 10.2-16.7 2.6 0 4.6.8 6 2.4a10 10 0 0 1 2.2 6.9v3.5zm-82.6 106h97.5V4774l-7.5-1a22.7 22.7 0 0 0 9.8-19 21 21 0 0 0-10-19 50.3 50.3 0 0 0-27.4-6.5c-7.2 0-13.6 1.1-19.2 3.4a30 30 0 0 0-13.2 9.6c-3.1 4.2-4.7 9-4.7 14.6 0 6.2 2.2 11.4 6.5 15.6h-34zm45.8-39.4c3.6-2 9.2-3.1 16.7-3.1 8.1 0 13.8 1 17 2.8 3.4 1.9 5 4.5 5 7.9 0 4.3-2.6 8-8 11.3h-30c-2-1.5-3.5-3-4.5-4.6-1-1.6-1.5-3.5-1.5-5.6v-5.6zm38.7 93.2c0 6-1.9 11.8-5.7 17.7l11.4 8.2c3-3.4 5.3-7.4 7-12a45.3 45.3 0 0 0-2.2-35.2 30.3 30.3 0 0 0-13.1-12.1 44.1 44.1 0 0 0-19.6-4.1 45 45 0 0 0-19.2 4 31.9 31.9 0 0 0-13.6 11.5c-3.3 5.1-5 11.1-5 18.1a33 33 0 0 0 4.4 17.2c2.8 4.9 7 8.6 12.5 11.3 5.4 2.6 12 4 19.5 4 3 0 5.5-.2 7.6-.5v-44.7l16 2zm-40.7-12.8c2.8-2.3 7-3.6 12.7-4v25.3c-11.2-.2-16.8-4.3-16.8-12.4v-5.5zm-48.7 96c2.3 2.3 5.2 3.5 8.6 3.5 3.5 0 6.4-1.2 8.6-3.4 2.3-2.3 3.4-5.2 3.4-8.7a11.7 11.7 0 0 0-12-12.2 11.7 11.7 0 0 0-12 12.2v5.3zm87 3.7v17.7h15.2v-57.7h-15.2v19.5h-40v-18.9h-15.2v39.4zm.8 73.2c-1 2-2.7 3-4.9 3-1.6 0-2.8-.4-3.8-1.2-1-.8-1.9-2.4-2.8-4.6-1-2.3-2-5.8-3.3-10.6-1.9-6.9-4.4-12.2-7.7-15.8a17.3 17.3 0 0 0-13.5-5.5c-6.4 0-11.6 2.7-15.6 7.9s-6 12.6-6 22c0 11 3 20.3 8.8 28l12.3-8.2c-4-6.3-5.9-12.7-5.9-19.1 0-3.4.4-5.9 1.3-7.5a4.3 4.3 0 0 1 4-2.4c1.3 0 2.3.4 3.1 1.2a14 14 0 0 1 2.6 4.7c.9 2.3 2 5.8 3.3 10.3 1.4 5 2.9 9 4.5 12.2 1.7 3.2 3.9 5.6 6.7 7.4 2.8 1.7 6.4 2.6 10.7 2.6 5 0 9-1.5 12.6-4.5 3.5-3 6-6.9 7.8-11.8a49 49 0 0 0 2.6-16.4c0-6.4-.9-12.2-2.8-17.4a38.4 38.4 0 0 0-7.7-13.3l-11.9 10.3c4.8 6.3 7.2 13 7.2 20.3v5.3zm1.6 77.5c0 6-1.9 11.8-5.7 17.7l11.4 8.2c3-3.4 5.3-7.4 7-12a45.3 45.3 0 0 0-2.2-35.2 30.3 30.3 0 0 0-13.1-12.1 44.1 44.1 0 0 0-19.6-4.1 45 45 0 0 0-19.2 4 31.8 31.8 0 0 0-13.6 11.5c-3.3 5.1-5 11.1-5 18.1a33 33 0 0 0 4.4 17.2c2.8 4.9 7 8.6 12.5 11.3 5.4 2.6 12 4 19.5 4 3 0 5.5-.2 7.6-.5V5067l16 2zm-40.7-12.8c2.8-2.3 7-3.6 12.7-4v25.3c-11.2-.2-16.8-4.3-16.8-12.4v-5.5zm-16.9 121.7l29.6-3.8v-13h-11.7c.6-3.8 2.5-7.2 5.8-10.1 3.4-3 7.5-5.3 12.6-7h19v13.8h15.1V5129h-15.2v9h-40v-9h-15.2v24.8l17.2 3.6c-6.3 2.5-11 5.7-14.1 9.5a21.5 21.5 0 0 0-4.7 14v6.3zm48 55.1c2.7 2.7 6 4 10 4 2.4 0 4.8-.3 7.1-1 2.4-.9 6-2.3 10.7-4.5l21-9.4V5223l-27.3 6.6c-1.2-2-2.8-3.4-4.8-4.5-2-1-4.3-1.6-6.8-1.6a13.6 13.6 0 0 0-13.8 14v6.1zm12.2 175c8.4-6.2 12.6-15 12.6-26.7s-4.2-20.6-12.5-26.8a57.3 57.3 0 0 0-34.7-9.2 57.2 57.2 0 0 0-34.5 9.3 31.2 31.2 0 0 0-12.7 26.7c0 11.7 4.2 20.6 12.5 26.8 8.4 6.1 20 9.2 34.7 9.2h22zm-59-15.8c-5-2.3-7.6-5.9-7.6-10.9s2.6-8.6 7.6-10.9c5.1-2.2 13.2-3.3 24.4-3.3s19.3 1.1 24.4 3.3c5.1 2.3 7.6 5.9 7.6 10.9 0 5.1-2.5 8.8-7.6 11a67 67 0 0 1-24.4 3.2h-16.8zm-1.2 102.5l29.6-3.8v-13h-11.7c.6-3.8 2.5-7.2 5.8-10.1 3.4-3 7.5-5.3 12.6-7h19v13.8h15.1v-43.3h-15.2v9h-40v-9h-15.2v24.8l17.2 3.6c-6.3 2.5-11 5.7-14.1 9.5a21.5 21.5 0 0 0-4.7 14v6.3zm57.6 49.5c0 6-1.9 11.8-5.7 17.7l11.4 8.2c3-3.4 5.3-7.4 7-12a45.3 45.3 0 0 0-2.2-35.2 30.3 30.3 0 0 0-13.1-12.1 44.1 44.1 0 0 0-19.6-4.1 45 45 0 0 0-19.2 4 31.8 31.8 0 0 0-13.6 11.5c-3.3 5.1-5 11.1-5 18.1a33 33 0 0 0 4.4 17.2c2.8 4.9 7 8.6 12.5 11.3 5.4 2.6 12 4 19.5 4 3 0 5.5-.2 7.6-.5v-44.7l16 2zm-40.7-12.8c2.8-2.3 7-3.6 12.7-4v25.3c-11.2-.2-16.8-4.3-16.8-12.4v-5.5zm-11.7 123.7a53.5 53.5 0 0 0 2.8-20 26 26 0 0 0 7.1 10.1c2.8 2.3 6.3 3.4 10.7 3.4 4.4 0 8.3-1.3 11.8-3.7 3.5-2.4 6.3-5.9 8.2-10.3 2-4.4 3-9.5 3-15.3 0-2.9-.3-5.5-.8-8 .3-.7.9-1.3 1.6-1.7.7-.4 1.5-.6 2.3-.6 1.3 0 2.3.5 3 1.5.7 1 1.1 3 1.1 6v11.5c0 5.2.9 9.8 2.6 13.8 1.8 4 4.2 7 7.2 9.2 3.1 2.2 6.5 3.3 10.4 3.3 7.2 0 12.9-3.2 17-9.5a51 51 0 0 0 6-27.5c0-8.5-.9-15.3-2.7-20.2a19 19 0 0 0-7.5-10.3c-3.2-2-7.3-2.9-12.2-2.9v18.2c2 0 3.5.4 4.7 1.3 1 .8 2 2.3 2.5 4.6.5 2.2.8 5.5.8 9.8 0 6.1-.6 10.3-1.9 12.6-1.3 2.3-3 3.5-5.4 3.5-1.9 0-3.4-.9-4.6-2.6a13.3 13.3 0 0 1-1.7-7.5v-10.9c0-7-1.3-12.4-4-16-2.6-3.5-6-5.3-10.1-5.3a15 15 0 0 0-7.6 2 17.6 17.6 0 0 0-6 5.7 23.7 23.7 0 0 0-8.3-9.4 22 22 0 0 0-11.5-2.8 23.3 23.3 0 0 0-22.2 14.8c-2 4.6-3 10-3 16a59.4 59.4 0 0 1-9.2 32.5zm10.5-44.5c2-1.8 4.5-2.8 7.8-2.8 3.4 0 6.1 1 8 3 2 1.8 3 4.4 3 7.6 0 3.4-1 6-2.9 7.8-1.9 1.8-4.6 2.7-8.3 2.7-7 0-10.5-3.5-10.5-10.5v-5zm40.3 116.8c1.2.7 2.2 1.8 2.8 3.5l13.8-4.3c-.5-4.2-1.4-7.6-2.9-10.4-1.4-2.8-3.6-5-6.4-6.5 3-2.6 5.4-5.9 7-9.9 1.7-4 2.5-8.2 2.5-12.8 0-7-2-12.7-6-17-4.1-4.2-9.4-6.4-15.9-6.4-7.5 0-13.3 3-17.5 8.9a42.7 42.7 0 0 0-6.2 24.8v9.2h-2.5c-7.4 0-11-4.5-11-13.6a69.8 69.8 0 0 1 3.9-19l-14-4.7a82.5 82.5 0 0 0-5.2 27c0 20 8.2 30.1 24.7 30.1h31.1zm-.3-26.2c-1.3 2.3-3 4.1-5.3 5.3h-11.2v-5c0-11.1 3.4-16.7 10.2-16.7 2.6 0 4.6.8 6 2.4a10 10 0 0 1 2.2 6.9v3.5zm-54.9 46.2v18l8 1.4c-3.5 3-6.1 6.4-7.8 9.8a25.8 25.8 0 0 0-2.6 11.6 18 18 0 0 0 5.5 14 22 22 0 0 0 15.4 5h51.1v-20.5h-45.2c-4.4 0-7.4-.5-9.1-1.5-1.7-1-2.5-2.7-2.5-5.2 0-2 .7-4 2-6 1.5-2 3.5-4 6.2-6h48.6v-20.6zm7.7 133.8c6.7 5.9 15.7 8.9 27 8.9 11.7 0 20.9-3 27.5-8.9a31.5 31.5 0 0 0 9.8-24.7c0-10.6-3.2-18.8-9.8-24.7a39.4 39.4 0 0 0-27.4-8.8c-7.4 0-14 1.3-19.5 4a30 30 0 0 0-13 11.5c-3.1 5-4.7 11-4.7 18v15.8zm10.3-34c3.5-2 9.1-3 16.7-3 7.8 0 13.4 1 16.9 3a10 10 0 0 1 5.2 9.3 10 10 0 0 1-5.3 9.4 36 36 0 0 1-16.9 3 35 35 0 0 1-16.6-3 10 10 0 0 1-5.2-9.4v-6.4zM4376 6020c3.2 0 5.5.6 6.9 1.8 1.3 1.2 2 3 2 5.3 0 2-.6 4.2-2 6.3-1.3 2.2-3.2 4-5.5 5.4H4328v20.5h69.6v-18l-7.8-.8c3.3-2.3 5.8-5.3 7.6-9.1 1.7-3.8 2.6-7.9 2.6-12.1 0-6.5-1.9-11.4-5.7-14.8-3.8-3.3-9.1-5-16-5h-50.3v20.5zm-47.9 58.7v18l8 1.4c-3.5 3-6.1 6.4-7.8 9.8a25.8 25.8 0 0 0-2.6 11.6 18 18 0 0 0 5.5 14 22 22 0 0 0 15.4 5h51.1V6118h-45.2c-4.4 0-7.4-.5-9.1-1.5-1.7-1-2.5-2.7-2.5-5.2 0-2 .7-4 2-6 1.5-2 3.5-4 6.2-6h48.6v-20.6zm-27.7 139h97.5v-18.2l-7.5-1a22.7 22.7 0 0 0 9.8-19 21 21 0 0 0-10-19 50.2 50.2 0 0 0-27.4-6.5c-7.2 0-13.6 1.1-19.2 3.4a30 30 0 0 0-13.2 9.6c-3.1 4.2-4.7 9-4.7 14.6 0 6.2 2.2 11.4 6.5 15.6h-34zm45.8-39.4c3.6-2 9.2-3.1 16.7-3.1 8.1 0 13.8 1 17 2.8 3.4 1.9 5 4.5 5 7.9 0 4.3-2.6 8-8 11.3h-30c-2-1.5-3.5-3-4.5-4.6-1-1.6-1.5-3.5-1.5-5.6v-5.6zm51.5 204.7v-18.7l-39-1a200.2 200.2 0 0 0-20.6.2l-13 .9 57.1-10.1V6338l-57.2-11c10 1 19.1 1.4 27.2 1.4l7-.1 38.5-.6v-18.4l-91.2 5v22l59 10-59 9.6v22zm-62 67c6.8 6 15.8 9 27 9 11.8 0 21-3 27.6-8.9a31.5 31.5 0 0 0 9.8-24.7c0-10.6-3.2-18.8-9.8-24.7a39.4 39.4 0 0 0-27.4-8.8c-7.4 0-14 1.3-19.5 4a30 30 0 0 0-13 11.5c-3.1 5-4.7 11-4.7 18v15.8zm10.4-34c3.5-2 9.1-3 16.7-3 7.8 0 13.4 1 16.9 3a10 10 0 0 1 5.2 9.4 10 10 0 0 1-5.3 9.4 36 36 0 0 1-16.9 3 35 35 0 0 1-16.6-3 10 10 0 0 1-5.2-9.4v-6.4zm36.4 117.7l15.2-2V6475h-14l-40.4 34.3v-31.5h-15.2v55.3h14.2l40.2-33.8zm0 79.2l15.2-2v-56.7h-14l-40.4 34.3V6557h-15.2v55.3h14.2l40.2-33.8zm.8 79.4c1.2.7 2.2 1.8 2.8 3.5l13.8-4.3c-.5-4.2-1.4-7.6-2.9-10.4-1.4-2.8-3.6-5-6.4-6.5 3-2.6 5.4-5.9 7-9.9 1.7-4 2.5-8.2 2.5-12.8 0-7-2-12.7-6-17-4.1-4.2-9.4-6.4-15.9-6.4-7.5 0-13.3 3-17.5 8.9a42.7 42.7 0 0 0-6.2 24.8v9.2h-2.5c-7.4 0-11-4.5-11-13.6a69.7 69.7 0 0 1 3.9-19l-14-4.7a82.5 82.5 0 0 0-5.2 27c0 20 8.2 30.1 24.7 30.1h31.1zm-.3-26.2c-1.3 2.4-3 4.1-5.3 5.3h-11.2v-5c0-11.1 3.4-16.7 10.2-16.7 2.6 0 4.6.8 6 2.5a10 10 0 0 1 2.2 6.8v3.5zm-55.7 110.3l29.6-3.8v-13h-11.7c.6-3.8 2.5-7.2 5.8-10.1 3.4-3 7.6-5.3 12.6-7h19v13.8h15.1V6713h-15.2v9h-40v-9h-15.2v24.8l17.2 3.6a34 34 0 0 0-14.1 9.5 21.6 21.6 0 0 0-4.7 14v6.3zm57.6 49.5c0 6-1.9 11.8-5.7 17.7l11.4 8.2c3-3.4 5.3-7.4 7-12a45.3 45.3 0 0 0-2.2-35.2 30.3 30.3 0 0 0-13.1-12.1 44.1 44.1 0 0 0-19.6-4.1 45 45 0 0 0-19.2 4 31.8 31.8 0 0 0-13.6 11.5c-3.3 5.1-5 11.1-5 18.1a33 33 0 0 0 4.4 17.2c2.9 4.9 7 8.6 12.5 11.3 5.4 2.6 12 4 19.5 4 3 0 5.5-.2 7.6-.5v-44.7l16 2zm-40.6-12.8c2.7-2.3 7-3.6 12.6-4v25.3c-11.2-.2-16.8-4.3-16.8-12.4v-5.5zm32.6 93.6c5.4 0 8 3 8 8.9 0 3.2-.7 6.5-2.1 9.8l13.2 4.9a44.2 44.2 0 0 0 4.1-20c0-8-2.4-14-7-18-4.8-4.1-11.5-6.1-20-6.1h-59.4v-20.3h-15.2v40.8zm0 79.2c5.4 0 8 3 8 8.9 0 3.2-.7 6.5-2.1 9.8l13.2 4.9a44.2 44.2 0 0 0 4.1-20c0-8-2.4-14-7-18-4.8-4.1-11.5-6.1-20-6.1h-59.4V6945h-15.2v40.8zm6.4 102.4c1.2.7 2.2 1.8 2.8 3.5l13.8-4.3c-.5-4.2-1.4-7.6-2.9-10.4-1.4-2.8-3.6-5-6.4-6.5 3-2.6 5.4-5.9 7-9.9 1.7-4 2.5-8.2 2.5-12.8 0-7-2-12.7-6-17-4.1-4.2-9.4-6.4-15.9-6.4-7.5 0-13.3 3-17.5 8.9a42.7 42.7 0 0 0-6.2 24.8v9.2h-2.5c-7.4 0-11-4.5-11-13.6a69.7 69.7 0 0 1 3.9-19l-14-4.7a82.5 82.5 0 0 0-5.2 27c0 20 8.2 30.1 24.7 30.1h31.1zm-.3-26.2c-1.3 2.4-3 4.1-5.3 5.3h-11.2v-5c0-11.1 3.4-16.7 10.2-16.7 2.6 0 4.6.8 6 2.5a10 10 0 0 1 2.2 6.8v3.5" fill="green" transform="matrix(0 .03623 .03623 0 -45.7 -122.7)"/>
    <path d="M4290.6 7198.2l114.3 54.5 7.5-16-114.4-54.5zm85.4 89c3.2 0 5.5.6 6.9 1.8 1.4 1.2 2 3 2 5.3 0 2-.6 4.2-2 6.3a16 16 0 0 1-5.5 5.4H4328v20.5h69.6v-18l-7.8-.8a22 22 0 0 0 7.6-9.1c1.7-3.8 2.6-7.9 2.6-12.1 0-6.5-1.9-11.4-5.7-14.8-3.8-3.3-9.1-5-16-5h-50.3v20.5zm-59.3 112.9a64 64 0 0 0 35.3 8.2c15.3 0 27.1-2.7 35.5-8.2a27.2 27.2 0 0 0 12.6-24.3c0-10.6-4.2-18.7-12.6-24.2a64.5 64.5 0 0 0-35.5-8.3c-15.2 0-27 2.7-35.3 8.3a27.2 27.2 0 0 0-12.6 24.2v16zm10.2-33.8c5-2 13.4-3 25-3 12 0 20.5 1 25.5 3s7.5 5.2 7.5 9.5c0 4.4-2.5 7.6-7.5 9.6s-13.5 2.9-25.5 2.9c-11.8 0-20.2-1-25.2-3-5-2.1-7.4-5.3-7.4-9.5v-6.5zm20.5 15.5a8 8 0 0 0 5.9 2.4 8.3 8.3 0 0 0 8.5-8.6c0-2.3-.9-4.4-2.5-6a8.2 8.2 0 0 0-6-2.4 8 8 0 0 0-6 2.4 8.2 8.2 0 0 0-2.4 6.1v3.6zm-30.7 97.5a64 64 0 0 0 35.3 8.2c15.3 0 27.1-2.7 35.5-8.2a27.2 27.2 0 0 0 12.6-24.3c0-10.6-4.2-18.7-12.6-24.2a64.5 64.5 0 0 0-35.5-8.3c-15.2 0-27 2.7-35.3 8.3a27.2 27.2 0 0 0-12.6 24.2v16zm10.2-33.8c5-2 13.4-3 25-3 12 0 20.5 1 25.5 3s7.5 5.2 7.5 9.5c0 4.4-2.5 7.6-7.5 9.6s-13.5 2.9-25.5 2.9c-11.8 0-20.2-1-25.2-3-5-2.1-7.4-5.3-7.4-9.5v-6.5zm20.5 15.5a8 8 0 0 0 5.9 2.4 8.3 8.3 0 0 0 8.5-8.6c0-2.3-.9-4.4-2.5-6a8.2 8.2 0 0 0-6-2.4 8 8 0 0 0-6 2.4 8.1 8.1 0 0 0-2.4 6v3.7zm-44.4 111l13.4-5.8a38.7 38.7 0 0 1-2.7-14.7c0-4 .8-7 2.2-8.8 1.4-1.7 3.8-2.6 7.2-2.6h9v22.4l15.2-2.3v-20.1h50.4v-20.4h-50.4V7505h-15.2v14.6h-9.7a22 22 0 0 0-17.2 7.4c-4.4 5-6.7 12-6.7 21.2v13.2zm80.4 55.7c-1 2.4-2.6 5-4.6 7.8l13 9.1a40.5 40.5 0 0 0 8.3-25.6c0-7.4-1.5-13.7-4.6-19a31 31 0 0 0-12.9-12.3c-5.5-2.9-11.9-4.3-19.2-4.3-7.2 0-13.7 1.4-19.4 4.4-5.7 3-10.2 7.1-13.4 12.5a42.4 42.4 0 0 0-2.8 32.8c1.4 4.1 3.5 8 6.4 11.5l12.4-8.9c-3.8-5-5.7-10.1-5.7-15.4 0-10.3 7.6-15.5 22.8-15.5 7.6 0 13 1.4 16.3 4 3.3 2.7 5 6.5 5 11.4v3.8" fill="navy" transform="matrix(0 .03623 .03623 0 -45.7 -122.7)"/>
    <path d="M4328.2 7691.1c-1.6 3-2.5 6.4-2.5 9.8 0 8.6 3.3 15 9.8 19.2a50.1 50.1 0 0 0 27.3 6.3c7.2 0 13.7-1 19.3-3.2 5.6-2.2 10-5.4 13.2-9.5a23.8 23.8 0 0 0 2.6-24.6c-1.5-3-3.5-5.4-6.2-7.4l6.3-.8v-18.2h-97.6l-2.2 20.5h36.9l-4.4 3.3zm34.7 14.1a38 38 0 0 1-17.1-2.7 8.7 8.7 0 0 1-4.9-8c0-4.3 2.8-8 8.4-11.3h29.4c4.1 2.7 6.2 6.1 6.2 10.2v11.8zm22 71.1c0 6-1.9 11.8-5.7 17.7l11.4 8.2c3-3.4 5.3-7.4 7-12a45.3 45.3 0 0 0-2.2-35.1 30.2 30.2 0 0 0-13.1-12.2 44.1 44.1 0 0 0-19.6-4.1c-7.1 0-13.5 1.3-19.2 4a31.7 31.7 0 0 0-13.6 11.5c-3.3 5.1-5 11.2-5 18.2a33 33 0 0 0 4.4 17.1 29 29 0 0 0 12.5 11.3c5.4 2.6 12 4 19.5 4 3 0 5.5-.2 7.6-.5v-44.7l16 2zm-40.6-12.8c2.7-2.3 7-3.6 12.6-4v25.3c-11.2-.2-16.8-4.3-16.8-12.4v-5.5zm-17 121.7l29.6-3.8v-13h-11.7c.6-3.8 2.5-7.2 5.8-10.1 3.4-3 7.6-5.3 12.6-7h19v13.8h15.1v-43.3h-15.2v9h-40v-9h-15.2v24.8l17.2 3.6c-6.3 2.6-11 5.7-14.1 9.5a21.5 21.5 0 0 0-4.7 14v6.3zm.9 43.5c-1.6 3-2.5 6.4-2.5 9.8 0 8.6 3.3 15 9.8 19.2a50 50 0 0 0 27.3 6.3c7.2 0 13.7-1 19.3-3.2 5.6-2.2 10-5.4 13.2-9.5a23.8 23.8 0 0 0 2.6-24.6c-1.5-3-3.5-5.4-6.2-7.4l6.3-.8v-18.2h-97.6l-2.2 20.5h36.9l-4.4 3.3zm34.7 14.1c-8.1 0-13.9-1-17.1-2.7a8.7 8.7 0 0 1-4.9-8c0-4.3 2.8-8 8.4-11.3h29.4c4.1 2.7 6.2 6.1 6.2 10.2v11.8zm20.4 95.9c1.2.7 2.2 1.8 2.8 3.5l13.8-4.3c-.5-4.2-1.4-7.6-2.9-10.4-1.4-2.8-3.6-5-6.4-6.5 3-2.6 5.4-6 7-9.9 1.7-4 2.5-8.2 2.5-12.8 0-7-2-12.7-6-17-4.1-4.2-9.4-6.4-15.9-6.4-7.5 0-13.3 3-17.5 8.9a42.6 42.6 0 0 0-6.2 24.8v9.2h-2.5c-7.4 0-11-4.5-11-13.6a70.5 70.5 0 0 1 3.9-19l-14-4.7a82.3 82.3 0 0 0-5.2 27c0 20 8.2 30.1 24.7 30.1h31.1zm-.3-26.2c-1.3 2.3-3 4.1-5.3 5.3h-11.2v-5c0-11.1 3.4-16.7 10.2-16.7 2.6 0 4.6.8 6 2.4a10 10 0 0 1 2.2 6.9v3.5zm.4 90.4c-1 2.4-2.6 5-4.6 7.8l13 9.1a40.4 40.4 0 0 0 8.3-25.6c0-7.4-1.5-13.7-4.6-19a31 31 0 0 0-12.9-12.3c-5.5-2.9-11.9-4.3-19.2-4.3-7.2 0-13.7 1.4-19.4 4.4-5.7 3-10.2 7.1-13.4 12.5a42.4 42.4 0 0 0-2.8 32.8c1.4 4.1 3.5 8 6.4 11.5l12.4-8.8c-3.8-5-5.7-10.2-5.7-15.5 0-10.3 7.6-15.5 22.8-15.5 7.6 0 13 1.4 16.3 4 3.3 2.7 5 6.5 5 11.4v3.9zm14.3 55.5V8138h-97.3l-2.2 20.5zm-38.8 22.3l38.8 24.6v-23.4l-37.6-22.7-32 22.8v21.4zm26 70.9c0 5.8-1.9 11.7-5.7 17.6l11.4 8.2c3-3.3 5.3-7.4 7-12a45.3 45.3 0 0 0-2.2-35.1 30.3 30.3 0 0 0-13.1-12.2 44.3 44.3 0 0 0-19.6-4.1 45 45 0 0 0-19.2 4 31.8 31.8 0 0 0-13.6 11.5c-3.3 5.1-5 11.1-5 18.1a33 33 0 0 0 4.4 17.2 29 29 0 0 0 12.5 11.3c5.4 2.6 12 4 19.5 4 3 0 5.5-.2 7.6-.5V8235l16 2zm-40.7-13c2.8-2.2 7-3.5 12.7-4v25.4c-11.2-.2-16.8-4.3-16.8-12.4v-5.6zm-16 57.7v18l7.8 1.4c-3.4 3.1-6 6.4-7.7 9.8a25.7 25.7 0 0 0-2.6 11.6 18 18 0 0 0 5.5 14 22 22 0 0 0 15.4 5h51.1v-20.5h-45.2c-4.4 0-7.4-.5-9.1-1.5-1.7-1-2.5-2.7-2.5-5.2 0-2 .7-4 2-6 1.5-2 3.5-4 6.2-6h48.6v-20.6zm-26.5 86.9v19.5l36-2.5v-14.6zm0 24.8v19.6l36-2.4v-14.7l-36-2.5" fill="green" transform="matrix(0 .03623 .03623 0 -45.7 -122.7)"/>
    <path d="M4379.2 8492c2.1 2.1 4.6 3.1 7.5 3.1 3.3 0 6.8-.8 10.5-2.4l24.5-10.6v-9.8l-25.9 6c-1-1.1-2.3-2.1-3.9-3a11.3 11.3 0 0 0-12.6 1.9 9.8 9.8 0 0 0-3.2 7.4v4.4" transform="matrix(0 .03623 .03623 0 -45.7 -122.7)"/>
    <path d="M4457.7 1492.8v19.5l36-2.5v-14.6zm0 24.8v19.6l36-2.4V1520zm96 88.8v-24.2l-69.6-23.2v22.2l54 13.4-54 14v20.8zM4541 1678c0 6-1.9 11.8-5.7 17.7l11.4 8.2c3-3.4 5.3-7.4 7-12a45.3 45.3 0 0 0-2.2-35.2 30.3 30.3 0 0 0-13.1-12.1 44.1 44.1 0 0 0-19.6-4.1 45 45 0 0 0-19.2 4 31.8 31.8 0 0 0-13.6 11.5c-3.3 5.1-5 11.1-5 18.1a33 33 0 0 0 4.4 17.2c2.9 4.9 7 8.6 12.5 11.3 5.4 2.6 12 4 19.5 4 3 0 5.5-.2 7.6-.5v-44.7l16 2zm-40.6-12.8c2.7-2.3 7-3.6 12.6-4v25.3c-11.2-.2-16.8-4.3-16.8-12.4v-5.6zm-16.2 57.6v18l8 1.4c-3.5 3-6.1 6.4-7.8 9.8a25.8 25.8 0 0 0-2.6 11.6 18 18 0 0 0 5.5 14 22 22 0 0 0 15.4 5h51.1V1762h-45.2a20 20 0 0 1-9.1-1.5c-1.7-1-2.5-2.7-2.5-5.2 0-2 .7-4 2-6 1.5-2 3.5-4 6.2-6h48.6v-20.6zm47.9 99.7c3.2 0 5.5.6 6.9 1.8 1.4 1.2 2 3 2 5.3 0 2-.6 4.2-2 6.3-1.3 2.2-3.2 4-5.5 5.4H4484v20.5h69.6v-18l-7.8-.8c3.3-2.3 5.8-5.3 7.6-9.1 1.7-3.8 2.6-7.9 2.6-12.1 0-6.5-1.9-11.4-5.7-14.8-3.8-3.3-9.1-5-16-5h-50.3v20.5zm9 93.1c0 6-2 11.8-5.8 17.7l11.4 8.2c3-3.4 5.3-7.4 7-12a45.3 45.3 0 0 0-2.2-35.2 30.3 30.3 0 0 0-13.1-12.1 44.1 44.1 0 0 0-19.6-4.1 45 45 0 0 0-19.2 4 31.8 31.8 0 0 0-13.6 11.5c-3.3 5.1-5 11.1-5 18.1a33 33 0 0 0 4.4 17.2c2.9 4.9 7 8.6 12.5 11.3 5.4 2.6 12 4 19.5 4 3 0 5.5-.2 7.6-.5V1899l16 2zm-40.7-12.8c2.7-2.3 7-3.6 12.6-4v25.3c-11.2-.2-16.8-4.3-16.8-12.4v-5.5zm-42.6 65.3v19.5l36-2.5v-14.6zm0 24.8v19.6l36-2.4v-14.7l-36-2.5" fill="green" transform="matrix(0 .03623 .03623 0 -45.7 -122.7)"/>
    <path d="M4489.6 2061.9c-2 2-3 4.4-3 7.4s1 5.5 3 7.5c2.1 2 4.6 3 7.6 3s5.6-1 7.7-3c2.2-2 3.2-4.5 3.2-7.5s-1-5.4-3.2-7.4c-2.1-2-4.7-3-7.7-3h-4.4zm47 0a9.8 9.8 0 0 0-3.3 7.4c0 3 1 5.5 3.1 7.5s4.7 3 7.7 3c3.1 0 5.7-1 7.7-3s3.1-4.5 3.1-7.5-1-5.4-3-7.4c-2.1-2-4.7-3-7.8-3h-4.4" transform="matrix(0 .03623 .03623 0 -45.7 -122.7)"/>
    <path d="M4544.8 2256h9v-51.6h-9v22h-67.4l12.1-20.4-7.5-4.9-17 26.7v9.6h79.8v18.6" fill="#00f" transform="matrix(0 .03623 .03623 0 -45.7 -122.7)"/>
    <path d="M4604 1356c2.8 5 7.4 7.5 14 7.5l2.6-.1 25.3-2.8 2-.1c3.8 0 6.7 1.5 8.6 4.6 1.9 3 2.8 8.2 2.8 15.3h9c0-7.2.9-12.3 2.8-15.3s4.8-4.6 8.7-4.6l2 .1 24.5 2.7 2.6.2c6.4 0 11-2.5 13.6-7.4a40 40 0 0 0 4-19.1h-9c0 5.3-.7 9.4-2.2 12.3-1.6 3-4.2 4.3-8 4l-26.3-2.7-3.5-.2c-4.3 0-7.4 1-9.5 3.2-2 2.2-3.4 5.7-4.1 10.5-.9-4.6-2.4-8-4.7-10.3-2.2-2.2-5.4-3.3-9.7-3.3l-3.3.1-26.8 2.6c-7 .7-10.5-4.7-10.5-16.2h-8.9v11.7M4691.2 1443.3c2.1 2 4.6 3 7.5 3 3.3 0 6.8-.8 10.5-2.4l24.5-10.6v-9.8l-25.9 6c-1-1.2-2.3-2.2-3.9-3a11.3 11.3 0 0 0-12.6 1.9 9.8 9.8 0 0 0-3.2 7.4v4.4M4765 1376.3c0-11.6 3.4-17 10.4-16.3l26.8 2.6 3.5.1c4.2 0 7.4-1 9.6-3 2.2-2 3.7-5 4.5-9.2.8 4.2 2.2 7.3 4.3 9.3 2.1 2 5.2 3 9.4 3l3.5-.2 26.3-2.6c3.8-.4 6.4 1 8 3.9 1.5 3 2.3 7 2.3 12.4h9c0-7.8-1.4-14.2-4-19.2-2.7-5-7.2-7.4-13.6-7.4l-2.5.1-24.4 2.8-2.6.1c-3.9 0-6.7-1.4-8.5-4.3-1.8-2.9-2.7-8-2.7-15.6h-9c0 7.6-.9 12.7-2.6 15.6-1.8 2.9-4.6 4.3-8.4 4.3l-2.4-.1-24.9-2.7-2.7-.2c-6.6 0-11.3 2.5-14.1 7.4-2.8 5-4.2 11.4-4.2 19.2h9" transform="matrix(0 .03623 .03623 0 -45.7 -122.7)"/>
    <path d="M4925.7 1492.8v19.5l36-2.5v-14.6zm0 24.8v19.6l36-2.4V1520zm-1.3 106.5h97.6V1606l-7.6-1a22.7 22.7 0 0 0 9.8-19 21 21 0 0 0-10-19 50.3 50.3 0 0 0-27.4-6.5c-7.2 0-13.6 1.1-19.2 3.4a30 30 0 0 0-13.2 9.6c-3.1 4.2-4.7 9-4.7 14.6 0 6.2 2.2 11.4 6.6 15.6h-34.1zm45.9-39.4c3.5-2 9-3.1 16.6-3.1 8.1 0 13.8 1 17 2.8 3.4 1.9 5 4.5 5 7.8 0 4.4-2.6 8.1-8 11.4h-30c-2-1.5-3.5-3-4.5-4.6-1-1.6-1.5-3.5-1.5-5.6v-5.6zm37 118c1.2.6 2.2 1.8 2.8 3.5l13.8-4.3c-.5-4.2-1.4-7.7-2.9-10.4-1.4-2.8-3.6-5-6.4-6.5 3-2.6 5.4-6 7-9.9 1.7-4 2.5-8.2 2.5-12.8 0-7-2-12.7-6-17-4.1-4.2-9.4-6.4-15.9-6.4-7.5 0-13.3 3-17.5 8.9a42.7 42.7 0 0 0-6.2 24.8v9.2h-2.5c-7.4 0-11-4.5-11-13.6a69.8 69.8 0 0 1 3.9-19l-14-4.7a82.5 82.5 0 0 0-5.2 27c0 20 8.2 30.1 24.7 30.1h31.1zm-.3-26.2c-1.3 2.3-3 4.1-5.3 5.3h-11.2v-5c0-11.1 3.4-16.7 10.2-16.7 2.6 0 4.6.8 6 2.4a10 10 0 0 1 2.2 6.9v3.5zm17.1 85.7c0-8.8-2.2-15.5-6.7-20a25.6 25.6 0 0 0-18.9-6.6h-31.2V1721h-15.2v14.5h-15l-2.6 20.5h17.6v22.3l15.2-2.1V1756h32c3.4 0 5.9.8 7.4 2.4 1.5 1.5 2.2 4 2.2 7.5 0 4.3-1 8.4-3.1 12.1l12.6 6.7 5.7-9.7zm-15.2 74.1c0 6-1.9 11.8-5.7 17.7l11.4 8.2c3-3.4 5.3-7.4 7-12a45.3 45.3 0 0 0-2.2-35.2 30.3 30.3 0 0 0-13.1-12.1 44.1 44.1 0 0 0-19.6-4.1 45 45 0 0 0-19.2 4 31.8 31.8 0 0 0-13.6 11.5c-3.3 5.1-5 11.1-5 18.1a33 33 0 0 0 4.4 17.2c2.9 4.9 7 8.6 12.5 11.3 5.4 2.6 12 4 19.5 4 3 0 5.5-.2 7.6-.5v-44.7l16 2zm-40.6-12.8c2.7-2.3 7-3.6 12.6-4v25.3c-11.2-.2-16.8-4.3-16.8-12.4v-5.6zm-42.6 65.3v19.5l36-2.5v-14.6zm0 24.8v19.6l36-2.4V1916l-36-2.5" fill="green" transform="matrix(0 .03623 .03623 0 -45.7 -122.7)"/>
    <path d="M4957.6 1982.7c-2 2-3 4.4-3 7.4s1 5.5 3 7.5c2.1 2 4.6 3 7.6 3s5.6-1 7.7-3c2.2-2 3.2-4.5 3.2-7.5s-1-5.4-3.2-7.4c-2.1-2-4.7-3-7.7-3h-4.4zm47 0a9.8 9.8 0 0 0-3.3 7.4c0 3 1 5.5 3.1 7.5s4.7 3 7.7 3c3.1 0 5.7-1 7.7-3s3.1-4.5 3.1-7.5-1-5.4-3-7.4c-2.1-2-4.7-3-7.8-3h-4.4" transform="matrix(0 .03623 .03623 0 -45.7 -122.7)"/>
    <path d="M4925.7 2126.4v19.5l36-2.5v-14.6zm0 24.8v19.6l36-2.4v-14.7zm6 90.4a25.2 25.2 0 0 0 22.9 14.2c5 0 9.9-1.2 14.6-3.4 4.7-2.3 10-6 15.7-11.1a303 303 0 0 0 21.6-22v38.5l15.2-2.2v-59.8h-14a621 621 0 0 1-25 24c-6 5.2-11.1 9-15.3 11.4a24 24 0 0 1-11.8 3.6c-3.9 0-6.9-1-9-3.1-2.2-2-3.3-5-3.3-9 0-3.3.8-6.3 2.4-8.8 1.6-2.5 4.2-5 7.8-7.4L4943 2194a37.2 37.2 0 0 0-11 12.8c-2.6 5-3.9 11-3.9 17.9v9.8zm9 89.7a64 64 0 0 0 35.3 8.2c15.3 0 27.1-2.7 35.5-8.2a27.2 27.2 0 0 0 12.6-24.3c0-10.7-4.2-18.7-12.6-24.2a64.5 64.5 0 0 0-35.5-8.3c-15.2 0-27 2.7-35.4 8.3a27.2 27.2 0 0 0-12.5 24.2v16zm10.2-33.8c5-2 13.4-3.1 25-3.1 12 0 20.5 1 25.5 3s7.5 5.3 7.5 9.6c0 4.4-2.5 7.6-7.5 9.6s-13.5 2.9-25.5 2.9c-11.8 0-20.2-1-25.2-3-5-2.1-7.4-5.3-7.4-9.5v-6.5zm20.5 15.5a8 8 0 0 0 5.9 2.4 8.3 8.3 0 0 0 8.5-8.6c0-2.3-.9-4.4-2.5-6a8.2 8.2 0 0 0-6-2.4 8 8 0 0 0-6 2.4 8.2 8.2 0 0 0-2.4 6v3.7zm35.1 105.8h15.2v-58.5h-15.2v21.7h-54.8l11.8-18.6-14.3-8.7-18.7 29.2v18.2h76zm12 22.4l-71.2 33.6v-39.6h-15.2v60.3h13.6l79-34.8zm-45.6 75.2v56.4h15.2v-56.4zm33.6 140h15.2V2598h-15.2v21.7h-54.8l11.8-18.6-14.3-8.7-18.7 29.2v18.2h76zm-65.8 70.9a64 64 0 0 0 35.3 8.2c15.3 0 27.1-2.7 35.5-8.2a27.2 27.2 0 0 0 12.6-24.3c0-10.7-4.2-18.7-12.6-24.2a64.5 64.5 0 0 0-35.5-8.3c-15.2 0-27 2.7-35.3 8.3a27.2 27.2 0 0 0-12.6 24.2v16zm10.2-33.8c5-2 13.4-3.1 25-3.1 12 0 20.5 1 25.5 3s7.5 5.3 7.5 9.6c0 4.4-2.5 7.6-7.5 9.6s-13.5 2.9-25.5 2.9c-11.8 0-20.2-1-25.2-3-5-2.1-7.4-5.3-7.4-9.5v-6.5zm20.5 15.5a8 8 0 0 0 5.9 2.4 8.3 8.3 0 0 0 8.5-8.6c0-2.3-.9-4.4-2.5-6a8.2 8.2 0 0 0-6-2.4 8 8 0 0 0-6 2.4 8.2 8.2 0 0 0-2.4 6v3.7zm1.5 45v56.4h15.2V2754zm33.6 140h15.2v-58.5h-15.2v21.7h-54.8l11.8-18.6-14.3-8.7-18.7 29.2v18.2h76zm-75.2 59.3c2.1 4.6 5 8.2 8.6 10.6 3.6 2.5 7.5 3.7 11.9 3.7 5.6 0 10.3-1.6 13.9-4.8 3.6-3.3 6.3-7.8 8.1-13.6 2 14.2 9.4 21.3 22.5 21.3 5.2 0 9.9-1.4 14.1-4.2 4.3-2.8 7.6-6.9 10-12.2a43.7 43.7 0 0 0 3.7-18.5c0-6.5-1.1-12.5-3.3-17.9a39 39 0 0 0-9.6-13.8l-10.9 11.6c5.8 5 8.6 11.2 8.6 18.7 0 4.6-1.2 8.3-3.5 11a12.3 12.3 0 0 1-10 4.2c-9.1 0-13.7-5-13.7-15.2v-8.2l-15.2 2.4v5.7c0 4.2-1 7.5-3 10-2.2 2.4-5.2 3.7-9 3.7a10 10 0 0 1-8.2-3.7c-2-2.4-3-5.6-3-9.5 0-6.5 2.7-12.5 8.1-18l-11.1-10.5a42.8 42.8 0 0 0-12.2 30.9v9.3zm-5.6 44.3v19.5l36-2.5V3000zm0 24.8v19.6l36-2.4v-14.7l-36-2.5" fill="green" transform="matrix(0 .03623 .03623 0 -45.7 -122.7)"/>
    <path d="M5003.2 3106.5c2.1 2 4.6 3 7.5 3 3.3 0 6.8-.8 10.5-2.4l24.5-10.6v-9.8l-25.9 6c-1-1.2-2.3-2.2-3.9-3a11.3 11.3 0 0 0-12.6 1.9 9.8 9.8 0 0 0-3.2 7.4v4.4" transform="matrix(0 .03623 .03623 0 -45.7 -122.7)"/>
    <path d="M5081.7 1492.8v19.5l36-2.5v-14.6zm0 24.8v19.6l36-2.4V1520zm-1.3 106.5h97.6V1606l-7.6-1a22.7 22.7 0 0 0 9.8-19 21 21 0 0 0-10-19 50.3 50.3 0 0 0-27.4-6.5c-7.2 0-13.6 1.1-19.2 3.4a30 30 0 0 0-13.2 9.6c-3.1 4.2-4.7 9-4.7 14.6 0 6.2 2.2 11.4 6.6 15.6h-34.1zm45.9-39.4c3.5-2 9-3.1 16.6-3.1 8.1 0 13.8 1 17 2.8 3.4 1.9 5 4.5 5 7.8 0 4.4-2.6 8.1-8 11.4h-30c-2-1.5-3.5-3-4.5-4.6-1-1.6-1.5-3.5-1.5-5.6v-5.6zm38.6 93.2c0 6-1.9 11.8-5.7 17.7l11.4 8.2c3-3.4 5.3-7.4 7-12a45.3 45.3 0 0 0-2.2-35.2 30.3 30.3 0 0 0-13.1-12.1 44.1 44.1 0 0 0-19.6-4.1 45 45 0 0 0-19.2 4 31.8 31.8 0 0 0-13.6 11.5c-3.3 5.1-5 11.1-5 18.1a33 33 0 0 0 4.4 17.2c2.9 4.9 7 8.6 12.5 11.3 5.4 2.6 12 4 19.5 4 3 0 5.5-.2 7.6-.5v-44.7l16 2zm-40.6-12.8c2.7-2.3 7-3.6 12.6-4v25.3c-11.2-.2-16.8-4.3-16.8-12.4v-5.6zm39 93.7c-1 2-2.7 3-4.9 3-1.6 0-2.8-.4-3.8-1.2-1-.8-1.9-2.4-2.8-4.6-1-2.3-2-5.8-3.3-10.6-1.9-6.9-4.4-12.2-7.7-15.8a17.3 17.3 0 0 0-13.5-5.5c-6.4 0-11.6 2.7-15.6 7.9s-6 12.6-6 22c0 11 3 20.3 8.8 28l12.3-8.2c-4-6.3-5.9-12.7-5.9-19.1 0-3.4.4-5.9 1.3-7.5a4.3 4.3 0 0 1 4-2.4c1.3 0 2.3.4 3.2 1.2.8.9 1.6 2.4 2.5 4.7.9 2.3 2 5.8 3.3 10.3 1.4 5 2.9 9 4.5 12.2 1.7 3.2 3.9 5.6 6.7 7.4 2.8 1.7 6.4 2.6 10.7 2.6 5 0 9-1.5 12.6-4.5 3.5-3 6-6.9 7.8-11.8 1.8-5 2.6-10.4 2.6-16.4 0-6.4-.9-12.2-2.8-17.4a38.4 38.4 0 0 0-7.7-13.3l-11.9 10.3c4.8 6.3 7.2 13 7.2 20.3v5.3zm0 87.3c-1 2.4-2.5 5-4.5 7.8l13 9.1a40.5 40.5 0 0 0 8.3-25.6c0-7.4-1.5-13.7-4.6-19a31 31 0 0 0-12.9-12.3c-5.5-3-11.9-4.3-19.2-4.3-7.2 0-13.7 1.4-19.4 4.4-5.7 3-10.2 7.1-13.4 12.5a42.4 42.4 0 0 0-2.8 32.8c1.4 4.1 3.5 8 6.4 11.5l12.4-8.9c-3.8-5-5.7-10.1-5.7-15.4 0-10.3 7.6-15.5 22.8-15.5 7.6 0 13 1.4 16.3 4 3.3 2.7 5 6.5 5 11.3v4zm-56 99.1l29.6-3.8v-13h-11.7c.6-3.8 2.5-7.2 5.8-10.1 3.4-3 7.6-5.3 12.6-7h19v13.8h15.1v-43.4h-15.2v9.2h-40v-9.2h-15.2v24.9l17.2 3.6c-6.3 2.5-11 5.7-14.1 9.5a21.5 21.5 0 0 0-4.7 14v6.3zm-31.7 53.6c2.2 2.2 5.1 3.4 8.5 3.4 3.5 0 6.4-1.2 8.7-3.4 2.2-2.3 3.3-5.2 3.3-8.7a11.7 11.7 0 0 0-12-12.2 11.7 11.7 0 0 0-12 12.2v5.3zm87 3.6v17.7h15.1v-57.7h-15.2v19.5h-40V1963h-15.2v39.4zm-47.2 94.4c6.4 4.1 15.5 6.2 27.4 6.2 7.2 0 13.6-1.1 19.3-3.2 5.6-2.2 10-5.2 13.2-9.2a22 22 0 0 0 4.8-14.2 21 21 0 0 0-7.1-16.4h31.8l2.3-20.5h-99v18.2l7.7.9c-3.4 2.7-6 5.7-7.6 9a22.5 22.5 0 0 0-2.5 10.1v13zm14-36.8h29.4c2 1.5 3.6 3 4.6 4.7 1 1.6 1.5 3.4 1.5 5.5 0 3.8-1.7 6.7-5.2 8.6-3.5 2-9 3-16.7 3-8.3 0-14-1-17.3-2.7a8.4 8.4 0 0 1-4.8-7.8v-6.4zm50.7 98.2c0-8.8-2.2-15.5-6.7-20a25.6 25.6 0 0 0-18.9-6.6h-31.2V2117h-15.2v14.5h-15l-2.6 20.5h17.6v22.3l15.2-2.1V2152h32c3.4 0 5.9.8 7.4 2.4 1.5 1.5 2.2 4 2.2 7.5 0 4.3-1 8.4-3.1 12.1l12.6 6.8 5.7-9.8zm-104.5 78.2c2.2 2.2 5.1 3.4 8.5 3.4 3.5 0 6.4-1.2 8.7-3.4 2.2-2.3 3.3-5.2 3.3-8.7a11.7 11.7 0 0 0-12-12.2 11.7 11.7 0 0 0-12 12.2v5.3zm87 3.6v17.7h15.1V2200h-15.2v19.5h-40v-18.9h-15.2v39.4zm-46.8 91.7c6.7 5.9 15.7 8.9 27 8.9 11.7 0 20.9-3 27.5-8.9a31.5 31.5 0 0 0 9.8-24.7c0-10.6-3.2-18.8-9.8-24.7a39.5 39.5 0 0 0-27.4-8.8 45 45 0 0 0-19.5 4 30 30 0 0 0-13 11.5c-3.1 5-4.7 11-4.7 18v15.8zm10.3-34c3.5-2 9.1-3 16.7-3 7.8 0 13.4 1 16.9 3a10 10 0 0 1 5.2 9.3 10 10 0 0 1-5.2 9.4c-3.6 2-9.2 3-17 3a35 35 0 0 1-16.6-3 10 10 0 0 1-5.2-9.4v-6.4zm-18 58.6v18l8 1.4c-3.5 3-6.1 6.4-7.8 9.8a25.8 25.8 0 0 0-2.6 11.6 18 18 0 0 0 5.5 14 22 22 0 0 0 15.4 5h51.1v-20.5h-45.2a20 20 0 0 1-9.1-1.5c-1.7-1-2.5-2.7-2.5-5.2 0-2 .7-4 2-6 1.5-2 3.5-4 6.2-6h48.6v-20.6zm-26.4 86.9v19.5l36-2.5v-14.6zm0 24.8v19.6l36-2.4v-14.7l-36-2.5" fill="green" transform="matrix(0 .03623 .03623 0 -45.7 -122.7)"/>
    <path d="M5113.6 2537c-2 2-3 4.5-3 7.5s1 5.5 3 7.5c2.1 2 4.6 3 7.6 3s5.6-1 7.7-3c2.2-2 3.2-4.5 3.2-7.5s-1-5.4-3.2-7.4c-2.1-2-4.7-3-7.7-3h-4.4zm47 0a9.8 9.8 0 0 0-3.3 7.5c0 3 1 5.5 3.1 7.5s4.7 3 7.7 3c3.1 0 5.7-1 7.7-3s3.1-4.5 3.1-7.5-1-5.4-3-7.4c-2.1-2-4.7-3-7.8-3h-4.4" transform="matrix(0 .03623 .03623 0 -45.7 -122.7)"/>
    <path d="M5108.1 2673.1v18l8 1.4c-3.5 3-6.1 6.4-7.8 9.8a25.8 25.8 0 0 0-2.6 11.6 18 18 0 0 0 5.5 14 22 22 0 0 0 15.4 5h51.1v-20.5h-45.2a20 20 0 0 1-9.1-1.5c-1.7-1-2.5-2.7-2.5-5.2 0-2 .7-4 2-6 1.5-2 3.5-4 6.2-6h48.6V2673zm47.9 99.7c3.2 0 5.5.6 6.9 1.8 1.4 1.2 2 3 2 5.3 0 2-.6 4.2-2 6.3-1.3 2.2-3.2 4-5.5 5.4H5108v20.5h69.6v-18l-7.8-.8c3.3-2.3 5.8-5.3 7.6-9.1 1.7-3.8 2.6-7.9 2.6-12.1 0-6.5-1.9-11.4-5.7-14.8-3.8-3.3-9.1-5-16-5h-50.3v20.5zm1 94.7c5.3 0 8 3 8 8.9a25 25 0 0 1-2.2 9.8l13.2 4.9a44.1 44.1 0 0 0 4.1-20c0-8-2.4-14-7-18-4.8-4.1-11.5-6.1-20-6.1h-59.4v-20.3h-15.2v40.8zm0 79.2c5.3 0 8 3 8 8.9a25 25 0 0 1-2.2 9.8l13.2 4.9a44.1 44.1 0 0 0 4.1-20c0-8-2.4-14-7-18-4.8-4.1-11.5-6.1-20-6.1h-59.4v-20.3h-15.2v40.8h78.4" fill="navy" transform="matrix(0 .03623 .03623 0 -45.7 -122.7)"/>
    <path d="M5159.2 3027.3c2.1 2 4.6 3 7.5 3 3.3 0 6.8-.8 10.5-2.4l24.5-10.6v-9.8l-25.9 6c-1-1.2-2.3-2.2-3.9-3a11.3 11.3 0 0 0-12.6 1.9 9.8 9.8 0 0 0-3.2 7.4v4.4" transform="matrix(0 .03623 .03623 0 -45.7 -122.7)"/>
    <path d="M5237.7 1492.8v19.5l36-2.5v-14.6zm0 24.8v19.6l36-2.4V1520zm26.4 46.7v18l8 1.4c-3.5 3-6.1 6.4-7.8 9.8a25.8 25.8 0 0 0-2.6 11.6 18 18 0 0 0 5.5 14 22 22 0 0 0 15.4 5h51.1v-20.5h-45.2a20 20 0 0 1-9.1-1.5c-1.7-1-2.5-2.7-2.5-5.2 0-2 .7-4 2-6 1.5-2 3.5-4 6.2-6h48.6v-20.6zm55.2 138.3c1.2.7 2.2 2 2.8 3.6l13.8-4.3c-.5-4.2-1.4-7.7-2.9-10.4-1.4-2.8-3.6-5-6.4-6.5 3-2.6 5.4-6 7-9.9 1.7-4 2.5-8.2 2.5-12.8 0-7-2-12.7-6-17-4.1-4.2-9.4-6.4-15.9-6.4-7.5 0-13.3 3-17.5 8.9a42.7 42.7 0 0 0-6.2 24.8v9.2h-2.5c-7.4 0-11-4.5-11-13.6a69.8 69.8 0 0 1 3.9-19l-14-4.7a82.5 82.5 0 0 0-5.2 27c0 20 8.2 30.1 24.7 30.1h31.1zm-.3-26.1c-1.3 2.3-3 4.1-5.3 5.3h-11.2v-5c0-11.1 3.4-16.7 10.2-16.7 2.6 0 4.6.8 6 2.4a10 10 0 0 1 2.2 6.9v3.5zm-52.4 108.2c3.3 2.3 8.5 3.4 15.6 3.4h51.5v-17.5h-50c-2.6 0-4.3-.3-5.3-.8s-1.5-1.4-1.5-2.7c0-2.4 1.6-4.8 4.7-7h52.1v-14.7h-50c-2.6 0-4.3-.2-5.3-.7-1-.5-1.5-1.3-1.5-2.6 0-2.5 1.6-4.8 4.7-7.2h52.1v-17.8h-69.6v15l6.3 1.4c-3 2.3-5.2 4.5-6.6 6.7-1.4 2.2-2 4.8-2 7.7 0 2.7.6 5 1.9 6.8 1.3 1.8 3.3 3.1 6 3.9-5.3 4.7-8 9.7-8 15.2v7.4zm54.3 51.6c0 6-1.9 11.8-5.7 17.7l11.4 8.2c3-3.4 5.3-7.4 7-12a45.3 45.3 0 0 0-2.2-35.2 30.3 30.3 0 0 0-13.1-12.1 44.1 44.1 0 0 0-19.6-4.1 45 45 0 0 0-19.2 4 31.8 31.8 0 0 0-13.6 11.5c-3.3 5.1-5 11.1-5 18.1a33 33 0 0 0 4.4 17.2c2.9 4.9 7 8.6 12.5 11.3 5.4 2.6 12 4 19.5 4 3 0 5.5-.2 7.6-.5v-44.7l16 2zm-40.6-12.8c2.7-2.3 7-3.6 12.6-4v25.3c-11.2-.2-16.8-4.3-16.8-12.4v-5.6zm-42.6 65.3v19.5l36-2.5v-14.6zm0 24.8v19.6l36-2.4V1916l-36-2.5" fill="green" transform="matrix(0 .03623 .03623 0 -45.7 -122.7)"/>
    <path d="M5269.6 1982.7c-2 2-3 4.4-3 7.4s1 5.5 3 7.5c2.1 2 4.6 3 7.6 3s5.6-1 7.7-3c2.2-2 3.2-4.5 3.2-7.5s-1-5.4-3.2-7.4c-2.1-2-4.7-3-7.7-3h-4.4zm47 0a9.8 9.8 0 0 0-3.3 7.4c0 3 1 5.5 3.1 7.5s4.7 3 7.7 3c3.1 0 5.7-1 7.7-3s3.1-4.5 3.1-7.5-1-5.4-3-7.4c-2.1-2-4.7-3-7.8-3h-4.4" transform="matrix(0 .03623 .03623 0 -45.7 -122.7)"/>
    <path d="M5237.7 2126.4v19.5l36-2.5v-14.6zm0 24.8v19.6l36-2.4v-14.7zm96 87.1V2217h-74.4v-25.4h-15.2v73l15.2-2v-24.3zm-62 93.4c6.8 5.9 15.8 8.9 27 8.9 11.8 0 21-3 27.6-8.9a31.5 31.5 0 0 0 9.8-24.7c0-10.6-3.2-18.8-9.8-24.7a39.4 39.4 0 0 0-27.4-8.8 45 45 0 0 0-19.5 4 30 30 0 0 0-13 11.5c-3.1 5-4.7 11-4.7 18v15.8zm10.4-34c3.5-2 9.1-3 16.7-3 7.8 0 13.4 1 16.9 3a10 10 0 0 1 5.2 9.3 10 10 0 0 1-5.2 9.4c-3.6 2-9.2 3-17 3a35 35 0 0 1-16.6-3 10 10 0 0 1-5.2-9.4v-6.4zm-15.5 120.6c3.3 2.3 8.5 3.4 15.6 3.4h51.5v-17.5h-50c-2.6 0-4.3-.3-5.3-.8s-1.5-1.4-1.5-2.7c0-2.4 1.6-4.7 4.7-7h52.1V2379h-50c-2.6 0-4.3-.2-5.3-.7-1-.5-1.5-1.3-1.5-2.6 0-2.5 1.6-4.8 4.7-7.2h52.1v-17.8h-69.6v15l6.3 1.4c-3 2.3-5.2 4.5-6.6 6.7-1.4 2.2-2 4.8-2 7.7 0 2.7.6 5 1.9 6.8 1.3 1.8 3.3 3.1 6 3.9-5.3 4.7-8 9.7-8 15.2v7.4zm52.7 76.4c1.2.7 2.2 1.8 2.8 3.5l13.8-4.3c-.5-4.2-1.4-7.6-2.9-10.4-1.4-2.8-3.6-5-6.4-6.5 3-2.6 5.4-6 7-9.9 1.7-4 2.5-8.2 2.5-12.8 0-7-2-12.7-6-17-4.1-4.2-9.4-6.4-15.9-6.4-7.5 0-13.3 3-17.5 8.9a42.7 42.7 0 0 0-6.2 24.8v9.2h-2.5c-7.4 0-11-4.5-11-13.6a69.8 69.8 0 0 1 3.9-19l-14-4.7a82.5 82.5 0 0 0-5.2 27c0 20 8.2 30.1 24.7 30.1h31.1zm-.3-26.2c-1.3 2.3-3 4.1-5.3 5.3h-11.2v-5c0-11.1 3.4-16.7 10.2-16.7 2.6 0 4.6.8 6 2.4a10 10 0 0 1 2.2 6.9v3.5zm17.1 85.7c0-8.8-2.2-15.5-6.7-20a25.6 25.6 0 0 0-18.9-6.6h-31.2V2513h-15.2v14.5h-15l-2.6 20.5h17.6v22.3l15.2-2.1V2548h32c3.4 0 5.9.8 7.4 2.4 1.5 1.5 2.2 4 2.2 7.5 0 4.3-1 8.4-3.1 12.1l12.6 6.8 5.7-9.8zm-15.2 74.1c0 6-1.9 11.8-5.7 17.7l11.4 8.2c3-3.4 5.3-7.4 7-12a45.3 45.3 0 0 0-2.2-35.2 30.3 30.3 0 0 0-13.1-12.1 44.1 44.1 0 0 0-19.6-4.1 45 45 0 0 0-19.2 4 31.9 31.9 0 0 0-13.6 11.5c-3.3 5.1-5 11.1-5 18.1a33 33 0 0 0 4.4 17.2c2.9 4.9 7 8.6 12.5 11.3 5.4 2.6 12 4 19.5 4 3 0 5.5-.2 7.6-.5v-44.7l16 2zm-40.6-12.8c2.7-2.3 7-3.6 12.6-4v25.3c-11.2-.2-16.8-4.3-16.8-12.4v-5.6zM5264 2673v18l8 1.4c-3.5 3-6.1 6.4-7.8 9.8a25.8 25.8 0 0 0-2.6 11.6 18 18 0 0 0 5.5 14 22 22 0 0 0 15.4 5h51.1v-20.5h-45.2a20 20 0 0 1-9.1-1.5c-1.7-1-2.5-2.7-2.5-5.2 0-2 .7-4 2-6 1.5-2 3.5-4 6.2-6h48.6V2673zm55.2 115.3c-1 2-2.7 3-4.9 3-1.6 0-2.8-.4-3.8-1.2-1-.8-1.9-2.4-2.8-4.6-1-2.3-2-5.8-3.3-10.6-1.9-6.9-4.4-12.2-7.7-15.8a17.3 17.3 0 0 0-13.5-5.5c-6.4 0-11.6 2.7-15.6 7.9s-6 12.6-6 22c0 11 3 20.3 8.8 28l12.3-8.2c-4-6.3-5.9-12.7-5.9-19.1 0-3.4.4-5.9 1.3-7.5a4.3 4.3 0 0 1 4-2.4c1.3 0 2.3.4 3.2 1.2a14 14 0 0 1 2.5 4.7c.9 2.3 2 5.8 3.3 10.3 1.4 5 2.9 9 4.5 12.2 1.7 3.2 3.9 5.6 6.7 7.4 2.8 1.7 6.4 2.6 10.7 2.6 5 0 9-1.5 12.6-4.5 3.5-3 6-6.9 7.8-11.8 1.8-5 2.6-10.4 2.6-16.4 0-6.4-.9-12.2-2.8-17.4a38.5 38.5 0 0 0-7.7-13.3l-11.9 10.3c4.8 6.3 7.2 13 7.2 20.3v5.3zm0 102.3c1.3.7 2.2 1.8 2.8 3.5l13.8-4.3c-.4-4.2-1.4-7.6-2.9-10.4-1.4-2.8-3.6-5-6.4-6.5 3-2.6 5.4-6 7-9.9 1.7-4 2.5-8.2 2.5-12.8 0-7-2-12.7-6-17-4.1-4.2-9.4-6.4-15.9-6.4-7.5 0-13.3 3-17.4 8.9a42.7 42.7 0 0 0-6.3 24.8v9.2h-2.5c-7.4 0-11-4.5-11-13.6a69.8 69.8 0 0 1 3.9-19l-14-4.7a83 83 0 0 0-5.2 27c0 20 8.3 30.1 24.7 30.1h31.1zm-.3-26.2c-1.3 2.3-3 4.1-5.3 5.3h-11.2v-5c0-11.1 3.4-16.7 10.2-16.7 2.6 0 4.6.8 6 2.4a10 10 0 0 1 2.2 6.9v3.5zm-7 66.7c3.2 0 5.5.6 6.9 1.8 1.4 1.2 2 3 2 5.3 0 2-.6 4.2-2 6.3-1.3 2.2-3.2 4-5.5 5.4H5264v20.5h69.6v-18l-7.8-.8c3.3-2.3 5.8-5.3 7.6-9.1 1.7-3.8 2.6-7.9 2.6-12.1 0-6.5-1.9-11.4-5.7-14.8-3.8-3.3-9.1-5-16-5h-50.3v20.5zm7.4 103c-1 2.3-2.6 5-4.6 7.7l13 9.1a40.5 40.5 0 0 0 8.3-25.6c0-7.4-1.5-13.7-4.6-19a31 31 0 0 0-12.8-12.3c-5.6-3-12-4.3-19.2-4.3-7.3 0-13.8 1.4-19.5 4.4-5.7 3-10.2 7.1-13.4 12.5a42.4 42.4 0 0 0-2.8 32.8c1.4 4.1 3.5 8 6.4 11.5l12.4-8.8c-3.8-5-5.7-10.2-5.7-15.5 0-10.3 7.6-15.5 22.8-15.5 7.6 0 13 1.4 16.3 4 3.3 2.7 5 6.5 5 11.4v3.9zm1.5 69.3c0 6-1.9 11.8-5.7 17.7l11.4 8.2c3-3.4 5.3-7.4 7-12a45.3 45.3 0 0 0-2.2-35.2 30.3 30.3 0 0 0-13.1-12.1 44.1 44.1 0 0 0-19.6-4.1 45 45 0 0 0-19.2 4 31.9 31.9 0 0 0-13.6 11.5c-3.3 5.1-5 11.1-5 18.1a33 33 0 0 0 4.4 17.2c2.9 4.9 7 8.6 12.5 11.3 5.5 2.6 12 4 19.5 4 3 0 5.5-.2 7.6-.5V3087l16 2zm-40.6-12.8c2.7-2.3 7-3.6 12.6-4v25.3c-11.2-.2-16.8-4.3-16.8-12.4v-5.5zm-13.7 198.8c3.3 2.3 8.5 3.4 15.6 3.4h51.5v-17.5h-50c-2.6 0-4.3-.3-5.3-.8s-1.5-1.3-1.5-2.6c0-2.5 1.6-4.8 4.7-7.2h52.1v-14.6h-50c-2.6 0-4.3-.2-5.3-.7-1-.4-1.5-1.3-1.5-2.6 0-2.5 1.6-4.8 4.7-7.2h52.1V3222h-69.6v15l6.3 1.4c-3 2.3-5.2 4.5-6.6 6.7-1.4 2.2-2 4.8-2 7.7 0 2.7.6 5 1.9 6.8 1.3 1.8 3.3 3.1 6 3.9-5.3 4.7-8 9.7-8 15.2v7.4zm-35 55.7c2.2 2.2 5.1 3.4 8.5 3.4 3.5 0 6.4-1.2 8.7-3.4 2.2-2.3 3.3-5.2 3.3-8.7a11.7 11.7 0 0 0-12-12.2 11.7 11.7 0 0 0-12 12.2v5.3zm87 3.6v17.7h15.1v-57.7h-15.2v19.5h-40v-18.9h-15.2v39.4zm17.5 76.6c0-8.8-2.2-15.5-6.7-20a25.6 25.6 0 0 0-18.9-6.6h-31.2v-14.5h-15.2v14.5h-15l-2.6 20.5h17.6v22.3l15.2-2.1v-20.2h32c3.4 0 5.9.8 7.4 2.4 1.5 1.5 2.2 4 2.2 7.5 0 4.3-1 8.4-3.1 12.1l12.6 6.8 5.7-9.8zm-13.7 179.2c4.4-3 7.8-7.2 10.1-12.7 2.4-5.5 3.6-12 3.6-19.5 0-15-4-26.8-12.2-35.6l-12.1 10.7c6 6.9 9.1 15 9.1 24.4 0 4.5-1 8-3 10.8-1.9 2.7-4.6 4.1-8 4.1-3.4 0-6-1.1-7.9-3.4a40.3 40.3 0 0 1-5.6-12.8c-3.2-10.6-7-18.1-11.4-22.5-4.4-4.5-10-6.7-16.9-6.7a23 23 0 0 0-14 4.5c-4.1 3-7.1 7.1-9.2 12.3-2.1 5.1-3.2 10.8-3.2 17.2 0 13.2 3.8 24 11.4 32.2l11.9-10a31.6 31.6 0 0 1-8-20.7c0-4.1.7-7.4 2.2-9.8a7.4 7.4 0 0 1 6.6-3.5c2 0 3.5.5 4.8 1.6 1.3 1 2.6 2.8 3.7 5.4 1.1 2.5 2.5 6.3 4 11.3 2.8 9.2 6.4 16 10.8 20.4a24.5 24.5 0 0 0 18.3 6.7h8.5zm-3 78c1.2.8 2 2 2.7 3.6l13.8-4.3c-.4-4.2-1.4-7.6-2.9-10.4-1.4-2.8-3.6-5-6.4-6.5 3-2.6 5.4-6 7-9.9 1.7-4 2.5-8.2 2.5-12.8 0-7-2-12.7-6-17-4.1-4.2-9.4-6.4-15.9-6.4-7.5 0-13.3 3-17.4 8.9a42.7 42.7 0 0 0-6.3 24.8v9.2h-2.5c-7.4 0-11-4.5-11-13.6a69.8 69.8 0 0 1 3.9-19l-14-4.7a83 83 0 0 0-5.2 27c0 20 8.3 30.1 24.7 30.1h31.1zm-.4-26.1c-1.3 2.3-3 4.1-5.3 5.3h-11.2v-5c0-11.1 3.4-16.7 10.2-16.7 2.6 0 4.6.8 6 2.4a10 10 0 0 1 2.2 6.9v3.5zm-6 82.2c5.3 0 8 3 8 8.9 0 3.2-.8 6.5-2.2 9.8l13.2 4.9a44.2 44.2 0 0 0 4.1-20c0-8-2.3-14-7-18-4.8-4.1-11.5-6.1-20-6.1h-59.4v-20.3h-15.2v40.8zm6.3 102.4c1.3.7 2.2 1.8 2.8 3.5l13.8-4.3c-.4-4.2-1.4-7.6-2.9-10.4-1.4-2.8-3.6-5-6.4-6.5 3-2.6 5.4-6 7-9.9 1.7-4 2.5-8.2 2.5-12.8 0-7-2-12.7-6-17-4.1-4.2-9.4-6.4-15.9-6.4-7.5 0-13.3 3-17.4 8.9a42.7 42.7 0 0 0-6.3 24.8v9.2h-2.5c-7.4 0-11-4.5-11-13.6a69.8 69.8 0 0 1 3.9-19l-14-4.7a83 83 0 0 0-5.2 27c0 20 8.3 30.1 24.7 30.1h31.1zm-.3-26.2c-1.3 2.3-3 4.1-5.3 5.3h-11.2v-5c0-11.1 3.4-16.7 10.2-16.7 2.6 0 4.6.8 6 2.4a10 10 0 0 1 2.2 6.9v3.5zm-52.4 108.2c3.3 2.3 8.5 3.4 15.6 3.4h51.5V3909h-50c-2.6 0-4.3-.3-5.3-.8s-1.5-1.3-1.5-2.6c0-2.5 1.6-4.8 4.7-7.2h52.1v-14.6h-50c-2.6 0-4.3-.2-5.3-.7-1-.4-1.5-1.3-1.5-2.6 0-2.5 1.6-4.8 4.7-7.2h52.1v-17.8h-69.6v15l6.3 1.4c-3 2.3-5.2 4.5-6.6 6.7-1.4 2.2-2 4.8-2 7.7 0 2.7.6 5 1.9 6.8 1.3 1.8 3.3 3.1 6 3.9-5.3 4.7-8 9.7-8 15.2v7.4zm-35 55.7c2.2 2.2 5.1 3.4 8.5 3.4 3.5 0 6.4-1.2 8.7-3.4 2.2-2.3 3.3-5.2 3.3-8.7a11.7 11.7 0 0 0-12-12.2 11.7 11.7 0 0 0-12 12.2v5.3zm87 3.6v17.7h15.1v-57.7h-15.2v19.5h-40V3943h-15.2v39.4zm-7.3 77.1c2.7 2.7 6 4 10 4 2.4 0 4.8-.3 7.1-1 2.4-.9 6-2.3 10.7-4.5l21-9.4V4035l-27.3 6.6c-1.2-2-2.8-3.4-4.8-4.5-2-1-4.3-1.6-6.8-1.6a13.6 13.6 0 0 0-13.8 14v6.1zm-16.6 174.6c5.2-6.3 7.8-15 7.8-26v-9.9h30v-21.3h-90.8v28.3a47 47 0 0 0 7.5 28.6c5 6.6 12.4 9.9 22.3 9.9h15.4zm-37.8-28.5v-7.4h30.4v8.4c0 4.9-1.3 8.6-3.8 11.3-2.6 2.6-6.6 4-12 4H5257zm-17.9 119.1l13.4-5.7a38.7 38.7 0 0 1-2.7-14.7c0-4 .8-7 2.2-8.8 1.4-1.8 3.8-2.6 7.2-2.6h9v22.5l15.2-2.4v-20.1h50.4v-20.4h-50.4v-14.6h-15.2v14.6h-9.7a22 22 0 0 0-17.2 7.4c-4.4 5-6.7 12-6.7 21.2v13.2zm82 46c0 6-2 11.8-5.8 17.7l11.4 8.2c3-3.4 5.3-7.4 7-12a45.3 45.3 0 0 0-2.2-35.2 30.3 30.3 0 0 0-13.1-12.1 44.1 44.1 0 0 0-19.6-4.1 45 45 0 0 0-19.2 4 31.9 31.9 0 0 0-13.6 11.5c-3.3 5.1-5 11.1-5 18.1a33 33 0 0 0 4.4 17.2c2.9 4.9 7 8.6 12.5 11.3 5.5 2.6 12 4 19.5 4 3 0 5.5-.2 7.6-.5v-44.7l16 2zm-40.7-12.8c2.7-2.3 7-3.6 12.6-4v25.3c-11.2-.2-16.8-4.3-16.8-12.4v-5.5zM5239 4483l13.4-5.7a38.7 38.7 0 0 1-2.7-14.7c0-4 .8-7 2.2-8.8 1.4-1.8 3.8-2.6 7.2-2.6h9v22.5l15.2-2.4v-20.1h50.4v-20.4h-50.4v-14.6h-15.2v14.6h-9.7a22 22 0 0 0-17.2 7.4c-4.4 5-6.7 12-6.7 21.2v13.2zm0 79.2l13.4-5.7a38.7 38.7 0 0 1-2.7-14.7c0-4 .8-7 2.2-8.8 1.4-1.8 3.8-2.6 7.2-2.6h9v22.5l15.2-2.4v-20.1h50.4V4510h-50.4v-14.6h-15.2v14.6h-9.7a22 22 0 0 0-17.2 7.4c-4.4 5-6.7 12-6.7 21.2v13.2zm82 46c0 6-2 11.8-5.8 17.7l11.4 8.2c3-3.4 5.3-7.4 7-12a45.3 45.3 0 0 0-2.2-35.2 30.3 30.3 0 0 0-13.1-12.1 44.1 44.1 0 0 0-19.6-4.1 45 45 0 0 0-19.2 4 31.9 31.9 0 0 0-13.6 11.5c-3.3 5.1-5 11.1-5 18.1a33 33 0 0 0 4.4 17.2c2.9 4.9 7 8.6 12.5 11.3 5.5 2.6 12 4 19.5 4 3 0 5.5-.2 7.6-.5v-44.7l16 2zm-40.7-12.8c2.7-2.3 7-3.6 12.6-4v25.3c-11.2-.2-16.8-4.3-16.8-12.4v-5.5zm-17 121.7l29.6-3.8v-13h-11.7c.6-3.8 2.5-7.2 5.8-10.1 3.4-3 7.6-5.3 12.6-7h19v13.8h15.1v-43.3h-15.2v9h-40v-9h-15.2v24.8l17.2 3.6c-6.3 2.5-11 5.7-14.1 9.5a21.5 21.5 0 0 0-4.7 14v6.3zm8.5 69.7c6.7 5.9 15.7 8.9 27 8.9 11.7 0 20.9-3 27.5-8.9a31.5 31.5 0 0 0 9.8-24.7c0-10.6-3.2-18.8-9.8-24.7a39.5 39.5 0 0 0-27.4-8.8 45 45 0 0 0-19.5 4 30 30 0 0 0-13 11.5c-3.1 5-4.7 11-4.7 18v15.8zm10.3-34c3.5-2 9.1-3 16.7-3 7.8 0 13.4 1 16.9 3a10 10 0 0 1 5.2 9.3 10 10 0 0 1-5.2 9.4c-3.6 2-9.2 3-17 3a35 35 0 0 1-16.6-3 10 10 0 0 1-5.2-9.4v-6.4zm-18 58.6v18l8 1.4c-3.5 3-6.1 6.4-7.8 9.8a25.8 25.8 0 0 0-2.6 11.6 18 18 0 0 0 5.5 14 22 22 0 0 0 15.4 5h51.1v-20.5h-45.2a20 20 0 0 1-9.1-1.5c-1.7-1-2.5-2.7-2.5-5.2 0-2 .7-4 2-6 1.5-2 3.5-4 6.2-6h48.6v-20.6zm-32.6 117.7c2.3 2.2 5.2 3.4 8.6 3.4 3.5 0 6.4-1.2 8.6-3.4 2.3-2.3 3.4-5.2 3.4-8.7a11.7 11.7 0 0 0-12-12.2 11.7 11.7 0 0 0-12 12.2v5.3zm87 3.6v17.7h15.2v-57.7h-15.2v19.5h-40v-18.9h-15.2v39.4zm-6.5 136.8c3.2 0 5.5.6 6.9 1.8 1.3 1.2 2 3 2 5.3 0 2-.6 4.2-2 6.3-1.3 2.2-3.2 4-5.5 5.4H5264v20.5h69.6v-18l-7.8-.8c3.3-2.3 5.8-5.3 7.6-9.1 1.7-3.8 2.6-7.9 2.6-12.1 0-6.5-1.9-11.4-5.7-14.8-3.8-3.3-9.1-5-16-5h-50.3v20.5zm-47.9 58.7v18l8 1.4c-3.5 3-6.1 6.4-7.8 9.8a25.8 25.8 0 0 0-2.6 11.6 18 18 0 0 0 5.5 14 22 22 0 0 0 15.4 5h51.1v-20.5h-45.2a20 20 0 0 1-9.1-1.5c-1.7-1-2.5-2.7-2.5-5.2 0-2 .7-4 2-6 1.5-2 3.5-4 6.2-6h48.6v-20.6zm-27.7 139h97.5v-18.2l-7.5-1a22.7 22.7 0 0 0 9.8-19 21 21 0 0 0-10-19 50.3 50.3 0 0 0-27.4-6.5c-7.2 0-13.6 1.1-19.2 3.4a30 30 0 0 0-13.2 9.6c-3.1 4.2-4.7 9-4.7 14.6 0 6.2 2.2 11.4 6.5 15.6h-34zm45.8-39.4c3.6-2 9.2-3.1 16.7-3.1 8.1 0 13.8 1 17 2.8 3.4 1.9 5 4.5 5 7.9 0 4.3-2.6 8-8 11.3h-30c-2-1.5-3.5-3-4.5-4.6-1-1.6-1.5-3.5-1.5-5.6v-5.6zm-2 162.3v31.2h15.1v-31.2h23.2v37.6h15.2v-59h-91.2v59l15.2-2.2v-35.4zm-13.6 116.9c3.3 2.3 8.5 3.4 15.6 3.4h51.5V5493h-50c-2.6 0-4.4-.3-5.3-.8-1-.5-1.5-1.3-1.5-2.6 0-2.5 1.6-4.8 4.7-7.2h52.1v-14.6h-50c-2.6 0-4.4-.2-5.3-.7-1-.4-1.5-1.3-1.5-2.6 0-2.5 1.6-4.8 4.7-7.2h52.1v-17.8h-69.6v15l6.3 1.4c-3 2.3-5.2 4.5-6.6 6.7-1.4 2.2-2 4.8-2 7.7 0 2.7.6 5 1.9 6.8 1.3 1.8 3.3 3.1 6 3.9-5.3 4.7-8 9.7-8 15.2v7.4zm0 79.2c3.3 2.3 8.5 3.4 15.6 3.4h51.5v-17.5h-50c-2.6 0-4.4-.3-5.3-.8-1-.5-1.5-1.3-1.5-2.6 0-2.5 1.6-4.8 4.7-7.2h52.1V5547h-50c-2.6 0-4.4-.2-5.3-.7-1-.4-1.5-1.3-1.5-2.6 0-2.5 1.6-4.8 4.7-7.2h52.1v-17.8h-69.6v15l6.3 1.4c-3 2.3-5.2 4.5-6.6 6.7-1.4 2.2-2 4.8-2 7.7 0 2.7.6 5 1.9 6.8 1.3 1.8 3.3 3.1 6 3.9-5.3 4.7-8 9.7-8 15.2v7.4zm54.3 51.6c0 6-1.9 11.8-5.7 17.7l11.4 8.2c3-3.4 5.3-7.4 7-12a45.3 45.3 0 0 0-2.2-35.2 30.3 30.3 0 0 0-13.1-12.1 44.1 44.1 0 0 0-19.6-4.1 45 45 0 0 0-19.2 4 31.8 31.8 0 0 0-13.6 11.5c-3.3 5.1-5 11.1-5 18.1a33 33 0 0 0 4.4 17.2c2.8 4.9 7 8.6 12.5 11.3 5.4 2.6 12 4 19.5 4 3 0 5.5-.2 7.6-.5v-44.7l16 2zm-40.7-12.8c2.8-2.3 7-3.6 12.7-4v25.3c-11.2-.2-16.8-4.3-16.8-12.4v-5.5zm-16 57.6v18l7.8 1.4c-3.4 3-6 6.4-7.7 9.8a25.8 25.8 0 0 0-2.6 11.6 18 18 0 0 0 5.5 14 22 22 0 0 0 15.4 5h51.1V5722h-45.2a20 20 0 0 1-9.1-1.5c-1.7-1-2.5-2.7-2.5-5.2 0-2 .7-4 2-6 1.5-2 3.5-4 6.2-6h48.6v-20.6zm72 118.7c0-8.8-2.3-15.5-6.8-20a25.6 25.6 0 0 0-18.9-6.6h-31.2v-14.5h-15.2v14.5h-15l-2.6 20.5h17.6v22.3l15.2-2.1v-20.2h32c3.4 0 5.9.8 7.4 2.4 1.5 1.5 2.2 4 2.2 7.5 0 4.3-1 8.4-3.2 12.1l12.7 6.8 5.7-9.8zm-16.9 98.9c1.2.7 2.2 1.8 2.8 3.5l13.8-4.3c-.5-4.2-1.4-7.6-2.9-10.4-1.4-2.8-3.6-5-6.4-6.5 3-2.6 5.4-5.9 7-9.9 1.7-4 2.5-8.2 2.5-12.8 0-7-2-12.7-6-17-4.1-4.2-9.4-6.4-15.9-6.4-7.5 0-13.3 3-17.5 8.9a42.7 42.7 0 0 0-6.2 24.8v9.2h-2.5c-7.4 0-11-4.5-11-13.6a69.8 69.8 0 0 1 3.9-19l-14-4.7a82.5 82.5 0 0 0-5.2 27c0 20 8.2 30.1 24.7 30.1h31.1zm-.3-26.2c-1.3 2.4-3 4.1-5.3 5.3h-11.2v-5c0-11.1 3.4-16.7 10.2-16.7 2.6 0 4.6.8 6 2.5a10 10 0 0 1 2.2 6.8v3.5zm-6 82.2c5.3 0 8 3 8 8.9a25 25 0 0 1-2.2 9.8l13.2 4.9a44.1 44.1 0 0 0 4.1-20c0-8-2.4-14-7-18-4.8-4.1-11.5-6.1-20-6.1h-59.4v-20.3h-15.2v40.8zm8 77.6c0 6-2 11.8-5.8 17.7l11.4 8.2c3-3.4 5.3-7.4 7-12a45.3 45.3 0 0 0-2.2-35.2 30.3 30.3 0 0 0-13.1-12.1 44.1 44.1 0 0 0-19.6-4.1 45 45 0 0 0-19.2 4 31.8 31.8 0 0 0-13.6 11.5c-3.3 5.1-5 11.1-5 18.1a33 33 0 0 0 4.4 17.2c2.8 4.9 7 8.6 12.5 11.3 5.4 2.6 12 4 19.5 4 3 0 5.5-.2 7.6-.5v-44.7l16 2zm-40.8-12.8c2.8-2.3 7-3.6 12.7-4v25.3c-11.2-.2-16.8-4.3-16.8-12.4v-5.5zm-16.9 121.7l29.6-3.8v-13h-11.7c.6-3.8 2.5-7.2 5.8-10.1 3.4-3 7.5-5.3 12.6-7h19v13.8h15.1v-43.3h-15.2v9h-40v-9h-15.2v24.8l17.2 3.6c-6.3 2.5-11 5.7-14.1 9.5a21.5 21.5 0 0 0-4.7 14v6.3zm-25.6 22.8v19.5l36-2.5V6168zm0 24.8v19.6l36-2.4v-14.7l-36-2.5" fill="green" transform="matrix(0 .03623 .03623 0 -45.7 -122.7)"/>
    <path d="M5315.2 6274.5c2.1 2 4.6 3 7.5 3 3.3 0 6.8-.8 10.5-2.4l24.5-10.6v-9.8l-25.9 6c-1-1.1-2.3-2.1-3.9-3a11.2 11.2 0 0 0-12.6 1.9 9.8 9.8 0 0 0-3.2 7.4v4.4" transform="matrix(0 .03623 .03623 0 -45.7 -122.7)"/>
    <path d="M5393.7 1492.8v19.5l36-2.5v-14.6zm0 24.8v19.6l36-2.4V1520zm96 88.8v-24.2l-69.6-23.2v22.2l54 13.4-54 14v20.8zM5477 1678c0 6-1.9 11.8-5.7 17.7l11.4 8.2c3-3.4 5.3-7.4 7-12a45.3 45.3 0 0 0-2.2-35.2 30.3 30.3 0 0 0-13.1-12.1 44.1 44.1 0 0 0-19.6-4.1 45 45 0 0 0-19.2 4 31.8 31.8 0 0 0-13.6 11.5c-3.3 5.1-5 11.1-5 18.1a33 33 0 0 0 4.4 17.2c2.9 4.9 7 8.6 12.5 11.3 5.4 2.6 12 4 19.5 4 3 0 5.5-.2 7.6-.5v-44.7l16 2zm-40.6-12.8c2.7-2.3 7-3.6 12.6-4v25.3c-11.2-.2-16.8-4.3-16.8-12.4v-5.6zm-16.2 57.6v18l8 1.4c-3.5 3-6.1 6.4-7.8 9.8a25.8 25.8 0 0 0-2.6 11.6 18 18 0 0 0 5.5 14 22 22 0 0 0 15.4 5h51.1V1762h-45.2a20 20 0 0 1-9.1-1.5c-1.7-1-2.5-2.7-2.5-5.2 0-2 .7-4 2-6 1.5-2 3.5-4 6.2-6h48.6v-20.6zm47.9 99.7c3.2 0 5.5.6 6.9 1.8 1.4 1.2 2 3 2 5.3 0 2-.6 4.2-2 6.3-1.3 2.2-3.2 4-5.5 5.4H5420v20.5h69.6v-18l-7.8-.8c3.3-2.3 5.8-5.3 7.6-9.1 1.7-3.8 2.6-7.9 2.6-12.1 0-6.5-1.9-11.4-5.7-14.8-3.8-3.3-9.1-5-16-5h-50.3v20.5zm9 93.1c0 6-2 11.8-5.8 17.7l11.4 8.2c3-3.4 5.3-7.4 7-12a45.3 45.3 0 0 0-2.2-35.2 30.3 30.3 0 0 0-13.1-12.1 44.1 44.1 0 0 0-19.6-4.1 45 45 0 0 0-19.2 4 31.8 31.8 0 0 0-13.6 11.5c-3.3 5.1-5 11.1-5 18.1a33 33 0 0 0 4.4 17.2c2.9 4.9 7 8.6 12.5 11.3 5.4 2.6 12 4 19.5 4 3 0 5.5-.2 7.6-.5V1899l16 2zm-40.7-12.8c2.7-2.3 7-3.6 12.6-4v25.3c-11.2-.2-16.8-4.3-16.8-12.4v-5.5zm-42.6 65.3v19.5l36-2.5v-14.6zm0 24.8v19.6l36-2.4v-14.7l-36-2.5" fill="green" transform="matrix(0 .03623 .03623 0 -45.7 -122.7)"/>
    <path d="M5425.6 2061.9c-2 2-3 4.4-3 7.4s1 5.5 3 7.5c2.1 2 4.6 3 7.6 3s5.6-1 7.7-3c2.2-2 3.2-4.5 3.2-7.5s-1-5.4-3.2-7.4c-2.1-2-4.7-3-7.7-3h-4.4zm47 0a9.8 9.8 0 0 0-3.3 7.4c0 3 1 5.5 3.1 7.5s4.7 3 7.7 3c3.1 0 5.7-1 7.7-3s3.1-4.5 3.1-7.5-1-5.4-3-7.4c-2.1-2-4.7-3-7.8-3h-4.4" transform="matrix(0 .03623 .03623 0 -45.7 -122.7)"/>
    <path d="M5480.8 2256h9v-51.6h-9v22h-67.4l12.1-20.4-7.5-4.9-17 26.7v9.6h79.8v18.6" fill="#00f" transform="matrix(0 .03623 .03623 0 -45.7 -122.7)"/>
    <path d="M5540 1356c2.8 5 7.4 7.5 14 7.5l2.6-.1 25.3-2.8 2-.1c3.8 0 6.7 1.5 8.6 4.6 1.9 3 2.8 8.2 2.8 15.3h9c0-7.2.9-12.3 2.8-15.3s4.8-4.6 8.7-4.6l2 .1 24.5 2.7 2.6.2c6.4 0 11-2.5 13.6-7.4a40 40 0 0 0 4-19.1h-9a27 27 0 0 1-2.2 12.3c-1.6 3-4.2 4.3-8 4l-26.3-2.7-3.5-.2c-4.3 0-7.4 1-9.5 3.2-2 2.2-3.4 5.7-4.1 10.5-.9-4.6-2.4-8-4.7-10.3-2.2-2.2-5.4-3.3-9.7-3.3l-3.3.1-26.8 2.6c-7 .7-10.5-4.7-10.5-16.2h-8.9v11.7M5627.2 1443.3c2.1 2 4.6 3 7.5 3 3.3 0 6.8-.8 10.5-2.4l24.5-10.6v-9.8l-25.9 6c-1-1.2-2.3-2.2-3.9-3a11.3 11.3 0 0 0-12.6 1.9 9.8 9.8 0 0 0-3.2 7.4v4.4M5701 1376.3c0-11.6 3.4-17 10.4-16.3l26.8 2.6 3.5.1c4.2 0 7.4-1 9.6-3 2.2-2 3.7-5 4.5-9.2.8 4.2 2.2 7.3 4.3 9.3 2.1 2 5.2 3 9.4 3l3.5-.2 26.3-2.6c3.8-.4 6.4 1 8 3.9 1.5 3 2.3 7 2.3 12.4h9c0-7.8-1.4-14.2-4-19.2-2.7-5-7.2-7.4-13.6-7.4l-2.5.1-24.4 2.8-2.6.1c-3.9 0-6.7-1.4-8.5-4.3-1.8-2.9-2.7-8-2.7-15.6h-9c0 7.6-.9 12.7-2.6 15.6-1.8 2.9-4.6 4.3-8.4 4.3l-2.4-.1-24.9-2.7-2.7-.2c-6.6 0-11.3 2.5-14.1 7.4-2.8 5-4.2 11.4-4.2 19.2h9" transform="matrix(0 .03623 .03623 0 -45.7 -122.7)"/>
    <path d="M5861.7 1492.8v19.5l36-2.5v-14.6zm0 24.8v19.6l36-2.4V1520zm-1.3 106.5h97.6V1606l-7.6-1a22.7 22.7 0 0 0 9.8-19 21 21 0 0 0-10-19 50.3 50.3 0 0 0-27.4-6.5c-7.2 0-13.6 1.1-19.2 3.4a30 30 0 0 0-13.2 9.6c-3.1 4.2-4.7 9-4.7 14.6 0 6.2 2.2 11.4 6.6 15.6h-34.1zm45.9-39.4c3.5-2 9-3.1 16.6-3.1 8.1 0 13.8 1 17 2.8 3.4 1.9 5 4.5 5 7.8 0 4.4-2.6 8.1-8 11.4h-30c-2-1.5-3.5-3-4.5-4.6-1-1.6-1.5-3.5-1.5-5.6v-5.6zm37 118c1.2.6 2.2 1.8 2.8 3.5l13.8-4.3c-.5-4.2-1.4-7.7-2.9-10.4-1.4-2.8-3.6-5-6.4-6.5 3-2.6 5.4-6 7-9.9 1.7-4 2.5-8.2 2.5-12.8 0-7-2-12.7-6-17-4.1-4.2-9.4-6.4-15.9-6.4-7.5 0-13.3 3-17.5 8.9a42.7 42.7 0 0 0-6.2 24.8v9.2h-2.5c-7.4 0-11-4.5-11-13.6a69.8 69.8 0 0 1 3.9-19l-14-4.7a82.5 82.5 0 0 0-5.2 27c0 20 8.2 30.1 24.7 30.1h31.1zm-.3-26.2c-1.3 2.3-3 4.1-5.3 5.3h-11.2v-5c0-11.1 3.4-16.7 10.2-16.7 2.6 0 4.6.8 6 2.4a10 10 0 0 1 2.2 6.9v3.5zm17.1 85.7c0-8.8-2.2-15.5-6.7-20a25.6 25.6 0 0 0-18.9-6.6h-31.2V1721h-15.2v14.5h-15l-2.6 20.5h17.6v22.3l15.2-2.1V1756h32c3.4 0 5.9.8 7.4 2.4 1.5 1.5 2.2 4 2.2 7.5 0 4.3-1 8.4-3.1 12.1l12.6 6.7 5.7-9.7zm-15.2 74.1c0 6-1.9 11.8-5.7 17.7l11.4 8.2c3-3.4 5.3-7.4 7-12a45.3 45.3 0 0 0-2.2-35.2 30.3 30.3 0 0 0-13.1-12.1 44.1 44.1 0 0 0-19.6-4.1 45 45 0 0 0-19.2 4 31.8 31.8 0 0 0-13.6 11.5c-3.3 5.1-5 11.1-5 18.1a33 33 0 0 0 4.4 17.2c2.9 4.9 7 8.6 12.5 11.3 5.4 2.6 12 4 19.5 4 3 0 5.5-.2 7.6-.5v-44.7l16 2zm-40.6-12.8c2.7-2.3 7-3.6 12.6-4v25.3c-11.2-.2-16.8-4.3-16.8-12.4v-5.6zm-42.6 65.3v19.5l36-2.5v-14.6zm0 24.8v19.6l36-2.4V1916l-36-2.5" fill="green" transform="matrix(0 .03623 .03623 0 -45.7 -122.7)"/>
    <path d="M5893.6 1982.7c-2 2-3 4.4-3 7.4s1 5.5 3 7.5c2.1 2 4.6 3 7.6 3s5.6-1 7.7-3c2.2-2 3.2-4.5 3.2-7.5s-1-5.4-3.2-7.4c-2.1-2-4.7-3-7.7-3h-4.4zm47 0a9.8 9.8 0 0 0-3.3 7.4c0 3 1 5.5 3.1 7.5s4.7 3 7.7 3c3.1 0 5.7-1 7.7-3s3.1-4.5 3.1-7.5-1-5.4-3-7.4c-2.1-2-4.7-3-7.8-3h-4.4" transform="matrix(0 .03623 .03623 0 -45.7 -122.7)"/>
    <path d="M5861.7 2126.4v19.5l36-2.5v-14.6zm0 24.8v19.6l36-2.4v-14.7zm6 90.4a25.2 25.2 0 0 0 22.9 14.2c5 0 9.9-1.2 14.6-3.4 4.7-2.3 10-6 15.7-11.1a303 303 0 0 0 21.6-22v38.5l15.2-2.2v-59.8h-14a621 621 0 0 1-25 24c-6 5.2-11.1 9-15.3 11.4a24 24 0 0 1-11.8 3.6c-3.9 0-6.9-1-9-3.1-2.2-2-3.3-5-3.3-9 0-3.3.8-6.3 2.4-8.8 1.6-2.5 4.2-5 7.8-7.4L5879 2194a37.2 37.2 0 0 0-11 12.8c-2.6 5-3.9 11-3.9 17.9v9.8zm9 89.7a64 64 0 0 0 35.3 8.2c15.3 0 27.1-2.7 35.5-8.2a27.2 27.2 0 0 0 12.6-24.3c0-10.7-4.2-18.7-12.6-24.2a64.5 64.5 0 0 0-35.5-8.3c-15.2 0-27 2.7-35.4 8.3a27.2 27.2 0 0 0-12.5 24.2v16zm10.2-33.8c5-2 13.4-3.1 25-3.1 12 0 20.5 1 25.5 3s7.5 5.3 7.5 9.6c0 4.4-2.5 7.6-7.5 9.6s-13.5 2.9-25.5 2.9c-11.8 0-20.2-1-25.2-3-5-2.1-7.4-5.3-7.4-9.5v-6.5zm20.5 15.5a8 8 0 0 0 5.9 2.4 8.3 8.3 0 0 0 8.5-8.6c0-2.3-.9-4.4-2.5-6a8.2 8.2 0 0 0-6-2.4 8 8 0 0 0-6 2.4 8.2 8.2 0 0 0-2.4 6v3.7zm35.1 105.8h15.2v-58.5h-15.2v21.7h-54.8l11.8-18.6-14.3-8.7-18.7 29.2v18.2h76zm12 22.4l-71.2 33.6v-39.6h-15.2v60.3h13.6l79-34.8zm-45.6 75.2v56.4h15.2v-56.4zm33.6 140h15.2V2598h-15.2v21.7h-54.8l11.8-18.6-14.3-8.7-18.7 29.2v18.2h76zm-65.8 70.9a64 64 0 0 0 35.3 8.2c15.3 0 27.1-2.7 35.5-8.2a27.2 27.2 0 0 0 12.6-24.3c0-10.7-4.2-18.7-12.6-24.2a64.5 64.5 0 0 0-35.5-8.3c-15.2 0-27 2.7-35.3 8.3a27.2 27.2 0 0 0-12.6 24.2v16zm10.2-33.8c5-2 13.4-3.1 25-3.1 12 0 20.5 1 25.5 3s7.5 5.3 7.5 9.6c0 4.4-2.5 7.6-7.5 9.6s-13.5 2.9-25.5 2.9c-11.8 0-20.2-1-25.2-3-5-2.1-7.4-5.3-7.4-9.5v-6.5zm20.5 15.5a8 8 0 0 0 5.9 2.4 8.3 8.3 0 0 0 8.5-8.6c0-2.3-.9-4.4-2.5-6a8.2 8.2 0 0 0-6-2.4 8 8 0 0 0-6 2.4 8.2 8.2 0 0 0-2.4 6v3.7zm1.5 45v56.4h15.2V2754zm33.6 140h15.2v-58.5h-15.2v21.7h-54.8l11.8-18.6-14.3-8.7-18.7 29.2v18.2h76zm-4 79.5v-9h19.2V2945l-19.2-.1v-37.4h-13.2l-62 25 6.6 17.4 53.4-21.2v16.3l-23.2 2.2v17.4h23.2v9zm-76.8 24v19.6l36-2.5V3000zm0 24.9v19.6l36-2.4v-14.7l-36-2.5" fill="green" transform="matrix(0 .03623 .03623 0 -45.7 -122.7)"/>
    <path d="M5939.2 3106.5c2.1 2 4.6 3 7.5 3 3.3 0 6.8-.8 10.5-2.4l24.5-10.6v-9.8l-25.9 6c-1-1.2-2.3-2.2-3.9-3a11.3 11.3 0 0 0-12.6 1.9 9.8 9.8 0 0 0-3.2 7.4v4.4" transform="matrix(0 .03623 .03623 0 -45.7 -122.7)"/>
    <path d="M6017.7 1492.8v19.5l36-2.5v-14.6zm0 24.8v19.6l36-2.4V1520zm-1.3 106.5h97.6V1606l-7.6-1a22.7 22.7 0 0 0 9.8-19 21 21 0 0 0-10-19 50.3 50.3 0 0 0-27.4-6.5c-7.2 0-13.6 1.1-19.2 3.4a30 30 0 0 0-13.2 9.6c-3.1 4.2-4.7 9-4.7 14.6 0 6.2 2.2 11.4 6.6 15.6h-34.1zm45.9-39.4c3.5-2 9-3.1 16.6-3.1 8.1 0 13.8 1 17 2.8 3.4 1.9 5 4.5 5 7.8 0 4.4-2.6 8.1-8 11.4h-30c-2-1.5-3.5-3-4.5-4.6-1-1.6-1.5-3.5-1.5-5.6v-5.6zm38.6 93.2c0 6-1.9 11.8-5.7 17.7l11.4 8.2c3-3.4 5.3-7.4 7-12a45.3 45.3 0 0 0-2.2-35.2 30.3 30.3 0 0 0-13.1-12.1 44.1 44.1 0 0 0-19.6-4.1 45 45 0 0 0-19.2 4 31.8 31.8 0 0 0-13.6 11.5c-3.3 5.1-5 11.1-5 18.1a33 33 0 0 0 4.4 17.2c2.9 4.9 7 8.6 12.5 11.3 5.4 2.6 12 4 19.5 4 3 0 5.5-.2 7.6-.5v-44.7l16 2zm-40.6-12.8c2.7-2.3 7-3.6 12.6-4v25.3c-11.2-.2-16.8-4.3-16.8-12.4v-5.6zm39 93.7c-1 2-2.7 3-4.9 3-1.6 0-2.8-.4-3.8-1.2-1-.8-1.9-2.4-2.8-4.6-1-2.3-2-5.8-3.3-10.6-1.9-6.9-4.4-12.2-7.7-15.8a17.3 17.3 0 0 0-13.5-5.5c-6.4 0-11.6 2.7-15.6 7.9s-6 12.6-6 22c0 11 3 20.3 8.8 28l12.3-8.2c-4-6.3-5.9-12.7-5.9-19.1 0-3.4.4-5.9 1.3-7.5a4.3 4.3 0 0 1 4-2.4c1.3 0 2.3.4 3.2 1.2.8.9 1.6 2.4 2.5 4.7.9 2.3 2 5.8 3.3 10.3 1.4 5 2.9 9 4.5 12.2 1.7 3.2 3.9 5.6 6.7 7.4 2.8 1.7 6.4 2.6 10.7 2.6 5 0 9-1.5 12.6-4.5 3.5-3 6-6.9 7.8-11.8 1.8-5 2.6-10.4 2.6-16.4 0-6.4-.9-12.2-2.7-17.4a38.6 38.6 0 0 0-7.8-13.3l-11.9 10.3c4.8 6.3 7.2 13 7.2 20.3v5.3zm0 87.3c-1 2.4-2.5 5-4.5 7.8l13 9.1a40.5 40.5 0 0 0 8.3-25.6c0-7.4-1.5-13.7-4.6-19a31 31 0 0 0-12.9-12.3c-5.5-3-11.9-4.3-19.2-4.3-7.2 0-13.7 1.4-19.4 4.4-5.7 3-10.2 7.1-13.4 12.5a42.4 42.4 0 0 0-2.8 32.8c1.4 4.1 3.5 8 6.4 11.5l12.4-8.9c-3.8-5-5.7-10.1-5.7-15.4 0-10.3 7.6-15.5 22.8-15.5 7.6 0 13 1.4 16.3 4 3.3 2.7 5 6.5 5 11.3v4zm-56 99.1l29.6-3.8v-13h-11.7c.6-3.8 2.5-7.2 5.8-10.1 3.4-3 7.6-5.3 12.6-7h19v13.8h15.1v-43.4h-15.2v9.2h-40v-9.2h-15.2v24.9l17.2 3.6c-6.3 2.5-11 5.7-14.1 9.5a21.5 21.5 0 0 0-4.7 14v6.3zm-31.7 53.6c2.2 2.2 5.1 3.4 8.5 3.4 3.5 0 6.4-1.2 8.7-3.4 2.2-2.3 3.3-5.2 3.3-8.7a11.7 11.7 0 0 0-12-12.2 11.7 11.7 0 0 0-12 12.2v5.3zm87 3.6v17.7h15.1v-57.7h-15.2v19.5h-40V1963h-15.2v39.4zm-47.2 94.4c6.4 4.1 15.5 6.2 27.4 6.2 7.2 0 13.6-1.1 19.3-3.2 5.6-2.2 10-5.2 13.2-9.2a22 22 0 0 0 4.8-14.2 21 21 0 0 0-7.1-16.4h31.8l2.3-20.5h-99v18.2l7.7.9c-3.4 2.7-6 5.7-7.6 9a22.5 22.5 0 0 0-2.5 10.1v13zm14-36.8h29.4c2 1.5 3.6 3 4.6 4.7 1 1.6 1.5 3.4 1.5 5.5 0 3.8-1.7 6.7-5.2 8.6-3.5 2-9 3-16.7 3-8.3 0-14-1-17.3-2.7a8.4 8.4 0 0 1-4.8-7.8v-6.4zm50.7 98.2c0-8.8-2.2-15.5-6.7-20a25.6 25.6 0 0 0-18.9-6.6h-31.2V2117h-15.2v14.5h-15l-2.6 20.5h17.6v22.3l15.2-2.1V2152h32c3.4 0 5.9.8 7.4 2.4 1.5 1.5 2.2 4 2.2 7.5 0 4.3-1 8.4-3.1 12.1l12.6 6.8 5.7-9.8zm-104.5 78.2c2.2 2.2 5.1 3.4 8.5 3.4 3.5 0 6.4-1.2 8.7-3.4 2.2-2.3 3.3-5.2 3.3-8.7a11.7 11.7 0 0 0-12-12.2 11.7 11.7 0 0 0-12 12.2v5.3zm87 3.6v17.7h15.1V2200h-15.2v19.5h-40v-18.9h-15.2v39.4zm-46.8 91.7c6.7 5.9 15.7 8.9 27 8.9 11.7 0 20.9-3 27.5-8.9a31.5 31.5 0 0 0 9.8-24.7c0-10.6-3.2-18.8-9.8-24.7a39.5 39.5 0 0 0-27.4-8.8 45 45 0 0 0-19.5 4 30 30 0 0 0-13 11.5c-3.1 5-4.7 11-4.7 18v15.8zm10.3-34c3.5-2 9.1-3 16.7-3 7.8 0 13.4 1 16.9 3a10 10 0 0 1 5.2 9.3 10 10 0 0 1-5.2 9.4c-3.6 2-9.2 3-17 3a35 35 0 0 1-16.6-3 10 10 0 0 1-5.2-9.4v-6.4zm-18 58.6v18l8 1.4c-3.5 3-6.1 6.4-7.8 9.8a25.8 25.8 0 0 0-2.6 11.6 18 18 0 0 0 5.5 14 22 22 0 0 0 15.4 5h51.1v-20.5h-45.2a20 20 0 0 1-9.1-1.5c-1.7-1-2.5-2.7-2.5-5.2 0-2 .7-4 2-6 1.5-2 3.5-4 6.2-6h48.6v-20.6zm-26.4 86.9v19.5l36-2.5v-14.6zm0 24.8v19.6l36-2.4v-14.7l-36-2.5" fill="green" transform="matrix(0 .03623 .03623 0 -45.7 -122.7)"/>
    <path d="M6049.6 2537c-2 2-3 4.5-3 7.5s1 5.5 3 7.5c2.1 2 4.6 3 7.6 3s5.6-1 7.7-3c2.2-2 3.2-4.5 3.2-7.5s-1-5.4-3.2-7.4c-2.1-2-4.7-3-7.7-3h-4.4zm47 0a9.8 9.8 0 0 0-3.3 7.5c0 3 1 5.5 3.1 7.5s4.7 3 7.7 3c3.1 0 5.7-1 7.7-3s3.1-4.5 3.1-7.5-1-5.4-3-7.4c-2.1-2-4.7-3-7.8-3h-4.4" transform="matrix(0 .03623 .03623 0 -45.7 -122.7)"/>
    <path d="M6044.1 2673.1v18l8 1.4c-3.5 3-6.1 6.4-7.8 9.8a25.8 25.8 0 0 0-2.6 11.6 18 18 0 0 0 5.5 14 22 22 0 0 0 15.4 5h51.1v-20.5h-45.2a20 20 0 0 1-9.1-1.5c-1.7-1-2.5-2.7-2.5-5.2 0-2 .7-4 2-6 1.5-2 3.5-4 6.2-6h48.6V2673zm47.9 99.7c3.2 0 5.5.6 6.9 1.8 1.4 1.2 2 3 2 5.3 0 2-.6 4.2-2 6.3-1.3 2.2-3.2 4-5.5 5.4H6044v20.5h69.6v-18l-7.8-.8c3.3-2.3 5.8-5.3 7.6-9.1 1.7-3.8 2.6-7.9 2.6-12.1 0-6.5-1.9-11.4-5.7-14.8-3.8-3.3-9.1-5-16-5h-50.3v20.5zm1 94.7c5.3 0 8 3 8 8.9a25 25 0 0 1-2.2 9.8l13.2 4.9a44.1 44.1 0 0 0 4.1-20c0-8-2.4-14-7-18-4.8-4.1-11.5-6.1-20-6.1h-59.4v-20.3h-15.2v40.8zm0 79.2c5.3 0 8 3 8 8.9a25 25 0 0 1-2.2 9.8l13.2 4.9a44.1 44.1 0 0 0 4.1-20c0-8-2.4-14-7-18-4.8-4.1-11.5-6.1-20-6.1h-59.4v-20.3h-15.2v40.8h78.4" fill="navy" transform="matrix(0 .03623 .03623 0 -45.7 -122.7)"/>
    <path d="M6095.2 3027.3c2.1 2 4.6 3 7.5 3 3.3 0 6.8-.8 10.5-2.4l24.5-10.6v-9.8l-25.9 6c-1-1.2-2.3-2.2-3.9-3a11.3 11.3 0 0 0-12.6 1.9 9.8 9.8 0 0 0-3.2 7.4v4.4" transform="matrix(0 .03623 .03623 0 -45.7 -122.7)"/>
    <path d="M6173.7 1492.8v19.5l36-2.5v-14.6zm0 24.8v19.6l36-2.4V1520zm26.4 46.7v18l8 1.4c-3.5 3-6.1 6.4-7.8 9.8a25.8 25.8 0 0 0-2.6 11.6 18 18 0 0 0 5.5 14 22 22 0 0 0 15.4 5h51.1v-20.5h-45.2a20 20 0 0 1-9.1-1.5c-1.7-1-2.5-2.7-2.5-5.2 0-2 .7-4 2-6 1.5-2 3.5-4 6.2-6h48.6v-20.6zm55.2 138.3c1.2.7 2.2 2 2.8 3.6l13.8-4.3c-.5-4.2-1.4-7.7-2.9-10.4-1.4-2.8-3.6-5-6.4-6.5 3-2.6 5.4-6 7-9.9 1.7-4 2.5-8.2 2.5-12.8 0-7-2-12.7-6-17-4.1-4.2-9.4-6.4-15.9-6.4-7.5 0-13.3 3-17.5 8.9a42.7 42.7 0 0 0-6.2 24.8v9.2h-2.5c-7.4 0-11-4.5-11-13.6a69.8 69.8 0 0 1 3.9-19l-14-4.7a82.5 82.5 0 0 0-5.2 27c0 20 8.2 30.1 24.7 30.1h31.1zm-.3-26.1c-1.3 2.3-3 4.1-5.3 5.3h-11.2v-5c0-11.1 3.4-16.7 10.2-16.7 2.6 0 4.6.8 6 2.4a10 10 0 0 1 2.2 6.9v3.5zm-52.4 108.2c3.3 2.3 8.5 3.4 15.6 3.4h51.5v-17.5h-50c-2.6 0-4.3-.3-5.3-.8s-1.5-1.4-1.5-2.7c0-2.4 1.6-4.8 4.7-7h52.1v-14.7h-50c-2.6 0-4.3-.2-5.3-.7-1-.5-1.5-1.3-1.5-2.6 0-2.5 1.6-4.8 4.7-7.2h52.1v-17.8h-69.6v15l6.3 1.4c-3 2.3-5.2 4.5-6.6 6.7-1.4 2.2-2 4.8-2 7.7 0 2.7.6 5 1.9 6.8 1.3 1.8 3.3 3.1 6 3.9-5.3 4.7-8 9.7-8 15.2v7.4zm54.3 51.6c0 6-1.9 11.8-5.7 17.7l11.4 8.2c3-3.4 5.3-7.4 7-12a45.3 45.3 0 0 0-2.2-35.2 30.3 30.3 0 0 0-13.1-12.1 44.1 44.1 0 0 0-19.6-4.1 45 45 0 0 0-19.2 4 31.8 31.8 0 0 0-13.6 11.5c-3.3 5.1-5 11.1-5 18.1a33 33 0 0 0 4.4 17.2c2.9 4.9 7 8.6 12.5 11.3 5.4 2.6 12 4 19.5 4 3 0 5.5-.2 7.6-.5v-44.7l16 2zm-40.6-12.8c2.7-2.3 7-3.6 12.6-4v25.3c-11.2-.2-16.8-4.3-16.8-12.4v-5.6zm-42.6 65.3v19.5l36-2.5v-14.6zm0 24.8v19.6l36-2.4V1916l-36-2.5" fill="green" transform="matrix(0 .03623 .03623 0 -45.7 -122.7)"/>
    <path d="M6205.6 1982.7c-2 2-3 4.4-3 7.4s1 5.5 3 7.5c2.1 2 4.6 3 7.6 3s5.6-1 7.7-3c2.2-2 3.2-4.5 3.2-7.5s-1-5.4-3.2-7.4c-2.1-2-4.7-3-7.7-3h-4.4zm47 0a9.8 9.8 0 0 0-3.3 7.4c0 3 1 5.5 3.1 7.5s4.7 3 7.7 3c3.1 0 5.7-1 7.7-3s3.1-4.5 3.1-7.5-1-5.4-3-7.4c-2.1-2-4.7-3-7.8-3h-4.4" transform="matrix(0 .03623 .03623 0 -45.7 -122.7)"/>
    <path d="M6173.7 2126.4v19.5l36-2.5v-14.6zm0 24.8v19.6l36-2.4v-14.7zm96 45.3h-91.2v21.3h91.2zm-91.2 46.5v22.4l41.2-25.5 50 28v-24.6l-48.5-24.9zm20.8 98.2l29.6-3.8v-13h-11.7c.6-3.8 2.5-7.2 5.8-10.1 3.4-3 7.6-5.3 12.6-7h19v13.8h15.1v-43.3h-15.2v9h-40v-9h-15.2v24.8l17.2 3.6c-6.3 2.5-11 5.7-14.1 9.5a21.5 21.5 0 0 0-4.7 14v6.3" fill="green" transform="matrix(0 .03623 .03623 0 -45.7 -122.7)"/>
    <path d="M6162.6 2367l114.3 54.5 7.5-16L6170 2351zm85.4 89c3.2 0 5.5.6 6.9 1.8 1.4 1.2 2 3 2 5.3 0 2-.6 4.2-2 6.3-1.3 2.2-3.2 4-5.5 5.4H6200v20.5h69.6v-18l-7.8-.8c3.3-2.3 5.8-5.3 7.6-9.1 1.7-3.8 2.6-7.9 2.6-12.1 0-6.5-1.9-11.4-5.7-14.8-3.8-3.3-9.1-5-16-5h-50.3v20.5zm-59.3 112.9a64 64 0 0 0 35.3 8.2c15.3 0 27.1-2.7 35.5-8.2a27.2 27.2 0 0 0 12.6-24.3c0-10.7-4.2-18.7-12.6-24.2a64.5 64.5 0 0 0-35.5-8.3c-15.2 0-27 2.7-35.3 8.3a27.2 27.2 0 0 0-12.6 24.2v16zm10.2-33.8c5-2 13.4-3.1 25-3.1 12 0 20.5 1 25.5 3s7.5 5.3 7.5 9.6c0 4.4-2.5 7.6-7.5 9.6s-13.5 2.9-25.5 2.9c-11.8 0-20.2-1-25.2-3-5-2.1-7.4-5.3-7.4-9.5v-6.5zm20.5 15.5a8 8 0 0 0 5.9 2.4 8.3 8.3 0 0 0 8.5-8.6c0-2.3-.9-4.4-2.5-6a8.2 8.2 0 0 0-6-2.4 8 8 0 0 0-6 2.4 8.2 8.2 0 0 0-2.4 6v3.7zm-30.7 97.5a64 64 0 0 0 35.3 8.2c15.3 0 27.1-2.7 35.5-8.2a27.2 27.2 0 0 0 12.6-24.3c0-10.7-4.2-18.7-12.6-24.2a64.5 64.5 0 0 0-35.5-8.3c-15.2 0-27 2.7-35.3 8.3a27.2 27.2 0 0 0-12.6 24.2v16zm10.2-33.8c5-2 13.4-3.1 25-3.1 12 0 20.5 1 25.5 3s7.5 5.3 7.5 9.6c0 4.4-2.5 7.6-7.5 9.6s-13.5 2.9-25.5 2.9c-11.8 0-20.2-1-25.2-3-5-2.1-7.4-5.3-7.4-9.5v-6.5zm20.5 15.5a8 8 0 0 0 5.9 2.4 8.3 8.3 0 0 0 8.5-8.6c0-2.3-.9-4.4-2.5-6a8.2 8.2 0 0 0-6-2.4 8 8 0 0 0-6 2.4 8.2 8.2 0 0 0-2.4 6v3.7zm37.5 77.7c0 6-1.9 11.8-5.7 17.7l11.4 8.2c3-3.4 5.3-7.4 7-12a45.3 45.3 0 0 0-2.2-35.2 30.3 30.3 0 0 0-13.1-12.1 44.1 44.1 0 0 0-19.6-4.1 45 45 0 0 0-19.2 4 31.8 31.8 0 0 0-13.6 11.5c-3.3 5.1-5 11.1-5 18.1a33 33 0 0 0 4.4 17.2c2.9 4.9 7 8.6 12.5 11.3 5.4 2.6 12 4 19.5 4 3 0 5.5-.2 7.6-.5V2691l16 2zm-40.6-12.8c2.7-2.3 7-3.6 12.6-4v25.3c-11.2-.2-16.8-4.3-16.8-12.4v-5.6zm34.2 120.4v-9h19.2v-19.6l-19.2-.1V2749h-13.2l-62 25 6.6 17.4 53.4-21.2v16.3l-23.2 2.2v17.4h23.2v9h15.2" fill="navy" transform="matrix(0 .03623 .03623 0 -45.7 -122.7)"/>
    <path d="M6248 2852c3.2 0 5.5.6 6.9 1.8 1.4 1.2 2 3 2 5.3 0 2-.6 4.2-2 6.3-1.3 2.2-3.2 4-5.5 5.4H6200v20.5h69.6v-18l-7.8-.8c3.3-2.3 5.8-5.3 7.6-9.1 1.7-3.8 2.6-7.9 2.6-12.1 0-6.5-1.9-11.4-5.7-14.8-3.8-3.3-9.1-5-16-5h-50.3v20.5zm24.1 98.2c0-8.8-2.2-15.5-6.7-20a25.6 25.6 0 0 0-18.9-6.6h-31.2V2909h-15.2v14.5h-15l-2.6 20.5h17.6v22.3l15.2-2.1V2944h32c3.4 0 5.9.8 7.4 2.4 1.5 1.5 2.2 4 2.2 7.5 0 4.3-1 8.4-3.1 12.1l12.6 6.8 5.7-9.8zm-15.2 74.1c0 6-1.9 11.8-5.7 17.7l11.4 8.2c3-3.4 5.3-7.4 7-12a45.3 45.3 0 0 0-2.2-35.2 30.3 30.3 0 0 0-13.1-12.1 44.1 44.1 0 0 0-19.6-4.1 45 45 0 0 0-19.2 4 31.8 31.8 0 0 0-13.6 11.5c-3.3 5.1-5 11.1-5 18.1a33 33 0 0 0 4.4 17.2c2.9 4.9 7 8.6 12.5 11.3 5.4 2.6 12 4 19.5 4 3 0 5.5-.2 7.6-.5v-44.7l16 2zm-40.6-12.8c2.7-2.3 7-3.6 12.6-4v25.3c-11.2-.2-16.8-4.3-16.8-12.4v-5.6zm-17 121.7l29.6-3.8v-13h-11.7c.6-3.8 2.5-7.2 5.8-10.1 3.4-3 7.6-5.3 12.6-7h19v13.8h15.1v-43.3h-15.2v9h-40v-9h-15.2v24.8l17.2 3.6c-6.3 2.5-11 5.7-14.1 9.5a21.5 21.5 0 0 0-4.7 14v6.3zm0 79.2l29.6-3.8v-13h-11.7c.6-3.8 2.5-7.2 5.8-10.1 3.4-3 7.6-5.3 12.6-7h19v13.8h15.1v-43.4h-15.2v9.2h-40v-9.1h-15.2v24.8l17.2 3.6c-6.3 2.5-11 5.7-14.1 9.5a21.5 21.5 0 0 0-4.7 14v6.3zm56 74.2c1.2.7 2.2 2 2.8 3.6l13.8-4.3c-.5-4.2-1.4-7.7-2.9-10.4-1.4-2.8-3.6-5-6.4-6.5 3-2.6 5.4-6 7-9.9 1.7-4 2.5-8.2 2.5-12.8 0-7-2-12.7-6-17-4.1-4.2-9.4-6.4-15.9-6.4-7.5 0-13.3 3-17.5 8.9a42.7 42.7 0 0 0-6.2 24.8v9.2h-2.5c-7.4 0-11-4.5-11-13.6a69.8 69.8 0 0 1 3.9-19l-14-4.7a82.5 82.5 0 0 0-5.2 27c0 20 8.2 30.1 24.7 30.1h31.1zm-.3-26.1c-1.3 2.3-3 4.1-5.3 5.3h-11.2v-5c0-11.1 3.4-16.7 10.2-16.7 2.6 0 4.6.8 6 2.4a10 10 0 0 1 2.2 6.9v3.5zm-48.8 66.7a27 27 0 0 0-9.3 20.3c0 6 1.8 10.8 5.4 14a22 22 0 0 0 15.4 5h50.8V3346h-45.2c-4.1 0-7-.5-8.7-1.5-1.7-1-2.5-2.7-2.5-5.2 0-2 .8-4 2.3-6 1.5-2 3.8-4 6.7-6h47.4v-20.6h-97l-2 20.5zm-3.6 120.7c3.3 2.3 8.5 3.4 15.6 3.4h51.5v-17.5h-50c-2.6 0-4.3-.3-5.3-.8s-1.5-1.4-1.5-2.7c0-2.4 1.6-4.8 4.7-7h52.1v-14.7h-50c-2.6 0-4.3-.2-5.3-.7-1-.5-1.5-1.3-1.5-2.6 0-2.5 1.6-4.8 4.7-7.2h52.1v-17.8h-69.6v15l6.3 1.4c-3 2.2-5.2 4.5-6.6 6.7-1.4 2.2-2 4.8-2 7.7 0 2.7.6 5 1.9 6.8 1.3 1.8 3.3 3.1 6 3.9-5.3 4.7-8 9.7-8 15.2v7.4zm44.7 57.2c2.7 2.7 6 4 10 4 2.4 0 4.8-.3 7.1-1 2.4-.9 6-2.3 10.7-4.5l21-9.4v-13.7l-27.3 6.6c-1.2-2-2.8-3.4-4.8-4.5-2-1-4.3-1.6-6.8-1.6a13.6 13.6 0 0 0-13.8 14v6.1zm-16.6 174.6c5.2-6.4 7.8-15 7.8-26v-9.9h30v-21.3h-90.8v28.3a47 47 0 0 0 7.5 28.6c5 6.6 12.4 9.9 22.3 9.9h15.4zm-37.8-28.5v-7.4h30.4v8.4c0 4.9-1.3 8.6-3.9 11.3-2.5 2.6-6.5 4-11.9 4H6193zm62.4 110.6c1.2.7 2.2 2 2.8 3.6l13.8-4.3c-.5-4.2-1.4-7.7-2.9-10.4-1.4-2.8-3.6-5-6.4-6.5 3-2.6 5.4-6 7-9.9 1.7-4 2.5-8.2 2.5-12.8 0-7-2-12.7-6-17-4.1-4.2-9.4-6.4-15.9-6.4-7.5 0-13.3 3-17.5 8.9a42.7 42.7 0 0 0-6.2 24.8v9.2h-2.5c-7.4 0-11-4.5-11-13.6a69.8 69.8 0 0 1 3.9-19l-14-4.7a83 83 0 0 0-5.2 27c0 20 8.2 30.1 24.7 30.1h31.1zm-.3-26.1c-1.3 2.3-3 4.1-5.3 5.3h-11.2v-5c0-11.1 3.4-16.7 10.2-16.7 2.6 0 4.6.8 6 2.4a10 10 0 0 1 2.2 6.9v3.5zm-55.7 110.3l29.6-3.8v-13h-11.7c.6-3.8 2.5-7.2 5.8-10.1 3.4-3 7.6-5.3 12.6-7h19v13.8h15.1v-43.4h-15.2v9.2h-40v-9.1h-15.2v24.8l17.2 3.6c-6.3 2.5-11 5.7-14.1 9.5a21.5 21.5 0 0 0-4.7 14v6.3zm56 74.2c1.2.7 2.2 2 2.8 3.6l13.8-4.3c-.5-4.2-1.4-7.7-2.9-10.4-1.4-2.8-3.6-5-6.4-6.5 3-2.6 5.4-6 7-9.9 1.7-4 2.5-8.2 2.5-12.8 0-7-2-12.7-6-17-4.1-4.2-9.4-6.4-15.9-6.4-7.5 0-13.3 3-17.5 8.9a42.7 42.7 0 0 0-6.2 24.8v9.2h-2.5c-7.4 0-11-4.5-11-13.6a69.8 69.8 0 0 1 3.9-19l-14-4.7a83 83 0 0 0-5.2 27c0 20 8.2 30.1 24.7 30.1h31.1zm-.3-26.1c-1.3 2.3-3 4.1-5.3 5.3h-11.2v-5c0-11.1 3.4-16.7 10.2-16.7 2.6 0 4.6.8 6 2.4a10 10 0 0 1 2.2 6.9v3.5zm-82.6 106h97.6V3982l-7.6-1a22.7 22.7 0 0 0 9.8-19 21 21 0 0 0-10-19 50.3 50.3 0 0 0-27.4-6.5c-7.2 0-13.6 1.1-19.2 3.4a30 30 0 0 0-13.2 9.6c-3.1 4.2-4.7 9-4.7 14.6 0 6.2 2.2 11.4 6.6 15.6h-34.1zm45.9-39.4c3.5-2 9-3.1 16.6-3.1 8.1 0 13.8 1 17 2.8 3.4 1.9 5 4.5 5 7.8 0 4.4-2.6 8.1-8 11.4h-30c-2-1.5-3.5-3-4.5-4.6-1-1.6-1.5-3.5-1.5-5.6v-5.6zm38.6 93.2c0 6-1.9 11.8-5.7 17.7l11.4 8.2c3-3.4 5.3-7.4 7-12a45.3 45.3 0 0 0-2.2-35.2 30.3 30.3 0 0 0-13.1-12.1 44.1 44.1 0 0 0-19.6-4.1 45 45 0 0 0-19.2 4 31.9 31.9 0 0 0-13.6 11.5c-3.3 5.1-5 11.1-5 18.1a33 33 0 0 0 4.4 17.2c2.9 4.9 7 8.6 12.5 11.3 5.4 2.6 12 4 19.5 4 3 0 5.5-.2 7.6-.5v-44.7l16 2zm-40.6-12.8c2.7-2.3 7-3.6 12.6-4v25.3c-11.2-.2-16.8-4.3-16.8-12.4v-5.6zm-48.8 96c2.3 2.3 5.2 3.5 8.6 3.5 3.5 0 6.4-1.2 8.6-3.4 2.3-2.3 3.4-5.2 3.4-8.7a11.7 11.7 0 0 0-12-12.2 11.7 11.7 0 0 0-12 12.2v5.3zm87 3.7v17.7h15.2v-57.7h-15.2v19.5h-40v-18.9h-15.2v39.4zm.8 73.2c-1 2-2.7 3-4.9 3-1.6 0-2.8-.4-3.8-1.2-1-.8-1.9-2.4-2.8-4.6-1-2.3-2-5.8-3.3-10.6-1.9-6.9-4.4-12.2-7.7-15.8a17.3 17.3 0 0 0-13.5-5.5c-6.4 0-11.6 2.7-15.6 7.9s-6 12.6-6 22c0 11 3 20.3 8.8 28l12.3-8.2c-4-6.3-5.9-12.7-5.9-19.1 0-3.4.4-5.9 1.3-7.5a4.3 4.3 0 0 1 4-2.4c1.3 0 2.3.4 3.2 1.2a14 14 0 0 1 2.5 4.7c.9 2.3 2 5.8 3.3 10.3 1.4 5 2.9 9 4.5 12.2 1.7 3.2 3.9 5.6 6.7 7.4 2.8 1.7 6.4 2.6 10.7 2.6 5 0 9-1.5 12.6-4.5 3.5-3 6-6.9 7.8-11.8 1.8-5 2.6-10.4 2.6-16.4 0-6.4-.9-12.2-2.7-17.4a38.7 38.7 0 0 0-7.8-13.3l-11.9 10.3c4.8 6.3 7.2 13 7.2 20.3v5.3zm1.6 77.5c0 6-1.9 11.8-5.7 17.7l11.4 8.2c3-3.4 5.3-7.4 7-12a45.3 45.3 0 0 0-2.2-35.2 30.3 30.3 0 0 0-13.1-12.1 44.1 44.1 0 0 0-19.6-4.1 45 45 0 0 0-19.2 4 31.9 31.9 0 0 0-13.6 11.5c-3.3 5.1-5 11.1-5 18.1a33 33 0 0 0 4.4 17.2c2.9 4.9 7 8.6 12.5 11.3 5.4 2.6 12 4 19.5 4 3 0 5.5-.2 7.6-.5V4275l16 2zm-40.6-12.8c2.7-2.3 7-3.6 12.6-4v25.3c-11.2-.2-16.8-4.3-16.8-12.4v-5.6zm-17 121.7l29.6-3.8v-13h-11.7c.6-3.8 2.5-7.2 5.8-10.1 3.4-3 7.6-5.3 12.6-7h19v13.8h15.1v-43.4h-15.2v9.2h-40v-9.2h-15.2v24.9l17.2 3.6c-6.3 2.5-11 5.7-14.1 9.5a21.5 21.5 0 0 0-4.7 14v6.3zm48 55.1c2.7 2.7 6 4 10 4 2.4 0 4.8-.3 7.1-1 2.4-.9 6-2.3 10.7-4.5l21-9.4v-13.8l-27.3 6.7c-1.2-2-2.8-3.4-4.8-4.5-2-1-4.3-1.6-6.8-1.6a13.6 13.6 0 0 0-13.8 14v6.1zm12.2 175a31.1 31.1 0 0 0 12.6-26.7c0-11.7-4.2-20.6-12.5-26.8a57.3 57.3 0 0 0-34.7-9.2 57.2 57.2 0 0 0-34.5 9.3 31.2 31.2 0 0 0-12.7 26.7c0 11.7 4.2 20.6 12.5 26.8 8.4 6.1 20 9.2 34.7 9.2h22zm-59-15.8c-5-2.3-7.6-5.9-7.6-10.9s2.6-8.6 7.6-10.9c5.1-2.2 13.2-3.3 24.4-3.3s19.4 1.1 24.4 3.3c5.1 2.3 7.6 5.9 7.6 10.9 0 5.1-2.5 8.8-7.6 11a67 67 0 0 1-24.4 3.2h-16.7zm48.4 74.4c5.4 0 8 3 8 8.9 0 3.2-.7 6.4-2.1 9.8l13.2 4.9a44.2 44.2 0 0 0 4.1-20c0-8-2.4-14-7-18-4.8-4.1-11.5-6.1-20-6.1h-59.4v-20.3h-15.2v40.8zm-81.3 81.7c2.2 2.2 5.1 3.4 8.5 3.4 3.5 0 6.4-1.2 8.6-3.4 2.3-2.3 3.4-5.2 3.4-8.7a11.7 11.7 0 0 0-12-12.2 11.7 11.7 0 0 0-12 12.2v5.3zm87 3.6v17.7h15.1v-57.7h-15.2v19.5h-40V4735h-15.2v39.4zm15.1 79.2v-24.2l-69.6-23.2v22.2l54 13.4-54 14v20.8zm-12.8 71.5c0 6-1.9 11.8-5.7 17.7l11.4 8.2c3-3.4 5.3-7.4 7-12a45.3 45.3 0 0 0-2.2-35.2 30.3 30.3 0 0 0-13.1-12.1 44.1 44.1 0 0 0-19.6-4.1 45 45 0 0 0-19.2 4 31.9 31.9 0 0 0-13.6 11.5c-3.3 5.1-5 11.1-5 18.1a33 33 0 0 0 4.4 17.2c2.8 4.9 7 8.6 12.5 11.3 5.4 2.6 12 4 19.5 4 3 0 5.5-.2 7.6-.5v-44.7l16 2zm-40.7-12.8c2.8-2.3 7-3.6 12.7-4v25.3c-11.2-.2-16.8-4.3-16.8-12.4v-5.6zm-16 57.6v18l7.8 1.4c-3.4 3-6 6.4-7.7 9.8a25.8 25.8 0 0 0-2.6 11.6 18 18 0 0 0 5.5 14 22 22 0 0 0 15.4 5h51.1v-20.5h-45.2a20 20 0 0 1-9.1-1.5c-1.7-1-2.5-2.7-2.5-5.2 0-2 .7-4 2-6 1.5-2 3.5-4 6.2-6h48.6v-20.6zm47.8 179c3.2 0 5.5.5 6.9 1.7 1.3 1.2 2 3 2 5.3 0 2-.6 4.2-2 6.3-1.3 2.2-3.2 4-5.5 5.4H6200v20.5h69.6v-18l-7.8-.8c3.3-2.3 5.8-5.3 7.6-9.1 1.7-3.8 2.6-7.9 2.6-12.1 0-6.5-1.9-11.4-5.7-14.8-3.8-3.3-9.1-5-16-5h-50.3v20.5zm-47.9 58.6v18l8 1.4c-3.5 3-6.1 6.4-7.8 9.8a25.8 25.8 0 0 0-2.6 11.6 18 18 0 0 0 5.5 14 22 22 0 0 0 15.4 5h51.1v-20.5h-45.2a20 20 0 0 1-9.1-1.5c-1.7-1-2.5-2.7-2.5-5.2 0-2 .7-4 2-6 1.5-2 3.5-4 6.2-6h48.6v-20.6zm-27.7 139h97.5v-18.2l-7.5-1a22.7 22.7 0 0 0 9.8-19 21 21 0 0 0-10-19 50.3 50.3 0 0 0-27.4-6.5c-7.2 0-13.6 1.1-19.2 3.4a30 30 0 0 0-13.2 9.6c-3.1 4.2-4.7 9-4.7 14.6 0 6.2 2.2 11.4 6.5 15.6h-34zm45.8-39.4c3.6-2 9.2-3.1 16.7-3.1 8.1 0 13.8 1 17 2.8 3.4 1.9 5 4.5 5 7.8 0 4.4-2.6 8.1-8 11.4h-30c-2-1.5-3.5-3-4.5-4.6-1-1.6-1.5-3.5-1.5-5.6v-5.6zm51.5 204.7V5493l-39-1a226.5 226.5 0 0 0-20.6.2l-13 .9 57.1-10.1v-16.2l-57.2-11c10 1 19.1 1.4 27.2 1.4l7-.1 38.5-.6v-18.4l-91.2 5v22l59 10-59 9.6v22zm-62 67c6.8 6 15.8 9 27 9 11.8 0 21-3 27.6-8.9a31.5 31.5 0 0 0 9.8-24.7c0-10.6-3.2-18.8-9.8-24.7a39.5 39.5 0 0 0-27.4-8.8 45 45 0 0 0-19.5 4 30 30 0 0 0-13 11.5c-3.1 5-4.7 11-4.7 18v15.7zm10.4-34c3.5-2 9.1-3 16.7-3 7.8 0 13.4 1 16.9 3a10 10 0 0 1 5.2 9.4 10 10 0 0 1-5.3 9.4c-3.5 2-9.1 3-16.9 3a35 35 0 0 1-16.6-3 10 10 0 0 1-5.2-9.4v-6.4zm36.4 117.7l15.2-2v-56.7h-14l-40.4 34.3v-31.5h-15.2v55.3h14.2l40.2-33.8zm0 79.2l15.2-2V5683h-14l-40.4 34.3v-31.5h-15.2v55.3h14.2l40.2-33.8zm.8 79.3c1.2.7 2.2 2 2.8 3.6l13.8-4.3c-.5-4.2-1.4-7.7-2.9-10.4-1.4-2.8-3.6-5-6.4-6.5 3-2.6 5.4-6 7-9.9 1.7-4 2.5-8.2 2.5-12.8 0-7-2-12.7-6-17-4.1-4.2-9.4-6.4-15.9-6.4-7.5 0-13.3 3-17.5 8.9a42.7 42.7 0 0 0-6.2 24.8v9.2h-2.5c-7.4 0-11-4.5-11-13.6a69.8 69.8 0 0 1 3.9-19l-14-4.7a82.5 82.5 0 0 0-5.2 27c0 20 8.2 30.1 24.7 30.1h31.1zm-.3-26.1c-1.3 2.3-3 4.1-5.3 5.3h-11.2v-5c0-11.1 3.4-16.7 10.2-16.7 2.6 0 4.6.8 6 2.4a10 10 0 0 1 2.2 6.9v3.5zm-55.7 110.3l29.6-3.8v-13h-11.7c.6-3.8 2.5-7.2 5.8-10.1 3.4-3 7.6-5.3 12.6-7h19v13.8h15.1v-43.3h-15.2v9h-40v-9h-15.2v24.8l17.2 3.6c-6.3 2.5-11 5.7-14.1 9.5a21.5 21.5 0 0 0-4.7 14v6.3zm57.6 49.5c0 6-1.9 11.8-5.7 17.7l11.4 8.2c3-3.4 5.3-7.4 7-12a45.3 45.3 0 0 0-2.2-35.2 30.3 30.3 0 0 0-13.1-12.1 44.1 44.1 0 0 0-19.6-4.1 45 45 0 0 0-19.2 4 31.8 31.8 0 0 0-13.6 11.5c-3.3 5.1-5 11.1-5 18.1a33 33 0 0 0 4.4 17.2c2.9 4.9 7 8.6 12.5 11.3 5.4 2.6 12 4 19.5 4 3 0 5.5-.2 7.6-.5v-44.7l16 2zm-40.6-12.8c2.7-2.3 7-3.6 12.6-4v25.3c-11.2-.2-16.8-4.3-16.8-12.4v-5.6zm32.6 93.6c5.4 0 8 3 8 8.9a25 25 0 0 1-2.1 9.8l13.2 4.9a44.1 44.1 0 0 0 4.1-20c0-8-2.4-14-7-18-4.8-4.1-11.5-6.1-20-6.1h-59.4v-20.3h-15.2v40.8zm0 79.2c5.4 0 8 3 8 8.9a25 25 0 0 1-2.1 9.8l13.2 4.9a44.1 44.1 0 0 0 4.1-20c0-8-2.4-14-7-18-4.8-4.1-11.5-6.1-20-6.1h-59.4v-20.3h-15.2v40.8zm6.4 102.4c1.2.6 2.2 1.8 2.8 3.5l13.8-4.3c-.5-4.2-1.4-7.6-2.9-10.4-1.4-2.8-3.6-5-6.4-6.5 3-2.6 5.4-6 7-9.9 1.7-4 2.5-8.2 2.5-12.8 0-7-2-12.7-6-17-4.1-4.2-9.4-6.4-15.9-6.4-7.5 0-13.3 3-17.5 8.9a42.7 42.7 0 0 0-6.2 24.8v9.2h-2.5c-7.4 0-11-4.5-11-13.6a69.8 69.8 0 0 1 3.9-19l-14-4.7a82.5 82.5 0 0 0-5.2 27c0 20 8.2 30.1 24.7 30.1h31.1zm-.3-26.2c-1.3 2.3-3 4.1-5.3 5.3h-11.2v-5c0-11.1 3.4-16.7 10.2-16.7 2.6 0 4.6.8 6 2.4a10 10 0 0 1 2.2 6.9v3.5" fill="green" transform="matrix(0 .03623 .03623 0 -45.7 -122.7)"/>
    <path d="M6162.6 6327l114.3 54.5 7.5-16L6170 6311zm85.4 89c3.2 0 5.5.6 6.9 1.8 1.4 1.2 2 3 2 5.3 0 2-.6 4.2-2 6.3-1.3 2.2-3.2 4-5.5 5.4H6200v20.5h69.6v-18l-7.8-.8c3.3-2.3 5.8-5.3 7.6-9.1 1.7-3.8 2.6-7.9 2.6-12.1 0-6.5-1.9-11.4-5.7-14.8-3.8-3.3-9.1-5-16-5h-50.3v20.5zm-59.3 112.9a64 64 0 0 0 35.3 8.2c15.3 0 27.1-2.7 35.5-8.2a27.2 27.2 0 0 0 12.6-24.3c0-10.7-4.2-18.7-12.6-24.2a64.5 64.5 0 0 0-35.5-8.3c-15.2 0-27 2.7-35.3 8.3a27.2 27.2 0 0 0-12.6 24.2v16zm10.2-33.8c5-2 13.4-3.1 25-3.1 12 0 20.5 1 25.5 3s7.5 5.3 7.5 9.6c0 4.4-2.5 7.6-7.5 9.6s-13.5 2.9-25.5 2.9c-11.8 0-20.2-1-25.2-3-5-2.1-7.4-5.3-7.4-9.5v-6.5zm20.5 15.5a8 8 0 0 0 5.9 2.4 8.3 8.3 0 0 0 8.5-8.6c0-2.3-.9-4.4-2.5-6a8.2 8.2 0 0 0-6-2.4 8 8 0 0 0-6 2.4 8.2 8.2 0 0 0-2.4 6v3.7zm-30.7 97.5a64 64 0 0 0 35.3 8.2c15.3 0 27.1-2.7 35.5-8.2a27.2 27.2 0 0 0 12.6-24.3c0-10.7-4.2-18.7-12.6-24.2a64.5 64.5 0 0 0-35.5-8.3c-15.2 0-27 2.7-35.3 8.3a27.2 27.2 0 0 0-12.6 24.2v16zm10.2-33.8c5-2 13.4-3.1 25-3.1 12 0 20.5 1 25.5 3s7.5 5.3 7.5 9.6c0 4.4-2.5 7.6-7.5 9.6s-13.5 2.9-25.5 2.9c-11.8 0-20.2-1-25.2-3-5-2.1-7.4-5.3-7.4-9.5v-6.5zm20.5 15.5a8 8 0 0 0 5.9 2.4 8.3 8.3 0 0 0 8.5-8.6c0-2.3-.9-4.4-2.5-6a8.2 8.2 0 0 0-6-2.4 8 8 0 0 0-6 2.4 8.2 8.2 0 0 0-2.4 6v3.7zm-44.4 111l13.4-5.8a38.7 38.7 0 0 1-2.7-14.7c0-4 .8-7 2.2-8.8 1.4-1.8 3.8-2.6 7.2-2.6h9v22.5l15.2-2.4v-20.1h50.4v-20.4h-50.4v-14.6h-15.2v14.6h-9.7a22 22 0 0 0-17.2 7.4c-4.4 5-6.7 12-6.7 21.2v13.2zm80.4 55.7c-1 2.4-2.6 5-4.6 7.8l13 9.1a40.5 40.5 0 0 0 8.3-25.6c0-7.4-1.5-13.7-4.6-19a31 31 0 0 0-12.9-12.3c-5.5-3-11.9-4.3-19.2-4.3-7.2 0-13.7 1.4-19.4 4.4-5.7 3-10.2 7.1-13.4 12.5a42.4 42.4 0 0 0-2.8 32.8c1.4 4.1 3.5 8 6.4 11.5l12.4-8.9c-3.8-5-5.7-10.1-5.7-15.4 0-10.3 7.6-15.5 22.8-15.5 7.6 0 13 1.4 16.3 4 3.3 2.7 5 6.5 5 11.3v4" fill="navy" transform="matrix(0 .03623 .03623 0 -45.7 -122.7)"/>
    <path d="M6200.2 6819.9c-1.6 3-2.5 6.3-2.5 9.8 0 8.6 3.3 15 9.8 19.2a50 50 0 0 0 27.3 6.3c7.2 0 13.7-1 19.3-3.2 5.6-2.2 10-5.4 13.2-9.5a23.8 23.8 0 0 0 2.6-24.6c-1.5-3-3.5-5.4-6.2-7.4l6.3-.8v-18.2h-97.6l-2.2 20.5h36.9l-4.4 3.3zm34.7 14.1c-8.1 0-13.9-1-17.1-2.7a8.7 8.7 0 0 1-4.9-8c0-4.3 2.8-8 8.4-11.3h29.4c4.1 2.7 6.2 6.1 6.2 10.2v11.8zm22 71.1c0 6-1.9 11.8-5.7 17.7l11.4 8.2c3-3.4 5.3-7.4 7-12a45.3 45.3 0 0 0-2.2-35.2 30.3 30.3 0 0 0-13.1-12.1 44.1 44.1 0 0 0-19.6-4.1 45 45 0 0 0-19.2 4 31.8 31.8 0 0 0-13.6 11.5c-3.3 5.1-5 11.1-5 18.1a33 33 0 0 0 4.4 17.2c2.9 4.9 7 8.6 12.5 11.3 5.4 2.6 12 4 19.5 4 3 0 5.5-.2 7.6-.5v-44.7l16 2zm-40.6-12.8c2.7-2.3 7-3.6 12.6-4v25.3c-11.2-.2-16.8-4.3-16.8-12.4v-5.5zm-17 121.7l29.6-3.8v-13h-11.7c.6-3.8 2.5-7.2 5.8-10.1 3.4-3 7.6-5.3 12.6-7h19v13.8h15.1v-43.3h-15.2v9h-40v-9h-15.2v24.8l17.2 3.6c-6.3 2.5-11 5.7-14.1 9.5a21.5 21.5 0 0 0-4.7 14v6.3zm.9 43.5c-1.6 3-2.5 6.3-2.5 9.8 0 8.6 3.3 15 9.8 19.2a50 50 0 0 0 27.3 6.3c7.2 0 13.7-1 19.3-3.2 5.6-2.2 10-5.4 13.2-9.5a23.8 23.8 0 0 0 2.6-24.6c-1.5-3-3.5-5.4-6.2-7.4l6.3-.8v-18.2h-97.6l-2.2 20.5h36.9l-4.4 3.3zm34.7 14.1c-8.1 0-13.9-1-17.1-2.7a8.7 8.7 0 0 1-4.9-8c0-4.3 2.8-8 8.4-11.3h29.4c4.1 2.7 6.2 6.1 6.2 10.2v11.8zm20.4 95.8c1.2.8 2.2 2 2.8 3.6l13.8-4.3c-.5-4.2-1.4-7.6-2.9-10.4-1.4-2.8-3.6-5-6.4-6.5 3-2.6 5.4-6 7-9.9 1.7-4 2.5-8.2 2.5-12.8 0-7-2-12.7-6-17-4.1-4.2-9.4-6.4-15.9-6.4-7.5 0-13.3 3-17.5 8.9a42.7 42.7 0 0 0-6.2 24.8v9.2h-2.5c-7.4 0-11-4.5-11-13.6a69.8 69.8 0 0 1 3.9-19l-14-4.7a82.8 82.8 0 0 0-5.2 27c0 20 8.2 30.1 24.7 30.1h31.1zm-.3-26.1c-1.3 2.3-3 4.1-5.3 5.3h-11.2v-5c0-11.1 3.4-16.7 10.2-16.7 2.6 0 4.6.8 6 2.4a10 10 0 0 1 2.2 6.9v3.5zm.4 90.4c-1 2.4-2.6 5-4.6 7.8l13 9.1a40.5 40.5 0 0 0 8.3-25.6c0-7.4-1.5-13.7-4.6-19a31 31 0 0 0-12.9-12.3c-5.5-3-11.9-4.3-19.2-4.3-7.2 0-13.7 1.4-19.4 4.4-5.7 3-10.2 7.1-13.4 12.5a42.4 42.4 0 0 0-2.8 32.8c1.4 4.1 3.5 8 6.4 11.5l12.4-8.8c-3.8-5-5.7-10.2-5.7-15.5 0-10.3 7.6-15.5 22.8-15.5 7.6 0 13 1.4 16.3 4 3.3 2.7 5 6.5 5 11.3v4zm14.3 55.5v-20.5h-97.3l-2.2 20.5zm-38.8 22.3l38.8 24.6v-23.4l-37.6-22.7-32 22.8v21.4zm26 70.8c0 6-1.9 11.8-5.7 17.7l11.4 8.2c3-3.4 5.3-7.4 7-12a45.3 45.3 0 0 0-2.2-35.2 30.2 30.2 0 0 0-13.1-12.1 44 44 0 0 0-19.6-4.1 45 45 0 0 0-19.2 4 31.9 31.9 0 0 0-13.6 11.5c-3.3 5.1-5 11.1-5 18.1a33 33 0 0 0 4.4 17.2c2.8 4.9 7 8.6 12.5 11.3 5.4 2.6 12 4 19.5 4 3 0 5.5-.2 7.6-.5v-44.7l16 2zm-40.7-12.8c2.8-2.3 7-3.6 12.7-4v25.3c-11.2-.2-16.8-4.3-16.8-12.4v-5.5zm-16 57.6v18l7.8 1.4c-3.4 3-6 6.4-7.7 9.8a25.8 25.8 0 0 0-2.6 11.6 18 18 0 0 0 5.5 14 22 22 0 0 0 15.4 5h51.1v-20.5h-45.2a20 20 0 0 1-9.1-1.5c-1.7-1-2.5-2.7-2.5-5.2 0-2 .7-4 2-6 1.5-2 3.5-4 6.2-6h48.6V7425zm-26.5 86.9v19.5l36-2.5v-14.6zm0 24.8v19.6l36-2.4v-14.7l-36-2.5" fill="green" transform="matrix(0 .03623 .03623 0 -45.7 -122.7)"/>
    <path d="M6251.2 7620.9c2.1 2 4.6 3 7.5 3 3.3 0 6.8-.8 10.5-2.4l24.5-10.6v-9.8l-25.9 6c-1-1.1-2.3-2.1-3.9-3a11.3 11.3 0 0 0-12.6 1.9 9.8 9.8 0 0 0-3.2 7.4v4.4" transform="matrix(0 .03623 .03623 0 -45.7 -122.7)"/>
    <path d="M6329.7 1492.8v19.5l36-2.5v-14.6zm0 24.8v19.6l36-2.4V1520zm96 88.8v-24.2l-69.6-23.2v22.2l54 13.4-54 14v20.8zM6413 1678c0 6-1.9 11.8-5.7 17.7l11.4 8.2c3-3.4 5.3-7.4 7-12a45.3 45.3 0 0 0-2.2-35.2 30.3 30.3 0 0 0-13.1-12.1 44.1 44.1 0 0 0-19.6-4.1 45 45 0 0 0-19.2 4 31.8 31.8 0 0 0-13.6 11.5c-3.3 5.1-5 11.1-5 18.1a33 33 0 0 0 4.4 17.2c2.9 4.9 7 8.6 12.5 11.3 5.4 2.6 12 4 19.5 4 3 0 5.5-.2 7.6-.5v-44.7l16 2zm-40.6-12.8c2.7-2.3 7-3.6 12.6-4v25.3c-11.2-.2-16.8-4.3-16.8-12.4v-5.6zm-16.2 57.6v18l8 1.4c-3.5 3-6.1 6.4-7.8 9.8a25.8 25.8 0 0 0-2.6 11.6 18 18 0 0 0 5.5 14 22 22 0 0 0 15.4 5h51.1V1762h-45.2a20 20 0 0 1-9.1-1.5c-1.7-1-2.5-2.7-2.5-5.2 0-2 .7-4 2-6 1.5-2 3.5-4 6.2-6h48.6v-20.6zm47.9 99.7c3.2 0 5.5.6 6.9 1.8 1.4 1.2 2 3 2 5.3 0 2-.6 4.2-2 6.3-1.3 2.2-3.2 4-5.5 5.4H6356v20.5h69.6v-18l-7.8-.8c3.3-2.3 5.8-5.3 7.6-9.1 1.7-3.8 2.6-7.9 2.6-12.1 0-6.5-1.9-11.4-5.7-14.8-3.8-3.3-9.1-5-16-5h-50.3v20.5zm9 93.1c0 6-2 11.8-5.8 17.7l11.4 8.2c3-3.4 5.3-7.4 7-12a45.3 45.3 0 0 0-2.2-35.2 30.3 30.3 0 0 0-13.1-12.1 44.1 44.1 0 0 0-19.6-4.1 45 45 0 0 0-19.2 4 31.8 31.8 0 0 0-13.6 11.5c-3.3 5.1-5 11.1-5 18.1a33 33 0 0 0 4.4 17.2c2.9 4.9 7 8.6 12.5 11.3 5.4 2.6 12 4 19.5 4 3 0 5.5-.2 7.6-.5V1899l16 2zm-40.7-12.8c2.7-2.3 7-3.6 12.6-4v25.3c-11.2-.2-16.8-4.3-16.8-12.4v-5.5zm-42.6 65.3v19.5l36-2.5v-14.6zm0 24.8v19.6l36-2.4v-14.7l-36-2.5" fill="green" transform="matrix(0 .03623 .03623 0 -45.7 -122.7)"/>
    <path d="M6361.6 2061.9c-2 2-3 4.4-3 7.4s1 5.5 3 7.5c2.1 2 4.6 3 7.6 3s5.6-1 7.7-3c2.2-2 3.2-4.5 3.2-7.5s-1-5.4-3.2-7.4c-2.1-2-4.7-3-7.7-3h-4.4zm47 0a9.8 9.8 0 0 0-3.3 7.4c0 3 1 5.5 3.1 7.5s4.7 3 7.7 3c3.1 0 5.7-1 7.7-3s3.1-4.5 3.1-7.5-1-5.4-3-7.4c-2.1-2-4.7-3-7.8-3h-4.4" transform="matrix(0 .03623 .03623 0 -45.7 -122.7)"/>
    <path d="M6416.8 2256h9v-51.6h-9v22h-67.4l12.1-20.4-7.5-4.9-17 26.7v9.6h79.8v18.6" fill="#00f" transform="matrix(0 .03623 .03623 0 -45.7 -122.7)"/>
    <path d="M6476 1356c2.8 5 7.4 7.5 14 7.5l2.6-.1 25.3-2.8 2-.1c3.8 0 6.7 1.5 8.6 4.6 1.9 3 2.8 8.2 2.8 15.3h9c0-7.2.9-12.3 2.8-15.3s4.8-4.6 8.7-4.6l2 .1 24.5 2.7 2.6.2c6.4 0 11-2.5 13.6-7.4a40 40 0 0 0 4-19.1h-8.9a27 27 0 0 1-2.3 12.3c-1.6 3-4.2 4.3-8 4l-26.3-2.7-3.5-.2c-4.3 0-7.4 1-9.5 3.2-2 2.2-3.4 5.7-4.1 10.5-.9-4.6-2.4-8-4.7-10.3-2.2-2.2-5.4-3.3-9.7-3.3l-3.3.1-26.8 2.6c-7 .7-10.5-4.7-10.5-16.2h-8.9v11.7M6563.2 1443.3c2.1 2 4.6 3 7.5 3 3.3 0 6.8-.8 10.5-2.4l24.5-10.6v-9.8l-25.9 6c-1-1.2-2.3-2.2-3.9-3a11.3 11.3 0 0 0-12.6 1.9 9.8 9.8 0 0 0-3.2 7.4v4.4" transform="matrix(0 .03623 .03623 0 -45.7 -122.7)"/>
</svg>
