<svg xmlns="http://www.w3.org/2000/svg" xmlns:xlink="http://www.w3.org/1999/xlink" width="96" height="48">
  <defs>
    <linearGradient id="e">
      <stop offset="0"/>
      <stop offset="1" stop-opacity="0"/>
    </linearGradient>
    <linearGradient id="d">
      <stop offset="0" stop-color="#fff"/>
      <stop offset="1" stop-color="#fff" stop-opacity="0"/>
    </linearGradient>
    <linearGradient id="c">
      <stop offset="0" stop-color="#d6e3f0"/>
      <stop offset="1" stop-color="#95b1cf"/>
    </linearGradient>
    <linearGradient id="b">
      <stop offset="0" stop-color="#fff"/>
      <stop offset="1" stop-color="#cbcbcb"/>
    </linearGradient>
    <linearGradient id="a">
      <stop offset="0" stop-opacity=".07"/>
      <stop offset="1" stop-color="#fff"/>
    </linearGradient>
    <linearGradient gradientUnits="userSpaceOnUse" y2="4.95" x2="41.22" y1="4.95" x1="35.43" gradientTransform="matrix(.254 0 0 3.75981 -23.7 .15)" id="i" xlink:href="#a"/>
    <linearGradient gradientUnits="userSpaceOnUse" y2="84.29" x2="10.22" y1="93.34" x1="10.5" gradientTransform="matrix(2.26274 0 0 .44194 -23.48 -.88)" id="g" xlink:href="#b"/>
    <linearGradient xlink:href="#c" id="h" gradientTransform="matrix(.95775 0 0 1.02799 -23.48 -.57)" x1="6.59" y1="22.13" x2="14.51" y2="22.13" gradientUnits="userSpaceOnUse"/>
    <linearGradient xlink:href="#d" id="j" gradientTransform="matrix(1.02543 0 0 .9573 -24.48 -.8)" x1="73.36" y1="26.65" x2="-2.76" y2="21.27" gradientUnits="userSpaceOnUse"/>
    <radialGradient xlink:href="#e" id="f" cx="25.13" cy="36.75" fx="25.13" fy="36.75" r="15.75" gradientTransform="matrix(1 0 0 .59524 -21.27 14.88)" gradientUnits="userSpaceOnUse"/>
  </defs>
  <g color="#000">
    <path style="marker:none" d="M40.88 36.75a15.75 9.38 0 1 1-31.5 0 15.75 9.38 0 1 1 31.5 0z" transform="matrix(1.1508 0 0 1 19.57 .63)" overflow="visible" fill="url(#f)" fill-rule="evenodd"/>
    <path style="marker:none" d="M30.84 5.52c.1-1.92 1.01-2.97 2.72-2.97l29.33-.1c.24 0 .56.2.6.46l3.25 32.96-1.32.05.63 6.45c.06.62-.18 1.16-1.07 1.16l-30.7.15c-2.54.01-5.15-2.08-5.02-4.66z" overflow="visible" fill="#5b6b94" stroke="#364878" stroke-linecap="round" stroke-linejoin="round"/>
    <path d="M40.13 34.88l-29.2.12a3.07 3.07 0 0 0-2.8 3c0 1.6 1.25 2.82 2.8 3l29.2.13v-.07a3.1 3.1 0 0 1-3-3.06 3.1 3.1 0 0 1 3-3.06z" style="marker:none" overflow="visible" fill="url(#g)" transform="translate(24.48)"/>
    <path d="M9.69 2.81c-1.7 0-2.64 1.01-2.72 2.86L5.3 37.83a5.05 5.05 0 0 0 3.82 5.33c-4.26-1.63-3.7-9 1.62-8.96h30.9l-3.3-30.96c-.03-.24-.35-.43-.6-.43H9.7z" style="marker:none" overflow="visible" fill="url(#h)" transform="translate(24.48)"/>
    <path style="marker:none" transform="matrix(1 0 -.03577 .99936 24.48 0)" overflow="visible" d="M9.79 3.97h2v29.6h-2z" opacity=".48" fill="url(#i)"/>
    <path style="marker:none" d="M9.88 3.33c-1.69 0-2.34.74-2.42 2.56l-1.3 29.89c.93-1.61 2.44-2.19 4.85-2.19h29.95L38.14 3.76c-.03-.24-.35-.43-.59-.43z" stroke-miterlimit="20" overflow="visible" fill="none" stroke="url(#j)" stroke-linecap="round" transform="translate(24.48)"/>
  </g>
</svg>
