<svg xmlns="http://www.w3.org/2000/svg" width="137.2" height="156.1" viewBox="0 0 36.3 41.3">
  <path d="M0 40.31c0-.55.62-2.02 1.37-3.27l1.37-2.27.17-7.76c.15-6.94.26-8.13 1.1-11.28C5.28 10.9 7.2 7 9.63 4.4c4.7-5.08 10.54-5.93 11.39-1.67.16.78-.2 2.27-1.23 5.26-1.62 4.68-1.8 6.29-.77 6.84.44.23 2.57.28 5.91.14 5.85-.24 7.53.04 9.32 1.54 2.2 1.84 2.48 3.83 1.55 10.53-1.54 11.06-3.52 12.43-13.2 9.1-5.67-1.95-8.02-2.22-11.89-1.37-3.7.82-5.53 1.82-8.05 4.39C1.5 40.34.43 41.3.28 41.3c-.16 0-.28-.44-.28-.99zm30.67-5.17c1.52-.78 2.18-2.85 3.22-9.99.58-4.04.32-6.01-.95-7.02-1.36-1.08-3.2-1.3-8.7-1.02-4.09.2-4.81.16-5.9-.4-2.39-1.23-2.63-3.05-1.01-7.51C19 4.6 19.3 2.96 18.64 2.29c-1.24-1.24-5.67 1.24-8.11 4.54-1.65 2.24-3.4 6.21-4.19 9.56-.68 2.87-1.38 9.63-1.4 13.57v1.88l2.26-2.06c2.78-2.55 5.69-4.32 8.07-4.94 2.14-.56 4.98-.63 4.67-.12-.12.19-1.92 1.21-4 2.28-3.44 1.77-8.46 5.32-8.06 5.72.09.09.77 0 1.52-.2 4.3-1.12 8.23-.8 13.35 1.11 5.93 2.22 6.39 2.3 7.92 1.51z"/>
  <path class="fill" fill="#ffaaad" d="M106.73 134.05c-3.13-.67-7.82-2.25-20.04-6.75-11.05-4.06-18.74-5.94-27.3-6.67-3-.26-11.03-.11-13.74.25a96.6 96.6 0 0 0-9.85 1.89c-1.77.42-3.8.8-4.57.85-1.36.09-1.38.08-1.38-.3 0-1.04 6.18-6.08 13.5-11a177.61 177.61 0 0 1 18.19-10.84c10.07-5.3 13.92-7.6 13.92-8.34 0-.37-.64-.74-1.6-.91-2.12-.39-8.32.02-12.76.84-7.27 1.34-14.64 4.71-22.76 10.42-4.66 3.28-7.73 5.83-14.82 12.3-2.51 2.3-4.62 4.18-4.68 4.18-.2 0 .08-14.19.35-18.44.84-13.13 2.37-26.6 4.02-35.57 2.68-14.5 10.66-32.86 18.33-42.2 6.65-8.1 16.98-15.08 23.89-16.15 2.91-.45 5.01.46 5.85 2.53.37.92.28 4.4-.16 6.46-.83 3.84-1.95 7.42-6.2 19.62a74.43 74.43 0 0 0-2.91 10.14 20.53 20.53 0 0 0-.38 4.78c0 3.3.2 4.23 1.3 6.37 1.53 2.95 5.75 6 9.71 7.03 2.76.71 8.64.76 19.83.17 6.28-.34 17.66-.4 20.21-.1 2.96.34 4.86.71 6.7 1.31a14.1 14.1 0 0 1 4.83 2.53c3.65 2.77 5.11 7.43 4.84 15.47-.16 4.86-.98 11.46-2.73 21.88-2.55 15.29-4.7 21.87-8.22 25.32a15.48 15.48 0 0 1-5.31 2.92c-1.49.46-3.95.46-6.06 0z" transform="scale(.26458)"/>
</svg>

