<svg xmlns="http://www.w3.org/2000/svg" width="186.92" height="87.43" viewBox="0 0 49.46 23.13">
  <path d="M15.72 22.98c-7.4-.9-8.89-1.06-10.13-1.06a5.6 5.6 0 0 1-4.08-1.56c-.93-.81-1.75-2.28-1.45-2.59.1-.08.77.4 1.52 1.07 2.32 2.08 4.2 2.2 7.53.47 2.17-1.13 5.07-3.85 5.95-5.6 1.62-3.16 1.3-4.35-1.96-7.55-1.35-1.32-2.57-2.75-2.72-3.18C9.6.76 12.16-.32 16.18.51c2.18.46 4.35 1.63 7.05 3.82 3 2.43 3.4 2.47 4.07.39.26-.8.66-1.97.9-2.6 1.02-2.78 4.3-2.83 6.75-.1 1.25 1.38 1.66 2.19 2.32 4.57.3 1.06.66 2.06.82 2.21.44.44 1.73-.47 5-3.55a43.44 43.44 0 0 1 3.53-3.1c1.55-.86 2.84 0 2.84 1.9 0 2.44-1.4 4.93-4.75 8.43-5.23 5.48-10.6 8.58-17.35 10-2.73.58-8.83.84-11.64.5zm10.98-2.24c4.62-.99 9.69-3.18 13.05-5.65a38.63 38.63 0 0 0 6.7-6.5c1.63-2.2 2.46-5.46 1.38-5.46-.14 0-1.68 1.37-3.42 3.04-3.25 3.12-4.69 4.1-6.02 4.1-1.08 0-1.6-.72-2.2-3.07-.8-3.13-1.66-4.55-3.36-5.59-1.78-1.09-2.95-.56-3.47 1.57-.98 3.99-1.45 4.71-3.1 4.71-.87 0-2.16-.84-4.19-2.74-3.12-2.92-7.13-4.44-9.84-3.71-1.22.33-.93.9 1.86 3.64 2.3 2.25 2.8 2.88 3.08 3.93.74 2.74-.54 5.83-3.73 9-1.14 1.13-1.92 2.05-1.74 2.05.18 0 1.78-.18 3.55-.4A28.8 28.8 0 0 0 24.38 17c1.4-.7 1.53-.74 1.53-.37 0 .98-3.23 3.22-5.7 3.93a648 648 0 0 1-1.98.57c-1.58.45 6.24.1 8.47-.38z"/>
  <path class="fill" fill="#8dcbda" stroke="#000" d="m256.34 642.65-1.87-.16 4.45-1.25c2.44-.68 5.6-1.7 7.02-2.24 9.04-3.46 18.73-10.82 18.42-13.97-.07-.75-.19-.87-.8-.8-.4.04-2.84 1.09-5.44 2.33a110.36 110.36 0 0 1-29.82 9.33c-3.92.62-17.26 2.17-17.42 2.02-.24-.24 1.46-2.22 5.63-6.58 9.57-9.96 14.01-17.22 15.25-24.88.51-3.18.24-8.44-.57-10.81-1.1-3.26-2.65-5.2-10.81-13.55-10.28-10.52-11.52-12.38-9.02-13.66 2.82-1.44 9.31-1.51 14.52-.16 8.51 2.2 16.18 6.7 24.93 14.6 4.47 4.04 7.9 6.66 10.6 8.1 1.92 1.03 2.13 1.08 4.73 1.08 2.44 0 2.86-.08 4.03-.77 2.74-1.6 4.29-5.07 7.01-15.7.43-1.66 1.15-3.8 1.6-4.77 1.44-3.08 3.97-4.69 6.7-4.28 2.6.4 7.13 3.12 9.66 5.83 3.4 3.65 5.23 7.7 8.25 18.4a53.52 53.52 0 0 0 2.03 6c1.7 3.63 4.2 5.03 7.78 4.33 4.54-.9 9.03-4.02 18.53-12.93 13.48-12.63 14.87-13.82 15.85-13.68 2.34.33 1.24 7.43-2.23 14.33-2.61 5.2-5.07 8.32-12.43 15.8-8.92 9.07-15.73 14.64-23.65 19.37a146.07 146.07 0 0 1-37.86 15.62c-6.4 1.6-14.2 2.53-24.33 2.88l-6.73.25c-1.18.05-2.99.02-4.01-.08z" style="-inkscape-stroke:none" transform="matrix(.26458 0 0 .26458 -49.32 -148.78)"/>
</svg>
