<svg xmlns="http://www.w3.org/2000/svg" width="210.87" height="182.58" viewBox="0 0 55.79 48.31">
    <path d="M32.69 48.14c-3-.94-5.4-3.49-8.07-8.56-2.34-4.46-2.82-5-3.98-4.46-1.16.53-2.17 1.97-3.98 5.74-2.45 5.1-2.78 5.63-4 6.47-4.13 2.83-10.02-2.07-10.5-8.73-.3-4.28 1-8.13 3.95-11.77.92-1.13 1.62-2.1 1.55-2.15a16.9 16.9 0 0 0-1.27-.69 7.57 7.57 0 0 1-2.16-1.98C3.11 20.47 1.4 15.53.45 11.07c-.6-2.8-.6-2.91.02-3.37.83-.6 1.14-.43 4.6 2.63 4.51 3.98 7.74 5.34 12.7 5.34 3.2 0 5.9-.71 9.88-2.61 5.39-2.57 8.58-4.82 9.76-6.9C39.78 2 42.91.02 47.06 0c2.3-.01 4.76.6 4.76 1.2 0 .14-1.33.35-2.96.46-4.58.32-6.75 1.56-9.08 5.17-.87 1.35-1.01 1.91-1.01 4.08 0 6.41 3 10.74 9.54 13.76 5.46 2.53 6.5 3.17 7.1 4.36.7 1.4.45 2.37-.9 3.37-1.42 1.06-4.92 1.14-9.72.22-3.04-.58-4.08-.66-4.46-.35-.85.71-1.2 2.85-1.2 7.36 0 4.8-.58 6.8-2.27 7.91a5.7 5.7 0 0 1-4.17.6zM12.2 45.18c.43-.42 1.56-2.35 2.52-4.29 2.13-4.28 3.57-6.31 5.03-7.07 2.2-1.14 3.51-.12 5.66 4.4.78 1.64 1.9 3.68 2.49 4.53 2.18 3.17 6.05 4.59 7.7 2.82.95-1.02 1-1.3 1.16-7.15.15-5.05.43-6.31 1.78-7.85.96-1.08 3.15-1.04 6.76.14 3.5 1.15 7.57 1.34 8.51.4.58-.57.58-.64-.02-1.3-.35-.39-1.77-1.13-3.16-1.66-4.22-1.59-7.07-3.18-9.18-5.1A13.99 13.99 0 0 1 37 15.9l-.6-2.14-.75 2.28a34.01 34.01 0 0 0-1.12 4.92c-.43 3.08-.81 3.68-1.35 2.13-1-2.88-.85-4.8.85-10.23.23-.75.2-.82-.24-.46-.9.73-5.67 2.99-8.25 3.9-3.01 1.05-8.5 1.44-11.56.8-3.07-.63-6.59-2.57-9.4-5.16-1.37-1.28-2.5-2.2-2.5-2.06 0 .59 2.59 8.88 3.08 9.86a6.46 6.46 0 0 0 3.26 3.22c1.15.48 1.76 1.03 1.77 1.61 0 .14-.73 1.09-1.63 2.1-3.74 4.21-5.25 9.97-3.69 14.1 1.22 3.21 4.13 5.9 5.85 5.38a4.5 4.5 0 0 0 1.48-.96z"/>
    <path class="fill" fill="#ffaaad" d="M32.94 46.22a7.83 7.83 0 0 1-4-2.34c-1.06-1.1-1.69-2.13-3.48-5.7-1.96-3.88-2.86-4.87-4.38-4.77-1.2.07-2.28.8-3.38 2.26a34.24 34.24 0 0 0-2.87 4.91c-2.01 3.88-2.66 4.8-3.73 5.33-.67.33-1.22.3-2.04-.12-1.83-.92-3.77-3.53-4.44-5.98-.3-1.09-.33-3.95-.05-5.21a16.78 16.78 0 0 1 1.47-4.05 17.81 17.81 0 0 1 2.69-4c1.1-1.3 1.48-1.83 1.48-2.09 0-.42-.63-.98-1.82-1.59a6.72 6.72 0 0 1-3.51-4 141.8 141.8 0 0 1-2.18-6.85c-.54-1.87-.57-2.04-.48-2.04.05 0 .6.45 1.23 1 .62.56 1.56 1.37 2.08 1.8 2.64 2.22 6.02 3.91 8.87 4.44 1.3.24 5.18.24 7.02 0 2.67-.36 4.27-.84 7.36-2.2a50.91 50.91 0 0 0 5.32-2.7c.02.02-.15.64-.37 1.38-1.26 4.17-1.47 6.26-.86 8.5.68 2.53 1.13 2.3 1.65-.88.17-1 .44-2.39.6-3.07.32-1.36 1.19-4.18 1.28-4.18.04 0 .14.32.24.72.8 3.13 1.77 5.09 3.5 7 2.29 2.54 5.1 4.28 10.16 6.28 1.78.7 2.88 1.27 3.41 1.77.51.46.55.76.14 1.16-.47.47-1.24.64-2.85.63-1.96-.02-3.42-.28-6.1-1.09-2.9-.87-4.69-1-5.82-.43a4.5 4.5 0 0 0-1.44 1.71c-.6 1.17-.78 2.56-.93 7.14-.17 4.88-.28 5.6-1 6.4-.66.76-1.62 1.05-2.77.86z"/>
</svg>
