<?xml version="1.0" encoding="UTF-8" standalone="no"?>
<!-- no-bg -->
<svg xmlns="http://www.w3.org/2000/svg" xmlns:xlink="http://www.w3.org/1999/xlink" viewBox="-1 -1 50 25" version="1.1" id="svg78" width="50" height="25" style="background-color:#000">
  <style id="style4">
    .on{fill:red}use{fill:#222}
  </style>
  <defs id="defs">
    <path id="a" fill-opacity=".75" fill-rule="evenodd" stroke="#000" stroke-width=".25" stroke-linecap="butt" stroke-linejoin="miter" stroke-opacity="1" d="m8 0 1 1-1 1H2L1 1l1-1z"/>
    <path id="b" fill-opacity=".75" fill-rule="evenodd" stroke="#000" stroke-width=".25" stroke-linecap="butt" stroke-linejoin="miter" stroke-opacity="1" d="M10 8 9 9 8 8V2l1-1 1 1z"/>
    <path id="c" fill-opacity=".75" fill-rule="evenodd" stroke="#000" stroke-width=".25" stroke-linecap="butt" stroke-linejoin="miter" stroke-opacity="1" d="m10 16-1 1-1-1v-6l1-1 1 1z"/>
    <path id="d" fill-opacity=".75" fill-rule="evenodd" stroke="#000" stroke-width=".25" stroke-linecap="butt" stroke-linejoin="miter" stroke-opacity="1" d="m2 18-1-1 1-1h6l1 1-1 1z"/>
    <path id="e" fill-opacity=".75" fill-rule="evenodd" stroke="#000" stroke-width=".25" stroke-linecap="butt" stroke-linejoin="miter" stroke-opacity="1" d="m0 10 1-1 1 1v6l-1 1-1-1z"/>
    <path id="f" fill-opacity=".75" fill-rule="evenodd" stroke="#000" stroke-width=".25" stroke-linecap="butt" stroke-linejoin="miter" stroke-opacity="1" d="m0 2 1-1 1 1v6L1 9 0 8z"/>
    <path id="g" fill-opacity=".75" fill-rule="evenodd" stroke="#000" stroke-width=".25" stroke-linecap="butt" stroke-linejoin="miter" stroke-opacity="1" d="m8 8 1 1-1 1H2L1 9l1-1z"/>
  </defs>
  <g id="g28" transform="translate(1 2.5)">
    <use xlink:href="#a" id="use14" x="0" y="0" width="100%" height="100%" fill="#222"/>
    <use xlink:href="#b" class="on" id="use16" x="0" y="0" width="100%" height="100%" fill="red"/>
    <use xlink:href="#c" class="on" id="use18" x="0" y="0" width="100%" height="100%" fill="red"/>
    <use xlink:href="#d" id="use20" x="0" y="0" width="100%" height="100%" fill="#222"/>
    <use xlink:href="#e" id="use22" x="0" y="0" width="100%" height="100%" fill="#222"/>
    <use xlink:href="#f" id="use24" x="0" y="0" width="100%" height="100%" fill="#222"/>
    <use xlink:href="#g" id="use26" x="0" y="0" width="100%" height="100%" fill="#222"/>
  </g>
  <g transform="translate(13 2.5)" id="g44">
    <use xlink:href="#a" class="on" id="use30" x="0" y="0" width="100%" height="100%" fill="red"/>
    <use xlink:href="#b" class="on" id="use32" x="0" y="0" width="100%" height="100%" fill="red"/>
    <use xlink:href="#c" class="on" id="use34" x="0" y="0" width="100%" height="100%" fill="red"/>
    <use xlink:href="#d" class="on" id="use36" x="0" y="0" width="100%" height="100%" fill="red"/>
    <use xlink:href="#e" class="on" id="use38" x="0" y="0" width="100%" height="100%" fill="red"/>
    <use xlink:href="#f" class="on" id="use40" x="0" y="0" width="100%" height="100%" fill="red"/>
    <use xlink:href="#g" id="use42" x="0" y="0" width="100%" height="100%" fill="#222"/>
  </g>
  <g transform="translate(25 2.5)" id="g60">
    <use xlink:href="#a" class="on" id="use46" x="0" y="0" width="100%" height="100%" fill="red"/>
    <use xlink:href="#b" class="on" id="use48" x="0" y="0" width="100%" height="100%" fill="red"/>
    <use xlink:href="#c" class="on" id="use50" x="0" y="0" width="100%" height="100%" fill="red"/>
    <use xlink:href="#d" class="on" id="use52" x="0" y="0" width="100%" height="100%" fill="red"/>
    <use xlink:href="#e" class="on" id="use54" x="0" y="0" width="100%" height="100%" fill="red"/>
    <use xlink:href="#f" class="on" id="use56" x="0" y="0" width="100%" height="100%" fill="red"/>
    <use xlink:href="#g" class="on" id="use58" x="0" y="0" width="100%" height="100%" fill="red"/>
  </g>
  <g transform="translate(37 2.5)" id="g76">
    <use xlink:href="#a" class="on" id="use62" x="0" y="0" width="100%" height="100%" fill="red"/>
    <use xlink:href="#b" class="on" id="use64" x="0" y="0" width="100%" height="100%" fill="red"/>
    <use xlink:href="#c" class="on" id="use66" x="0" y="0" width="100%" height="100%" fill="red"/>
    <use xlink:href="#d" class="on" id="use68" x="0" y="0" width="100%" height="100%" fill="red"/>
    <use xlink:href="#e" id="use70" x="0" y="0" width="100%" height="100%" fill="#222"/>
    <use xlink:href="#f" class="on" id="use72" x="0" y="0" width="100%" height="100%" fill="red"/>
    <use xlink:href="#g" class="on" id="use74" x="0" y="0" width="100%" height="100%" fill="red"/>
  </g>
</svg>
